<svg width="171" height="124" viewBox="0 0 171 124" fill="none" xmlns="http://www.w3.org/2000/svg">
<g clip-path="url(#clip0_9_30164)">
<path d="M166.077 19.2371V12.6992C166.077 12.0831 165.598 11.6039 164.983 11.6039H159.134V6.74327C159.134 6.12714 158.655 5.64792 158.04 5.64792H152.431V1.12961C152.431 0.82154 152.294 0.513473 152.055 0.308095C151.815 0.102717 151.508 2.78577e-05 151.166 0.0342575C122.266 3.21762 92.8882 19.8875 89.8102 21.6674H81.1917C78.0794 19.8875 48.7013 3.21762 19.802 0.0342575C19.4942 2.78577e-05 19.1864 0.102717 18.947 0.308095C18.7076 0.513473 18.5708 0.82154 18.5708 1.12961V5.64792H12.9961C12.3805 5.64792 11.9017 6.12714 11.9017 6.74327V11.5697H6.05346C5.43786 11.5697 4.95905 12.0489 4.95905 12.665V19.2371H1.09441C0.478805 19.2371 0 19.7163 0 20.3325V117.716C0 117.716 37.4836 118.709 80.8839 123.432H90.118C133.552 118.743 171.002 117.716 171.002 117.716V20.3325C171.002 19.7163 170.523 19.2371 169.907 19.2371H166.077ZM163.854 13.7946V108.885C163.854 108.885 163.854 108.885 163.854 108.919C157.766 109.056 127.465 110.014 99.8993 116.244C112.827 111.691 136.836 104.264 158.04 103.442C158.621 103.408 159.1 102.929 159.1 102.347V13.7946H163.854ZM156.911 7.83862V101.286C139.024 102.176 119.359 107.515 105.919 111.897C117.649 106.523 134.613 100.053 151.405 98.205C151.952 98.1365 152.397 97.6573 152.397 97.1096V7.83862H156.911ZM91.2124 23.4131C95.3506 21.017 122.848 5.75061 150.208 2.36188V6.74327V96.117C124.147 99.2661 97.9498 113.095 91.2124 116.86V23.4131ZM81.9783 23.8581H88.9893V117.647H81.9783V23.8581ZM20.7938 2.36188C48.1199 5.71638 75.6512 21.017 79.7895 23.4131V116.86C73.052 113.095 46.8545 99.2661 20.7938 96.117V2.36188ZM14.0906 7.83862H18.605V97.1096C18.605 97.6573 19.0154 98.1365 19.5968 98.205C36.3892 100.053 53.3526 106.523 65.0833 111.897C51.6768 107.55 31.9773 102.176 14.0906 101.286V7.83862ZM7.14788 13.7946H11.9017V102.347C11.9017 102.929 12.3805 103.408 12.9619 103.442C34.1662 104.264 58.209 111.691 71.1026 116.244C43.5029 109.98 13.2013 109.022 7.14788 108.919C7.14788 108.919 7.14788 108.919 7.14788 108.885V13.7946Z" fill="black"/>
<path d="M144.531 16.4645C123.703 20.3667 103.798 30.3275 96.1716 34.4351C95.6244 34.7089 95.4534 35.3935 95.727 35.907C95.9322 36.2835 96.3084 36.4889 96.6846 36.4889C96.8556 36.4889 97.0266 36.4546 97.1976 36.3519C104.722 32.2786 124.387 22.4205 144.907 18.5867C145.489 18.4841 145.899 17.9022 145.796 17.3203C145.694 16.7383 145.112 16.3276 144.531 16.4645Z" fill="black"/>
<path d="M144.531 26.0146C123.703 29.9168 103.798 39.8776 96.1716 43.9852C95.6244 44.259 95.4534 44.9436 95.727 45.4571C95.9322 45.8336 96.3084 46.039 96.6846 46.039C96.8556 46.039 97.0266 46.0047 97.1976 45.902C104.722 41.8287 124.387 31.9706 144.907 28.1368C145.489 28.0341 145.899 27.4522 145.796 26.8703C145.694 26.2884 145.112 25.9119 144.531 26.0146Z" fill="black"/>
<path d="M144.531 35.5989C123.703 39.5011 103.798 49.4619 96.1716 53.5695C95.6244 53.8433 95.4534 54.5279 95.727 55.0414C95.9322 55.4179 96.3084 55.6233 96.6846 55.6233C96.8556 55.6233 97.0266 55.589 97.1976 55.4863C104.722 51.413 124.387 41.5549 144.907 37.7211C145.489 37.6185 145.899 37.0366 145.796 36.4547C145.694 35.8727 145.112 35.462 144.531 35.5989Z" fill="black"/>
<path d="M144.531 45.149C123.703 49.0512 103.798 59.012 96.1716 63.1196C95.6244 63.3934 95.4534 64.078 95.727 64.5915C95.9322 64.968 96.3084 65.1734 96.6846 65.1734C96.8556 65.1734 97.0266 65.1391 97.1976 65.0364C104.722 60.9631 124.387 51.105 144.907 47.2712C145.489 47.1685 145.899 46.5866 145.796 46.0047C145.694 45.4228 145.112 45.0463 144.531 45.149Z" fill="black"/>
<path d="M144.531 54.699C123.703 58.6012 103.798 68.562 96.1716 72.6696C95.6244 72.9434 95.4534 73.628 95.727 74.1415C95.9322 74.518 96.3084 74.7234 96.6846 74.7234C96.8556 74.7234 97.0266 74.6892 97.1976 74.5865C104.722 70.5131 124.387 60.655 144.907 56.8213C145.489 56.7186 145.899 56.1367 145.796 55.5548C145.694 55.0071 145.112 54.5963 144.531 54.699Z" fill="black"/>
<path d="M144.531 64.2834C123.703 68.1855 103.798 78.1464 96.1716 82.2539C95.6244 82.5278 95.4534 83.2124 95.727 83.7258C95.9322 84.1023 96.3084 84.3077 96.6846 84.3077C96.8556 84.3077 97.0266 84.2735 97.1976 84.1708C104.722 80.0975 124.387 70.2393 144.907 66.4056C145.489 66.3029 145.899 65.721 145.796 65.1391C145.694 64.5572 145.112 64.1464 144.531 64.2834Z" fill="black"/>
<path d="M144.531 73.8334C123.703 77.7356 103.798 87.6965 96.1716 91.804C95.6244 92.0779 95.4534 92.7625 95.727 93.2759C95.9322 93.6524 96.3084 93.8578 96.6846 93.8578C96.8556 93.8578 97.0266 93.8236 97.1976 93.7209C104.722 89.6476 124.387 79.7894 144.907 75.9557C145.489 75.853 145.899 75.2711 145.796 74.6892C145.694 74.1073 145.112 73.7308 144.531 73.8334Z" fill="black"/>
<path d="M144.531 83.4178C123.703 87.3199 103.798 97.2808 96.1716 101.388C95.6244 101.662 95.4534 102.347 95.727 102.86C95.9322 103.237 96.3084 103.442 96.6846 103.442C96.8556 103.442 97.0266 103.408 97.1976 103.305C104.722 99.2319 124.387 89.3737 144.907 85.54C145.489 85.4373 145.899 84.8554 145.796 84.2735C145.694 83.6916 145.112 83.2808 144.531 83.4178Z" fill="black"/>
<path d="M74.83 34.4351C67.2375 30.3275 47.2987 20.3325 26.4707 16.4645C25.8893 16.3618 25.3079 16.7383 25.2053 17.3545C25.1027 17.9364 25.4789 18.5183 26.0945 18.621C46.6147 22.4547 66.2799 32.3128 73.804 36.3862C73.975 36.4889 74.146 36.5231 74.317 36.5231C74.6932 36.5231 75.0694 36.3177 75.2746 35.9412C75.5482 35.3935 75.3772 34.7089 74.83 34.4351Z" fill="black"/>
<path d="M74.83 43.9852C67.2375 39.8776 47.2987 29.8826 26.4707 26.0146C25.8893 25.9119 25.3079 26.2885 25.2053 26.9046C25.1027 27.4865 25.4789 28.0684 26.0945 28.1711C46.6147 32.0048 66.2799 41.863 73.804 45.9363C73.975 46.039 74.146 46.0732 74.317 46.0732C74.6932 46.0732 75.0694 45.8678 75.2746 45.4913C75.5482 44.9436 75.3772 44.2933 74.83 43.9852Z" fill="black"/>
<path d="M74.83 53.5695C67.2375 49.4619 47.2987 39.4669 26.4707 35.5989C25.8893 35.4962 25.3079 35.8727 25.2053 36.4889C25.1027 37.0708 25.4789 37.6527 26.0945 37.7554C46.6147 41.5891 66.2799 51.4472 73.804 55.5206C73.975 55.6233 74.146 55.6575 74.317 55.6575C74.6932 55.6575 75.0694 55.4521 75.2746 55.0756C75.5482 54.5279 75.3772 53.8433 74.83 53.5695Z" fill="black"/>
<path d="M74.83 63.1195C67.2375 59.012 47.2987 49.0169 26.4707 45.149C25.8893 45.0463 25.3079 45.4228 25.2053 46.0389C25.1027 46.6208 25.4789 47.2027 26.0945 47.3054C46.6147 51.1391 66.2799 60.9973 73.804 65.0706C73.975 65.1733 74.146 65.2075 74.317 65.2075C74.6932 65.2075 75.0694 65.0022 75.2746 64.6256C75.5482 64.078 75.3772 63.4276 74.83 63.1195Z" fill="black"/>
<path d="M74.83 72.7039C67.2375 68.5963 47.2987 58.6013 26.4707 54.7333C25.8893 54.6306 25.3079 55.0071 25.2053 55.6233C25.1027 56.2052 25.4789 56.7871 26.0945 56.8898C46.6147 60.7235 66.2799 70.5816 73.804 74.655C73.975 74.7577 74.146 74.7919 74.317 74.7919C74.6932 74.7919 75.0694 74.5865 75.2746 74.21C75.5482 73.6623 75.3772 72.9777 74.83 72.7039Z" fill="black"/>
<path d="M74.83 82.2539C67.2375 78.1464 47.2987 68.1513 26.4707 64.2834C25.8893 64.1807 25.3079 64.5572 25.2053 65.1733C25.1027 65.7552 25.4789 66.3371 26.0945 66.4398C46.6147 70.2735 66.2799 80.1317 73.804 84.205C73.975 84.3077 74.146 84.3419 74.317 84.3419C74.6932 84.3419 75.0694 84.1366 75.2746 83.76C75.5482 83.2124 75.3772 82.562 74.83 82.2539Z" fill="black"/>
<path d="M74.83 91.8382C67.2375 87.7307 47.2987 77.7356 26.4707 73.8676C25.8893 73.765 25.3079 74.1415 25.2053 74.7576C25.1027 75.3395 25.4789 75.9214 26.0945 76.0241C46.6147 79.8578 66.2799 89.716 73.804 93.7893C73.975 93.892 74.146 93.9262 74.317 93.9262C74.6932 93.9262 75.0694 93.7209 75.2746 93.3443C75.5482 92.7624 75.3772 92.1121 74.83 91.8382Z" fill="black"/>
<path d="M74.83 101.388C67.2375 97.2808 47.2987 87.2857 26.4707 83.4178C25.8893 83.3151 25.3079 83.6916 25.2053 84.3077C25.1027 84.8896 25.4789 85.4715 26.0945 85.5742C46.6147 89.4079 66.2799 99.2661 73.804 103.339C73.975 103.442 74.146 103.476 74.317 103.476C74.6932 103.476 75.0694 103.271 75.2746 102.894C75.5482 102.347 75.3772 101.662 74.83 101.388Z" fill="black"/>
</g>
<defs>
<clipPath id="clip0_9_30164">
<rect width="171.002" height="123.432" fill="white"/>
</clipPath>
</defs>
</svg>
