<svg width="674" height="1523" viewBox="0 0 674 1523" fill="none" xmlns="http://www.w3.org/2000/svg">
<path d="M103.003 1512.81C103.464 1514.81 103.925 1516.93 104.387 1519.55C108.076 1519.55 111.92 1519.55 116.071 1519.55C116.378 1517.31 116.685 1515.18 116.993 1512.19C120.068 1512.19 122.835 1512.19 125.602 1512.19L207.389 1511.44C211.233 1511.44 214.923 1510.69 219.996 1510.31C222.917 1510.69 227.067 1511.31 231.679 1512.06C232.141 1513.93 232.448 1516.18 233.063 1518.68C239.52 1518.68 245.977 1518.68 253.202 1518.43C253.663 1515.68 254.125 1512.69 254.586 1509.07C266.424 1509.81 278.107 1510.56 290.252 1511.31C290.56 1507.69 290.867 1504.82 291.329 1501.07C300.86 1500.7 310.546 1500.83 320.846 1500.7C321.154 1503.7 321.461 1506.57 321.922 1510.06C324.228 1510.19 326.534 1510.44 329.609 1510.69C330.07 1512.94 330.531 1515.43 331.146 1518.05C359.741 1517.8 388.028 1517.43 416.316 1517.18L418.929 1515.18C418.468 1513.81 418.007 1512.44 417.392 1510.69C422.004 1508.69 426.77 1510.31 431.689 1509.19C432.458 1511.31 433.072 1512.94 433.841 1515.06C435.84 1515.06 437.838 1515.06 440.606 1515.06C441.067 1513.68 441.682 1512.06 442.45 1509.94C444.603 1509.94 447.063 1509.94 449.676 1509.94C454.442 1509.19 459.515 1508.82 461.975 1505.19C461.053 1509.69 460.437 1513.31 459.669 1516.56C464.127 1516.81 468.432 1517.06 472.89 1517.06C480.116 1517.06 487.495 1517.06 494.72 1516.81C501.485 1516.56 508.403 1517.55 515.321 1515.68V1515.93C522.7 1515.43 529.926 1516.56 536.844 1514.43H540.841C546.683 1514.56 552.679 1515.31 558.367 1515.56C564.209 1512.94 569.897 1509.44 575.278 1505.57C576.661 1504.57 581.12 1505.07 583.272 1506.07C589.421 1508.94 596.186 1511.06 602.95 1513.06H605.717V1513.93C610.329 1515.31 614.788 1516.81 619.092 1518.55C619.246 1516.81 619.553 1514.93 619.707 1513.19C621.091 1513.19 621.86 1513.31 623.089 1513.44C623.397 1515.68 623.551 1518.18 623.858 1520.68C625.242 1521.3 626.625 1522.17 628.009 1522.92L657.372 1522.55L658.141 1519.18C658.295 1517.43 656.757 1515.43 655.989 1513.56H655.681H655.374C652.145 1514.68 649.071 1515.81 645.842 1516.93L641.23 1513.06C643.998 1512.56 646.611 1511.56 649.378 1511.69C651.377 1511.69 653.375 1512.81 655.374 1513.56L655.835 1513.31V1513.56C662.138 1513.31 665.674 1512.19 666.135 1505.57C666.597 1499.58 669.21 1495.83 673.207 1494.33C658.448 1496.33 643.383 1494.08 628.009 1495.58C627.702 1491.96 627.548 1489.21 627.24 1485.47C619.861 1486.34 612.635 1484.22 605.717 1487.22H605.41C608.946 1491.46 612.482 1495.71 616.171 1500.08C592.035 1502.45 591.881 1502.45 582.503 1489.96C585.424 1488.71 588.345 1487.47 591.266 1486.22C578.968 1485.34 566.822 1486.22 554.523 1486.22C555.292 1494.83 553.601 1494.33 541.148 1490.59C543.455 1488.96 545.453 1487.59 547.605 1486.22C542.993 1486.22 538.381 1486.09 533.616 1484.97C527.927 1483.6 521.163 1485.84 514.706 1486.47V1487.97C502.253 1487.97 489.647 1488.22 476.58 1488.34C476.272 1490.34 475.965 1492.46 475.503 1495.58C465.357 1495.58 454.903 1495.83 443.988 1495.96C443.527 1493.33 442.912 1490.96 442.45 1488.46C439.222 1488.46 436.301 1488.46 433.38 1488.09C430.613 1487.72 427.846 1486.97 424.31 1486.22C417.084 1489.96 408.167 1488.22 399.712 1488.46C395.868 1488.46 391.872 1488.46 387.874 1488.46V1488.71L385.722 1490.21L384.8 1489.21L385.876 1488.59C377.728 1488.34 369.58 1488.22 361.74 1489.46C351.286 1491.21 340.678 1492.46 330.839 1490.96C315.312 1488.71 299.938 1490.46 284.564 1489.84C281.028 1489.71 277.646 1489.46 274.11 1491.34C271.651 1492.58 267.654 1492.34 264.579 1491.84C261.197 1491.34 258.276 1490.96 255.509 1490.71L259.044 1493.83C259.813 1494.71 253.51 1499.7 251.819 1501.45C240.135 1501.2 235.677 1496.95 234.908 1491.34C233.217 1491.59 231.679 1491.71 229.681 1491.96C222.455 1492.96 214.615 1493.46 207.082 1491.34C203.699 1490.46 200.01 1490.46 196.474 1490.46H195.09L193.553 1491.84C192.17 1491.84 190.479 1491.34 188.788 1490.59C177.257 1490.59 165.573 1490.84 153.735 1490.84C153.274 1488.47 152.813 1486.22 152.352 1483.85C133.596 1481.47 114.687 1486.09 95.1623 1483.6C94.5474 1486.22 94.0864 1488.59 93.4715 1491.21C89.4744 1491.21 85.631 1491.21 81.4801 1491.21C81.1727 1488.71 80.7114 1486.59 80.4039 1483.85C75.1769 1484.22 69.9501 1484.59 64.7231 1485.09L60.8797 1485.34L59.9573 1485.59L58.4199 1485.84C57.8049 1487.09 56.8826 1488.47 55.6527 1490.46L53.039 1489.84L50.887 1488.46C52.8855 1486.59 55.0376 1484.84 57.3436 1483.1L56.2673 1481.85C53.8076 1482.6 51.1941 1483.22 47.6582 1483.97L46.7358 1482.22C46.5821 1481.47 46.4285 1481.35 46.4285 1479.48C46.4285 1476.35 46.4285 1473.23 46.4285 1469.86C49.1958 1469.49 51.809 1469.24 55.345 1468.86C55.345 1467.37 56.1139 1465.62 55.6527 1463.99C53.0392 1454.76 52.4243 1445.64 55.1915 1436.4C55.8065 1434.16 55.1915 1431.66 55.1915 1429.29L54.7304 1395.7C54.7304 1389.96 53.1929 1384.09 56.5751 1378.47C57.805 1376.47 56.5751 1373.85 56.5751 1371.48C55.1915 1370.73 53.9615 1370.11 52.1167 1369.11C53.0391 1359.49 50.5791 1349.76 53.3463 1339.77C54.4225 1335.77 54.8837 1331.03 51.9628 1326.78C51.0404 1325.41 50.8866 1323.04 51.9628 1321.66C55.0375 1317.79 52.8851 1314.3 49.9641 1309.43C51.6552 1308.81 53.6539 1308.06 55.8061 1307.18C54.5763 1303.56 53.3465 1300.32 52.1167 1296.45C49.9644 1296.2 47.3509 1295.95 43.9687 1295.57C43.9687 1292.57 43.9687 1289.45 43.9687 1285.71C47.1971 1285.46 50.5795 1285.21 54.7304 1284.83C54.5766 1271.48 54.4228 1257.99 54.1153 1243.51C53.6541 1243.26 51.9628 1242.51 50.118 1241.76C50.118 1239.51 50.118 1237.27 50.118 1234.89C51.5016 1234.27 52.8852 1233.65 54.4226 1233.02C54.4226 1222.53 54.1151 1212.05 53.9614 1201.31C52.7315 1200.81 51.3481 1200.19 49.8107 1199.56C49.1958 1156.99 48.5809 1114.29 47.966 1071.22C51.8093 1071.09 55.3453 1070.84 59.0349 1070.72C59.0349 1064.97 58.8809 1059.73 58.7272 1053.99C55.4987 1053.74 52.1165 1053.49 47.6582 1053.11C47.3507 1050.12 47.1972 1046.99 46.8897 1043.37C50.5794 1043 54.1153 1042.62 57.9587 1042.25L58.881 1040.13L57.6509 957.727C57.6509 954.855 55.6527 952.108 55.6527 949.237C55.6527 944.617 54.7301 940.123 56.8824 935.378C58.5735 931.633 58.4198 926.888 56.8824 923.268C54.8838 918.898 55.1914 914.528 55.0377 910.283C54.5765 878.072 54.1152 845.985 53.5002 813.899C55.0376 813.025 56.2674 812.401 57.8048 811.402C57.8048 808.156 57.8048 804.66 57.8048 801.039C56.5749 800.54 55.3452 799.916 53.6541 799.167C53.6541 787.181 53.3466 775.195 53.1929 763.085C53.1929 761.711 53.9615 760.338 54.5765 758.965C57.9586 751.349 57.9584 743.483 57.1897 735.618C55.8061 734.994 54.5764 734.494 52.5778 733.62C52.5778 730.998 52.5778 728.127 52.5778 725.255L48.2733 415.377C48.2733 404.515 47.0434 393.528 48.2733 382.666C49.3494 373.302 49.8107 364.063 49.3495 354.7C49.1958 348.957 46.8898 343.089 47.5048 337.345C49.5033 313.249 48.427 289.153 48.2733 265.057C48.2733 262.435 48.2733 259.813 48.2733 256.692C44.2762 256.692 40.7402 256.442 36.7431 256.318C37.8193 252.697 38.7417 249.451 39.6641 246.08C42.1239 245.83 44.4301 245.705 47.5048 245.456C48.7347 239.713 49.8105 233.72 51.0404 228.102C49.0418 226.853 47.5047 225.854 45.9673 224.855C45.9673 218.363 45.506 211.871 45.8134 205.379C45.9672 201.009 47.3509 196.764 47.3509 192.519C47.3509 188.524 46.5823 184.529 45.9673 179.41C46.4285 179.16 47.8119 178.286 49.5029 177.412C49.5029 172.293 49.5033 166.925 49.3495 161.806C47.8122 160.932 46.5821 160.308 45.3523 159.684C47.0434 157.561 48.5807 155.563 50.118 153.441C47.9657 152.567 46.736 151.943 45.045 151.194C44.8912 139.583 44.7375 127.847 44.5838 115.986C45.9674 115.237 47.5044 114.488 49.0418 113.739C49.0418 109.743 49.0421 105.873 48.8883 102.128C47.351 101.129 45.8133 100.13 44.7372 99.3808C45.3521 95.2607 45.9675 91.2656 46.5824 87.0207C42.8928 86.6461 40.1251 86.3964 37.0504 86.1467C37.0504 82.7758 37.0504 79.6545 37.0504 76.4084C39.5102 75.909 41.6628 75.4096 44.1226 74.9102C43.8151 58.4299 43.6612 42.3243 43.5075 26.4683C45.5061 24.4707 47.0434 22.7227 48.7345 20.85C46.2747 19.6015 44.891 18.7275 42.8924 17.7287C42.8924 11.9856 42.7389 6.11766 42.5851 0C28.134 0 26.1355 5.33474e-05 11.3769 0.249754C12.2993 5.49347 7.0722 10.1129 10.3006 14.8572C11.2231 16.3554 10.3005 29.5895 9.68557 31.2126C5.84219 41.7 1.38379 41.3254 0.000171245 52.4371C4.76596 52.6868 9.07078 52.9365 13.6828 53.1862C13.9903 53.9353 14.2976 54.6844 14.9125 56.0577C10.3005 56.3074 5.99598 56.682 0.615244 57.0566C0.307773 63.0494 0.615244 69.0422 0.615244 75.6592C4.45863 75.7841 7.84097 76.0338 11.8381 76.1586C11.8381 79.4048 11.8381 82.5261 11.8381 86.2716C8.45591 86.5213 4.92013 86.8958 0.923014 87.1455C1.23048 107.496 1.53792 127.722 1.84539 148.572C6.30371 148.572 10.6082 148.572 15.2203 148.572C15.5278 165.302 15.6813 181.407 15.9888 198.262C11.3767 198.262 7.22579 198.262 2.45999 198.262C2.45999 200.759 2.45999 203.256 2.45999 205.628C4.61229 206.378 7.07218 207.876 6.91845 208.625C6.76471 210.622 4.92006 212.495 2.76776 215.367C6.61114 215.616 10.7618 215.741 15.9888 216.116C17.2187 221.36 16.4501 226.978 16.6038 232.346C16.6038 237.84 16.7574 243.458 16.9111 249.201C11.9916 249.451 7.99459 249.576 3.07506 249.825C3.07506 252.822 2.76761 255.943 2.61388 259.564C7.22594 259.813 11.5306 260.063 16.1427 260.313C16.4501 261.062 16.7577 261.811 17.2189 263.184C12.6069 263.559 8.30191 263.809 2.92118 264.183C2.92118 276.044 3.22895 288.154 3.22895 300.14L3.69014 337.345C3.84387 349.456 2.46022 361.691 4.61251 373.552C6.7648 385.912 5.9962 398.148 6.61114 410.383C7.37982 422.244 5.53483 434.104 6.91845 445.965C8.30206 458.325 7.68723 470.685 7.99471 483.171L8.45589 519.502L8.91708 556.707L9.22438 593.039C9.22438 605.399 9.8393 617.759 9.68557 630.244L8.45589 666.201C8.45589 678.561 8.76334 691.046 8.91708 703.406C9.07081 715.517 9.22453 727.503 9.37827 739.114C13.0679 741.611 18.6022 738.739 22.5993 742.984C17.6797 743.608 14.1441 744.108 9.37827 744.732C10.7619 752.223 10.4542 759.839 10.1468 767.455C9.83928 775.32 11.6842 783.186 12.1454 790.927C12.6066 798.917 12.4528 806.907 12.6066 814.773C12.6066 822.763 14.2977 830.879 12.6066 838.619C10.7618 846.61 12.1456 854.35 11.3769 862.216C10.6082 870.082 15.0666 877.448 12.9143 885.563C10.9158 893.179 11.8379 901.419 12.1454 909.285C12.4529 917.15 13.0677 925.016 14.4513 932.756C15.9887 940.497 8.60936 948.238 14.9125 955.479C12.914 957.851 11.2232 959.849 9.53215 961.846C11.8382 962.845 13.068 963.47 14.7591 964.219C15.0666 985.943 15.374 1007.67 15.6815 1028.39C13.5292 1030.76 12.1456 1032.26 10.4545 1034.01C12.6068 1035.13 14.1439 1036.01 15.9888 1037.01C15.9888 1047.99 16.2962 1059.23 16.45 1070.34C16.45 1081.08 16.45 1091.69 16.45 1102.18C14.9126 1103.68 13.683 1104.8 12.4532 1105.92C12.4532 1108.8 12.4532 1111.79 12.4532 1114.54C14.1442 1115.29 15.3738 1115.91 17.3723 1116.79C17.0649 1122.65 17.3725 1128.9 16.1427 1134.89C15.374 1138.76 14.6051 1142.13 16.45 1145.88C17.5261 1148 17.5262 1150.5 17.5262 1152.74L19.2171 1274.1C19.2171 1277.22 18.1413 1280.34 17.2189 1283.46C15.8353 1288.45 17.2189 1293.95 17.6801 1299.19C17.9876 1302.06 19.5249 1304.81 19.5249 1307.68L20.4472 1366.11C20.4472 1370.73 21.0621 1375.23 18.9098 1379.97C17.6799 1382.59 17.8339 1385.96 19.6787 1389.33C21.3698 1392.58 20.1396 1396.7 19.8322 1400.45C19.6784 1402.69 18.4486 1404.94 18.4486 1407.19L19.371 1467.37L19.6787 1482.85C20.1399 1489.46 23.2146 1495.96 28.2879 1501.07C33.2074 1506.19 39.9714 1510.06 47.6582 1512.19C51.5016 1513.19 55.499 1513.81 59.4961 1513.81H68.8737C68.8737 1513.81 70.2572 1513.56 72.102 1513.19C72.102 1510.06 72.102 1507.57 72.102 1504.82C73.3319 1504.45 74.2545 1504.2 76.0993 1503.57C76.0993 1509.32 76.0995 1514.81 76.2532 1520.93C80.8653 1521.05 84.7084 1521.18 89.013 1521.3C89.4742 1518.8 89.782 1516.56 90.2432 1513.93C93.9328 1513.93 97.7762 1513.93 102.234 1513.93L103.003 1512.81ZM400.02 1511.06L399.558 1512.19L398.482 1510.56L400.02 1511.06ZM379.573 1507.32L377.882 1507.69L377.113 1506.44L378.036 1505.32L379.419 1507.32H379.573ZM295.172 1491.71L296.248 1490.59L297.632 1492.46L295.941 1492.83L295.172 1491.71ZM517.166 1497.33C519.011 1497.58 520.856 1497.83 523.008 1498.08C523.008 1499.45 523.315 1500.7 523.469 1502.32C525.468 1503.32 527.62 1504.45 530.233 1505.69C523.162 1509.94 519.933 1512.81 518.857 1512.31C515.321 1510.94 512.707 1508.19 509.633 1506.07C512.092 1503.95 514.706 1499.95 516.858 1500.08H517.166V1497.33ZM40.4326 159.684V159.434C41.5088 160.682 42.4312 161.931 43.3536 163.304C42.4312 162.181 41.355 160.932 40.4326 159.808V159.684ZM21.2157 174.541L22.7532 175.04L20.1399 176.039L21.2157 174.541ZM33.5148 562.076L34.7445 559.579L37.0504 561.202L35.5134 563.574L33.3609 561.951L33.5148 562.076ZM34.2833 631.867C34.437 630.494 37.6654 628.371 39.0491 628.496C40.8939 628.746 43.5073 630.868 43.8148 632.367C43.9686 633.615 41.2014 635.113 38.5879 637.61C36.4356 634.864 34.1296 633.241 34.2833 631.867Z" fill="#DDD0AE"/>
</svg>
