<svg width="3951" height="50" viewBox="0 0 3951 50" fill="none" xmlns="http://www.w3.org/2000/svg">
<path d="M3888.43 0C3888.12 3.87036 3887.81 7.36616 3887.5 11.1117C3886.58 11.3614 3885.66 11.6111 3883.97 12.1105C3883.66 8.36498 3883.2 4.86917 3882.74 0.499413C3875.36 0.249712 3867.98 0.499413 3859.83 0.499413C3859.68 3.62067 3859.37 6.36742 3859.22 9.61352C3855.22 9.61352 3851.38 9.61352 3846.76 9.61352C3846.46 6.86682 3845.99 3.99527 3845.69 0.749166C3820.63 0.998867 3795.72 1.24854 3770.05 1.49824C3770.05 5.1189 3770.05 8.61474 3770.05 12.3602C3749.45 12.6099 3729.62 12.7347 3708.86 12.9844C3708.86 9.23893 3708.86 5.86801 3708.86 1.99765C3701.64 1.99765 3695.18 2.12246 3687.8 2.24731C3687.49 5.36857 3687.34 8.86443 3686.88 13.2342C3680.42 14.233 3673.5 13.6088 3666.89 13.7336C3660.13 13.7336 3653.21 13.8584 3646.14 13.9833C3645.83 9.98806 3645.68 6.74193 3645.37 2.74672C3641.68 2.74672 3637.84 2.49704 3633.38 2.37219C3633.07 6.11769 3632.76 9.61347 3632.46 13.359C3631.53 13.6087 3630.61 13.8584 3628.92 14.2329C3628.46 10.4874 3628.15 6.9916 3627.69 2.62184C3613.09 2.62184 3598.17 2.8716 3583.42 2.8716L3537.6 3.24613C3522.69 3.37098 3507.62 2.2473 3493.02 3.9952C3477.8 5.74311 3462.73 5.11892 3447.67 5.61832C3433.06 6.24257 3418.46 4.74433 3403.85 5.86798C3388.63 6.99163 3373.41 6.49223 3358.04 6.74193L3313.3 7.11646L3267.49 7.49109L3222.75 7.74075C3207.53 7.74075 3192.31 8.24014 3176.94 8.11529L3132.66 7.11646C3117.9 7.11646 3102.99 7.36624 3088.23 7.49109C3087 8.9893 3085.77 10.4874 3084.08 12.485C3082.24 11.1117 3081.01 10.2377 3079.93 9.48865L3082.08 7.61587C3068.86 7.61587 3055.64 7.86556 3042.88 7.99041C3039.81 10.9868 3043.34 15.4814 3038.12 18.7275C3037.35 14.7323 3036.73 11.8608 3035.96 7.99041C3026.74 9.11406 3017.36 8.8644 3007.98 8.6147C2998.3 8.365 2988.61 9.86317 2979.08 10.2377C2969.24 10.6123 2959.4 10.4875 2949.72 10.6123C2940.03 10.7372 2929.89 11.9857 2920.35 10.6123C2910.52 9.11415 2900.98 10.2378 2891.3 9.61352C2881.61 8.98927 2872.54 12.6099 2862.55 10.862C2853.17 9.23895 2843.18 9.98802 2833.34 10.2377C2823.66 10.4874 2813.97 10.9868 2804.44 12.1105C2794.91 13.359 2785.38 7.36617 2776.46 12.485C2773.54 10.862 2771.08 9.48864 2768.62 8.11529C2767.39 9.98804 2766.62 10.9869 2765.7 12.3602C2738.95 12.6099 2712.2 12.8596 2686.68 13.1093C2683.76 11.3614 2681.91 10.2377 2679.76 8.86436C2678.38 10.6123 2677.3 11.8608 2676.07 13.359C2662.54 13.359 2648.7 13.6088 2635.02 13.7336C2621.8 13.7336 2608.73 13.7336 2595.82 13.7336C2593.97 12.4851 2592.59 11.4863 2591.21 10.4875C2587.67 10.4875 2583.98 10.4875 2580.6 10.4875C2579.68 11.8608 2578.91 12.8596 2577.83 14.4827C2570.61 14.233 2562.92 14.4827 2555.54 13.4839C2550.78 12.8596 2546.62 12.2354 2542.01 13.7336C2539.4 14.6076 2536.32 14.6076 2533.56 14.6076L2384.13 15.9809C2380.28 15.9809 2376.44 15.1069 2372.6 14.3578C2366.45 13.2341 2359.68 14.3578 2353.23 14.7323C2349.69 14.982 2346.31 16.2306 2342.77 16.2306L2270.82 16.9796C2265.14 16.9796 2259.6 17.4791 2253.76 15.7312C2250.53 14.7324 2246.38 14.8572 2242.23 16.3555C2238.23 17.7288 2233.16 16.7299 2228.55 16.4802C2225.78 16.3554 2223.01 15.3566 2220.24 15.3566L2072.04 16.8549C2072.04 16.8549 2070.66 17.1045 2068.82 17.3542C2068.82 20.4754 2068.82 22.9725 2068.82 25.7192C2067.59 26.0938 2066.66 26.3435 2064.82 26.9677C2064.82 21.2246 2064.82 15.7312 2064.66 9.61352C2060.05 9.48867 2056.21 9.36384 2051.9 9.23899C2051.44 11.736 2051.14 13.9833 2050.67 16.6051C2046.98 16.6051 2043.14 16.6051 2038.68 16.6051C2038.22 14.6075 2037.76 12.485 2037.3 9.86318C2033.61 9.86318 2029.77 9.86318 2025.62 9.86318C2025.31 12.1105 2025 14.233 2024.69 17.2294C2021.62 17.2294 2018.85 17.2294 2016.08 17.2294L1934.3 17.9785C1930.45 17.9785 1926.76 18.7276 1921.69 19.1022C1918.77 18.7276 1914.62 18.1033 1910.01 17.3542C1909.55 15.4814 1909.24 13.2341 1908.62 10.7371C1902.17 10.7371 1895.71 10.7372 1888.48 10.9869C1888.02 13.7336 1887.56 16.73 1887.1 20.3507C1875.26 19.6016 1863.58 18.8524 1851.43 18.1033C1851.13 21.724 1850.82 24.5956 1850.36 28.3411C1840.83 28.7156 1831.14 28.5908 1820.84 28.7156C1820.53 25.7192 1820.23 22.8476 1819.76 19.3518C1817.46 19.227 1815.15 18.9772 1812.08 18.7275C1811.62 16.4802 1811.15 13.9833 1810.54 11.3614C1781.95 11.6111 1753.66 11.9857 1725.37 12.2354L1722.76 14.2329C1723.22 15.6063 1723.68 16.9796 1724.29 18.7275C1719.68 20.7251 1714.92 19.1021 1710 20.2258C1709.23 18.1033 1708.61 16.4803 1707.84 14.3578C1705.85 14.3578 1703.85 14.3578 1701.08 14.3578C1700.62 15.7312 1700 17.3543 1699.24 19.4767C1696.93 19.4767 1694.62 19.4767 1691.86 19.4767C1691.4 17.2294 1691.09 15.1069 1690.78 13.359C1683.25 12.9844 1676.02 12.485 1668.8 12.485C1661.88 12.485 1654.96 12.4851 1648.04 12.7348L1646.81 14.9821L1644.2 13.6087L1644.51 12.8597C1638.51 12.8597 1632.36 12.2354 1626.21 13.9833V13.7336C1618.83 14.233 1611.61 13.1093 1604.69 15.2317H1600.69C1590.54 14.982 1580.09 12.9845 1570.56 14.8572C1559.03 17.1045 1547.65 15.4815 1535.66 16.8549C1535.2 13.6088 1534.89 10.7372 1534.43 7.49109C1530.74 7.49109 1526.9 7.49109 1522.59 7.49109C1522.29 10.4875 1521.83 13.4839 1521.52 16.6051C1520.13 16.6051 1519.37 16.4803 1518.14 16.3555C1517.83 13.6087 1517.52 10.7372 1517.21 7.74075L1514.45 6.99168L1437.12 7.86563C1433.27 7.86563 1429.43 7.11655 1423.74 6.61714C1413.6 9.86325 1400.84 7.36622 1387.61 8.73958C1387.31 10.7372 1387 12.9845 1386.69 15.3566C1385.92 15.6063 1384.85 15.856 1383.31 16.3555C1382.85 13.7336 1382.39 11.2366 1381.93 8.36504C1376.24 8.36504 1370.86 8.61474 1365.48 8.36504C1360.56 8.24019 1355.64 7.74074 1349.03 7.24134C1346.72 7.61589 1342.57 8.61473 1338.42 8.73958L1213.13 9.61352C1206.21 9.61352 1199.29 9.61348 1192.52 9.86318C1189.76 9.86318 1187.14 10.862 1183.76 11.6111C1178.84 9.48862 1173 8.73956 1167 12.2354C1160.7 9.86321 1154.09 9.86316 1148.25 11.9856C1144.25 11.4862 1140.87 10.4875 1137.49 10.4875L1039.4 11.6111C1035.71 11.6111 1032.02 12.6099 1028.03 13.2342L1026.8 11.1117C1003.43 12.6099 979.909 11.1117 956.08 12.485C955.465 9.73832 954.85 7.24138 954.389 4.74437C943.935 4.74437 933.788 4.99403 923.334 4.99403C922.873 7.24133 922.565 9.48861 922.104 11.9856C918.261 11.9856 914.417 11.9856 910.113 11.9856C909.805 9.86316 909.344 7.74074 908.883 4.99403C887.821 5.24373 866.606 5.36862 844.775 5.61832V5.11891C834.475 5.11891 824.021 5.36857 813.106 5.36857C812.952 7.86557 812.645 10.6123 812.337 13.7336C811.415 13.9833 810.492 14.2329 808.801 14.7323C808.34 11.6111 808.033 8.86437 807.571 5.36857C802.806 4.74431 798.347 4.74436 793.274 6.49227C789.123 7.86562 783.896 6.8668 778.515 6.8668C778.054 9.36381 777.593 11.736 776.978 14.4827C769.445 14.4827 762.066 14.6075 754.072 14.7323C753.61 12.2353 753.303 9.73834 752.842 7.24134C745.924 7.24134 739.313 7.36624 732.241 7.49109C732.241 10.4875 731.934 13.359 731.78 16.73C734.547 16.9797 737.007 17.2294 740.082 17.4791C740.235 18.8524 740.543 20.3507 740.85 22.2234C736.238 24.0962 731.472 22.8476 726.245 23.347C725.63 20.2258 725.169 17.1045 724.554 13.4839C719.327 13.4839 713.946 13.4839 708.719 13.6087C708.105 11.4863 707.643 9.98807 707.182 8.24016C697.804 6.11771 688.426 5.99286 678.28 8.24016C677.819 9.48867 677.358 11.2365 676.589 13.4839C675.052 13.4839 673.36 13.4839 671.516 13.4839C670.901 11.7359 670.439 9.86316 669.824 7.99041C655.373 7.61586 640.922 7.11648 626.471 6.74193C621.552 6.74193 616.632 6.74191 611.559 7.99041C606.947 9.11406 601.566 7.99045 596.493 7.74075C594.341 7.74075 592.035 6.74191 590.19 7.11646C578.813 9.61347 567.437 8.24013 555.907 7.61587C544.992 6.99162 533.769 6.49227 522.546 8.73958C514.552 10.3626 505.943 9.61354 497.487 9.23899C444.91 7.49108 392.486 8.36504 339.909 9.23899C317.002 9.61354 294.095 9.86321 271.189 9.98806C267.345 9.98806 263.349 10.862 259.505 11.3614L256.276 11.6111C248.129 8.48982 239.981 12.6099 231.833 11.9856C223.992 11.3614 216.152 10.6123 208.158 10.6123H196.474L197.857 13.9833C197.857 14.233 195.859 14.6075 194.014 15.1069C193.706 13.7335 193.245 12.3602 193.399 11.1117L194.014 10.7371L123.296 11.3614C120.836 15.4815 118.069 19.8513 114.84 25.3447C111.151 18.8525 111.766 14.7324 113.764 11.4863H107.461L57.0357 11.9856H44.122C37.8189 12.2353 31.6693 13.4838 26.1348 15.6063C15.0659 19.976 6.30329 27.8417 2.45991 37.3303C0.922554 41.0758 8.63313e-05 44.9461 8.63313e-05 48.8165C8.14805 48.8165 22.7529 48.8165 30.7471 48.8165C30.7471 46.8189 29.6709 44.4468 30.1321 41.3255C30.4395 38.3291 32.5919 34.7084 36.4353 33.2102C37.2039 35.083 37.9727 36.706 38.8951 38.4539L40.7398 39.9521L44.122 39.203H45.0444H47.5042C49.1953 39.203 51.0401 39.203 52.7312 39.203C53.1924 36.9557 53.8076 34.5836 54.4225 31.8369C58.2659 31.8369 62.1089 31.8369 66.1061 31.8369C66.721 33.8345 67.3359 35.5824 67.9508 37.3303C73.0241 37.3303 78.0977 37.3303 83.1709 37.2054L81.1723 34.9581C80.0961 33.0854 79.9425 30.9629 79.3275 28.9653C82.0948 27.8416 84.7079 26.2186 87.6289 25.5943C91.7798 24.5955 96.0846 24.3458 100.389 23.7216C98.0832 28.0913 96.6995 33.0854 93.1636 36.706L92.5485 37.0805C94.5471 37.0805 96.5456 37.0805 98.6979 37.0805C99.0053 35.3326 99.3129 33.8345 99.7741 31.5872C103.464 31.3375 107.307 31.0877 111.612 30.838C112.227 33.4599 112.688 35.9569 113.149 38.5788C123.603 38.5788 133.596 38.329 144.357 38.329C144.511 36.8308 144.665 35.3326 144.972 33.8344C145.28 32.7108 145.741 31.712 147.893 30.5884C148.662 33.0854 149.585 35.5824 150.507 38.2042C154.043 38.2042 157.579 38.2042 161.422 38.2042C162.037 35.7072 162.652 33.2102 163.421 30.4635C168.955 31.712 165.419 35.9569 168.186 38.2042C174.951 38.2042 182.176 38.0793 190.017 37.9545C190.324 35.832 190.786 33.335 191.247 30.7132C195.09 30.7132 198.626 30.7132 202.93 30.7132C203.392 32.8356 204.007 35.2078 204.622 37.9545C208.158 37.9545 211.847 37.9545 215.998 37.9545C216.459 35.832 216.92 33.4599 217.381 30.7132C221.225 30.7132 224.761 30.7132 229.066 30.7132C229.527 32.8356 230.142 35.2078 230.91 37.9545C235.215 37.9545 239.52 37.9546 244.439 37.8297C244.747 35.957 245.054 33.8344 245.515 31.2126C247.36 30.7132 249.512 30.089 252.28 29.3399C251.204 28.0914 250.435 26.9677 250.435 26.0938C250.435 24.8453 253.048 23.7216 254.586 22.598V22.3482C261.196 24.4707 267.961 25.9689 274.725 21.4743C275.34 24.7204 275.647 26.9677 276.108 29.0901L277.953 29.9641L324.843 29.4647C328.071 29.4647 331.146 28.2162 334.22 27.9665C342.061 27.592 350.055 27.2174 357.742 30.089C358.203 31.4623 358.51 32.9605 359.125 34.9581C365.736 34.9581 372.347 34.9582 379.265 34.7085C379.726 32.9606 380.188 31.4623 380.649 29.4647C401.403 29.215 422.311 29.0902 443.373 28.8405C438.76 23.7216 436.762 21.724 434.917 19.7264C437.684 17.9785 440.451 15.1069 443.526 14.9821C445.525 14.9821 449.214 18.4779 449.522 20.7252C449.829 22.8476 447.831 25.3447 445.986 28.8405H447.062C447.677 30.5884 448.292 32.3363 448.907 34.209C455.518 34.209 461.974 34.209 468.739 34.0842C469.354 32.2114 469.969 30.4635 470.584 28.4659C475.811 28.4659 480.884 28.4659 486.418 28.3411C486.726 29.7144 487.187 31.2126 487.802 33.5848C493.798 34.3339 500.101 33.9593 506.558 33.9593C512.707 33.9593 518.856 33.9593 525.467 33.8344C526.082 31.9617 526.543 30.0889 527.158 28.0913L567.129 27.7168C567.591 29.5895 568.052 31.0877 568.667 33.0853C574.97 33.0853 581.427 33.0853 588.652 32.9605C589.113 31.712 589.575 29.9641 590.343 27.5919C591.727 27.5919 593.418 27.4671 595.263 27.3422C595.878 29.3398 596.493 31.0878 597.108 32.8357C606.793 33.7096 616.325 34.4587 626.625 35.4575C626.625 33.2102 626.625 31.9617 626.625 30.7132C626.625 29.4647 627.086 28.3411 627.394 27.0926C633.389 27.592 629.546 31.9617 632.774 34.5836L634.312 34.9581C645.227 33.2102 656.296 32.8357 667.519 32.8357C670.44 32.8357 673.36 32.4611 676.128 32.8357C679.202 33.2102 682.123 34.3338 685.352 35.2078C685.506 37.9545 685.813 40.4516 685.967 43.5728C689.81 43.5728 693.654 43.5728 698.266 43.5728C698.419 40.3267 698.573 36.8309 698.727 32.4611C711.333 32.4611 723.478 32.2114 735.777 32.0865C748.076 32.0865 760.528 32.586 772.827 31.5872C784.972 30.4635 796.81 35.2078 810.185 32.0865C816.488 34.0841 827.403 34.3339 844.16 32.3363C844.16 30.2138 844.16 28.0913 844.16 25.9689C845.852 26.2186 847.543 26.4683 849.387 26.718C849.695 28.8404 850.156 30.9629 850.617 33.5848C857.382 33.5848 864.146 33.4599 871.371 33.3351C871.679 30.8381 871.986 28.4659 872.294 26.0938H875.676C875.983 28.3411 876.291 30.4635 876.598 33.4599C886.899 33.9593 897.199 33.4599 908.114 33.4599C908.575 30.7132 908.883 28.3411 909.344 25.7192C915.493 25.9689 911.804 30.4635 914.11 32.8357C929.791 32.7108 945.933 32.586 962.69 32.3363C962.998 30.3387 963.305 28.2162 963.766 25.4695C979.909 25.3446 996.051 25.2198 1012.81 24.9701C1013.12 26.9677 1013.58 29.215 1013.88 31.8369C1027.11 31.8369 1040.33 31.5872 1054.01 31.4623C1054.32 29.3399 1054.78 27.2174 1055.24 24.5955C1062 24.5955 1068.77 24.4707 1075.99 24.3459C1076.3 26.3435 1076.76 28.5907 1077.07 31.2126C1080.76 31.2126 1084.6 31.2126 1088.91 31.2126C1089.21 29.215 1089.52 26.9677 1089.83 24.3459C1094.29 24.3459 1098.9 24.3458 1104.28 24.221C1104.28 29.4647 1104.28 34.9581 1104.43 40.8261C1114.89 40.8261 1124.57 40.7012 1134.87 40.5763C1135.03 37.8296 1135.18 34.9581 1135.33 31.712C1145.94 31.712 1156.4 31.4623 1167.47 31.4623C1167.77 34.0842 1168.08 36.9557 1168.54 40.2018C1184.68 40.077 1200.83 39.9521 1217.74 39.7024C1217.74 36.9557 1218.04 34.0841 1218.2 30.838C1222.35 30.838 1226.19 30.838 1230.65 30.838C1230.96 33.5847 1231.27 36.4563 1231.57 39.3279C1234.49 40.2018 1237.42 41.2006 1240.34 42.0746C1249.71 39.0782 1258.94 39.3279 1268.78 40.7012C1278.92 42.0746 1289.38 43.3231 1299.52 39.9521C1301.83 39.203 1304.29 39.203 1306.6 38.8284C1307.21 35.5823 1307.67 32.5859 1308.44 28.5907C1313.36 31.8368 1310.9 35.5824 1312.59 38.7037C1319.66 38.7037 1327.2 38.5788 1335.34 38.4539C1335.34 35.8321 1335.65 32.9605 1335.81 29.7144C1339.96 29.7144 1343.8 29.7144 1348.26 29.7144C1348.57 32.4611 1348.87 35.2078 1349.18 38.2042C1352.1 39.0782 1355.02 40.0769 1356.71 40.5763C1362.4 39.8272 1366.86 39.0782 1371.47 38.7037C1375.32 38.3291 1379.16 38.4539 1383 37.2054C1386.23 36.2066 1391.15 39.3279 1394.23 38.2042C1401.91 35.5824 1409.14 39.8273 1416.98 37.3303C1423.9 35.2078 1432.04 36.3315 1439.58 36.3315C1443.11 36.3315 1446.49 35.9569 1450.03 37.58C1452.64 38.8285 1456.64 38.5788 1459.56 37.8297C1476.63 33.5848 1494 37.0805 1511.83 35.2078C1512.14 38.8284 1512.29 41.5752 1512.6 45.3207C1519.98 44.4468 1527.21 46.5692 1534.12 43.5728C1535.35 43.0734 1537.05 43.1983 1538.43 43.5728C1555.34 46.5692 1572.25 44.0722 1589.32 44.6964C1595 44.9461 1600.54 44.6964 1606.23 46.0698C1611.91 47.4431 1618.68 45.1958 1625.14 44.5715V43.0734C1637.59 43.0734 1650.19 42.8237 1663.26 42.6989C1663.57 40.7013 1663.88 38.5788 1664.34 35.4575C1674.48 35.4575 1684.94 35.2078 1695.85 35.083C1696.31 37.7048 1696.93 40.077 1697.39 42.574C1700.62 42.574 1703.54 42.574 1706.46 42.9485C1709.23 43.3231 1712 44.0722 1715.53 44.8213C1722.76 41.0758 1731.67 42.8237 1740.13 42.574C1752.89 42.3243 1765.8 43.8225 1778.1 41.8249C1788.56 40.077 1799.16 38.8285 1809 40.3267C1824.53 42.574 1839.9 40.826 1855.28 41.4503C1858.81 41.5751 1862.2 41.8249 1865.73 39.9521C1868.19 38.7036 1872.19 38.9533 1875.26 39.4527C1889.71 41.7 1896.17 41.2006 1910.01 39.203C1917.23 38.2042 1925.07 37.7048 1932.61 39.8273C1935.99 40.7012 1939.68 40.7012 1943.21 40.7012C1957.36 40.7012 1971.5 40.4515 1985.95 40.3267C1986.41 42.6988 1986.87 44.9461 1987.34 47.3183C2006.09 49.6904 2025 45.071 2044.52 47.568C2045.14 44.9462 2045.6 42.574 2046.22 39.9521C2050.21 39.9521 2054.06 39.9521 2058.21 39.9521C2058.51 42.4492 2058.98 44.5716 2059.28 47.3183C2069.74 46.5692 2080.04 45.6953 2090.8 44.9462C2091.11 43.5728 2091.26 42.0746 2091.72 39.8273C2093.57 39.7024 2095.57 39.4527 2097.72 39.3279C2099.56 39.3279 2101.41 39.3279 2103.71 39.3279C2104.17 41.8249 2104.79 44.3218 2105.25 46.8189C2109.09 46.8189 2112.63 46.8189 2116.93 46.8189C2117.24 44.6964 2117.55 42.574 2118.01 39.5776C2125.24 38.9534 2132.77 39.203 2140.92 39.203C2141.38 41.4503 2141.69 43.5728 2142.15 46.4443C2143.99 46.4443 2146.14 47.0686 2148.14 46.6941C2159.52 44.5716 2170.74 44.0721 2182.12 46.3194C2184.89 46.8188 2187.96 46.3194 2190.88 46.3194L2232.24 46.0698C2239.31 46.0698 2246.53 44.8213 2253.45 47.568C2255.91 48.5668 2259.14 47.568 2262.06 47.568C2262.98 46.4444 2263.75 45.4456 2264.98 43.9473C2276.82 44.6965 2288.81 42.6989 2301.11 44.9462C2306.03 45.8201 2311.87 46.1946 2317.1 43.8225C2318.79 43.0734 2321.71 42.9485 2323.4 43.8225C2328.17 46.3195 2332.47 44.5716 2338.47 42.1995C2339.24 43.5728 2340.16 45.1958 2341.23 46.9437C2345.69 45.9449 2349.69 44.9462 2354.46 43.9473C2354.76 42.1994 2355.07 40.077 2355.53 37.3303C2359.22 37.3303 2363.06 37.3303 2367.68 37.3303C2367.98 39.9522 2368.29 42.6988 2368.75 46.0698C2385.2 45.9449 2401.81 45.8201 2419.64 45.5704C2419.95 45.1958 2420.87 43.8224 2421.79 42.3242C2424.56 42.3242 2427.33 42.3242 2430.25 42.3242C2431.02 43.4479 2431.78 44.5716 2432.55 45.8201C2445.47 45.8201 2458.38 45.5703 2471.6 45.4455C2472.22 44.4467 2472.99 43.3231 2473.75 42.0746C2526.18 41.5752 2578.76 41.0757 2631.79 40.5763C2631.95 43.6976 2632.25 46.5692 2632.41 49.5656C2639.48 49.5656 2645.94 49.4408 2653.01 49.3159C2653.32 46.6941 2653.62 43.9473 2654.09 40.3267C2657.78 40.077 2661.62 39.9521 2666.08 39.7024C2666.54 42.6988 2667 45.5704 2667.46 48.6916L2670.07 49.4407L2771.54 48.442C2775.08 48.442 2778.46 46.8189 2781.99 46.8189C2787.68 46.8189 2793.22 46.0698 2799.06 47.8177C2803.67 49.191 2809.51 49.0662 2813.97 47.8177C2819.35 46.1946 2824.73 46.4443 2829.96 46.3194C2869.62 45.9449 2909.13 45.5704 2948.64 45.071C2949.72 46.3195 2950.49 47.3182 2951.72 48.5667C2955.71 48.5667 2960.02 48.5667 2964.48 48.5667C2965.09 47.5679 2965.86 46.5692 2966.78 45.1958C2981.54 45.1958 2996.3 44.9461 3011.21 44.8213C3012.9 44.8213 3014.59 45.4455 3016.29 45.9449C3025.66 48.6916 3035.35 48.6917 3045.03 48.0674C3045.8 46.9438 3046.42 45.9449 3047.49 44.3219C3050.72 44.3219 3054.26 44.3219 3057.79 44.3219L3439.37 40.8261C3452.74 40.8261 3466.27 39.8273 3479.64 40.8261C3491.17 41.7 3502.55 42.0746 3514.08 41.7C3521.15 41.5752 3528.38 39.7024 3535.45 40.2018C3565.12 41.8249 3594.79 40.9509 3624.46 40.8261C3627.69 40.8261 3630.92 40.8261 3634.76 40.8261C3634.76 37.58 3635.07 34.7084 3635.22 31.4623C3639.68 32.3363 3643.68 33.0853 3647.83 33.8344C3648.14 35.832 3648.29 37.7048 3648.6 40.2018C3655.67 41.2006 3663.05 42.0746 3669.97 43.0734C3671.51 41.4503 3672.74 40.2018 3673.97 38.9533C3681.96 38.9533 3689.95 38.5787 3697.95 38.8284C3703.33 38.9533 3708.56 40.0769 3713.78 40.0769C3718.7 40.0769 3723.62 39.4527 3729.92 38.9533C3730.23 39.3279 3731.31 40.4516 3732.38 41.8249C3738.69 41.8249 3745.3 41.8249 3751.6 41.7C3752.68 40.4515 3753.45 39.4527 3754.21 38.4539C3756.83 39.8273 3759.29 41.0757 3761.9 42.3242C3762.98 40.5763 3763.75 39.5776 3764.67 38.2042C3778.97 38.0794 3793.42 37.9546 3808.02 37.8297C3808.94 38.9534 3809.87 40.2018 3810.79 41.4503C3815.71 41.4503 3820.47 41.4504 3825.09 41.3255C3826.32 40.077 3827.55 38.8284 3828.47 37.9545C3833.54 38.4539 3838.46 38.9533 3843.69 39.4527C3844.15 36.4563 3844.46 34.209 3844.76 31.712C3848.92 31.712 3852.76 31.712 3856.76 31.712C3857.37 33.7096 3857.99 35.4575 3858.6 37.4551C3878.89 37.2054 3898.73 37.0805 3918.25 36.9557C3920.71 38.5787 3922.86 39.8273 3925.17 41.2006C3926.71 39.203 3927.78 38.0794 3929.01 36.4564C3936.08 36.4564 3943.31 36.3314 3950.84 36.2066C3950.84 24.4707 3950.84 22.8476 3950.53 10.862C3944.08 11.6111 3938.39 7.3662 3932.55 9.98806C3930.7 10.7372 3914.41 9.98805 3912.41 9.48865C3899.49 6.36739 3899.96 2.74677 3886.27 1.62311L3888.43 0ZM526.389 11.1117L527.619 11.6111L526.236 12.1105V11.1117H526.389ZM245.054 23.4719C243.363 26.5932 241.518 29.7144 239.827 32.8357C238.136 32.2114 236.445 31.712 234.6 31.0878C236.138 27.9665 237.521 24.8453 239.366 21.724C239.366 21.5992 243.056 22.8477 245.054 23.4719ZM371.425 26.4683L369.887 28.3411L366.966 27.3422L368.657 25.2198L371.425 26.4683ZM1114.12 39.4527C1111.66 37.4551 1108.89 35.5823 1106.74 33.4599C1106.43 33.2102 1108.58 31.4623 1110.58 29.215C1113.2 31.9617 1115.5 33.8344 1117.04 36.0817L1114.12 39.3279V39.4527ZM1130.11 28.7156L1129.8 29.5895C1129.8 31.0878 1129.8 32.7108 1129.65 34.209H1127.8C1128.42 32.586 1129.19 31.0878 1129.8 29.5895V28.4659C1127.49 25.9689 1123.8 23.347 1123.96 20.9748C1123.96 18.8524 1129.03 16.7299 1132.11 15.1069L1136.41 16.9796C1134.41 20.85 1132.11 24.7204 1129.8 28.4659L1130.11 28.7156ZM1624.52 32.2114C1622.68 31.9617 1620.83 31.712 1618.68 31.4623C1618.52 29.9641 1618.37 28.7156 1618.22 26.8428C1620.22 26.4683 1622.37 26.0937 1624.52 25.5943C1624.52 27.7168 1624.52 29.9641 1624.52 32.2114Z" fill="#DDD0AE"/>
</svg>
