<svg width="160" height="1461" viewBox="0 0 160 1461" fill="none" xmlns="http://www.w3.org/2000/svg">
<path d="M85.4777 1.04771L60.2651 1.29746L9.83999 1.79687L0.000941971 1.79687V26.7669C11.2236 26.7669 22.7537 21.2735 34.8988 21.1486C34.4376 23.1462 34.1302 24.7693 33.8227 26.642L35.975 28.6397C42.2781 28.6397 48.735 28.6397 55.9606 28.5148C56.4218 26.2675 57.0367 23.8953 57.6517 21.1486C61.495 21.1486 65.3384 21.1486 69.3355 21.1486C69.9505 23.1462 70.5654 24.8941 71.1804 26.642C81.6344 26.642 91.7809 26.3924 102.235 26.3924C102.542 24.6445 102.85 23.1463 103.311 20.8989C107.462 20.6492 109.153 20.3995 112.535 20.8989C111.92 23.5208 111.152 26.0178 110.383 28.5148C114.534 29.5136 118.223 32.7598 119.299 36.2556C121.144 36.0059 122.989 35.7561 124.834 35.6313C126.218 35.6313 127.447 35.6312 128.985 36.7549C125.91 37.504 122.989 38.0035 119.607 38.378C119.607 41.1247 119.607 43.9962 119.607 47.1175C122.682 47.6169 125.756 48.1163 129.139 48.7406C127.601 53.2352 122.374 50.3636 119.607 52.6109C119.607 58.1043 119.761 63.9723 119.914 70.3396C122.528 70.5893 125.603 70.9639 128.831 71.3385C128.831 74.4597 128.831 77.3313 128.831 80.8271C126.218 81.2017 123.297 81.701 119.914 82.2004C119.914 85.0719 119.914 88.0684 119.914 91.4394C122.528 91.8139 125.449 92.1884 128.831 92.563C128.831 95.6842 128.831 98.5558 128.831 102.052C126.218 102.426 123.297 102.926 119.914 103.55C119.914 107.046 119.914 110.541 120.068 114.537C122.374 114.786 124.988 115.036 128.216 115.411C128.831 116.909 129.6 118.782 130.676 121.154C133.136 121.653 135.595 122.152 139.131 122.902C136.518 128.27 134.673 133.764 140.207 139.257C136.21 139.756 133.443 140.006 130.83 140.381L129.753 141.879L130.368 179.958C130.368 182.58 131.906 185.077 132.213 187.574C132.674 193.941 133.136 200.434 129.6 206.676C127.909 207.051 126.064 207.3 123.604 207.8C123.604 213.168 123.604 218.537 123.912 224.155C126.064 224.53 127.909 224.904 130.368 225.279C130.676 243.132 130.83 260.986 131.137 279.089C128.985 279.589 126.833 280.088 124.526 280.588C124.526 285.956 124.526 291.2 124.68 296.693C126.986 297.193 129.139 297.692 131.598 298.191C131.598 302.436 131.598 306.556 131.752 311.051C130.061 311.301 128.216 311.675 125.295 312.175C124.373 317.044 124.834 322.163 124.834 327.406C124.834 332.4 124.834 337.394 124.988 342.763C127.294 343.262 129.6 343.637 132.06 344.136L132.521 376.597C130.215 376.972 128.37 377.346 125.91 377.846C125.91 382.965 125.91 388.208 126.064 394.076C127.601 394.451 129.753 394.826 132.674 395.45C132.674 396.573 132.828 397.947 132.982 399.445C130.522 399.944 128.37 400.444 126.218 400.943C125.141 408.809 124.219 416.549 122.989 424.914C125.756 424.914 127.294 424.914 128.831 424.914C130.368 424.914 131.752 425.289 133.289 425.539C132.674 430.408 127.294 427.287 124.065 429.908L123.604 431.157C125.756 440.021 126.218 449.01 126.218 458.125C126.218 460.497 126.679 462.869 126.218 465.116C125.756 467.613 124.373 469.985 123.297 472.607C119.914 472.732 116.84 472.982 112.996 473.107C112.996 476.228 112.996 479.349 112.996 483.095C116.993 483.219 121.298 483.344 126.679 483.469C126.679 493.707 126.986 503.57 127.14 513.558C127.14 523.546 126.525 533.659 127.755 543.647C129.139 553.51 123.297 563.124 127.14 573.986C124.68 579.104 124.373 587.969 126.833 601.578C129.446 601.578 132.06 601.578 134.673 601.578C134.366 602.951 134.058 604.324 133.751 605.822C131.137 606.072 128.524 606.447 125.295 606.821C125.295 612.315 125.449 617.808 125.603 623.676C128.677 623.926 131.598 624.176 134.519 624.425V627.172C131.752 627.422 129.139 627.671 125.449 627.921C124.834 636.286 125.449 644.651 125.449 653.515C128.831 653.89 131.752 654.139 134.98 654.514C134.673 659.508 129.139 656.512 126.218 658.384C126.371 671.119 126.525 684.228 126.833 697.837C129.292 698.087 131.906 698.337 135.288 698.711C135.442 711.82 135.595 724.93 135.903 738.538C133.443 738.788 130.676 739.038 127.447 739.412C127.447 750.149 127.755 760.886 127.909 771.998C130.522 772.248 133.136 772.622 136.364 772.997C136.364 778.49 136.518 783.984 136.672 789.852C134.212 790.102 131.445 790.476 128.216 790.726C128.216 793.722 128.216 796.843 128.216 800.339C130.676 800.589 133.443 800.839 136.672 801.088C136.672 804.709 136.672 808.454 136.825 812.824C130.368 812.824 123.604 812.824 116.379 812.949C116.379 821.439 116.532 829.305 116.686 837.669C120.068 837.794 123.604 837.919 127.601 838.044C127.601 846.659 127.909 855.148 127.909 864.138C124.68 864.387 121.144 864.637 117.147 865.012C117.301 878.121 117.455 891.23 117.762 904.964C121.144 904.964 124.68 905.213 128.677 905.338C128.677 908.709 128.677 911.831 128.677 915.451C125.295 915.701 121.759 915.951 118.223 916.2C117.147 918.572 115.917 920.945 114.841 923.317C118.531 930.933 118.223 938.424 116.532 946.414C114.841 954.654 113.304 963.144 117.455 971.384C118.377 973.257 118.377 975.254 118.838 977.127C122.835 977.627 126.525 978.001 131.445 978.625C127.447 982.621 122.835 980.623 118.992 981.996C118.992 987.739 119.146 993.857 119.299 1000.47C122.528 1000.47 126.064 1000.72 130.061 1000.85C130.061 1004.22 130.061 1007.34 130.061 1010.96C126.679 1011.21 123.297 1011.46 119.607 1011.71C118.531 1014.08 117.301 1016.45 116.686 1017.83C117.147 1020.08 117.608 1022.07 117.916 1024.07C118.685 1022.07 119.299 1020.08 120.991 1019.33C127.14 1016.08 134.058 1013.96 140.669 1011.46C142.052 1013.21 143.436 1014.96 144.82 1016.7C138.978 1020.95 133.443 1025.57 126.986 1029.06C125.295 1029.94 121.606 1028.32 118.377 1027.32L118.838 1030.06C119.299 1033.18 119.146 1036.31 120.683 1039.43C121.913 1042.05 118.07 1046.04 119.453 1048.54C122.682 1054.78 117.455 1060.65 120.529 1067.02C123.143 1072.64 121.759 1079.25 121.759 1085.37C121.759 1088.24 122.22 1090.99 120.222 1093.86C118.685 1095.98 118.992 1099.23 119.914 1101.6C125.141 1115.46 120.837 1129.57 123.143 1144.05C118.685 1144.3 115.302 1144.43 110.69 1144.68C111.766 1150.67 109.153 1156.54 112.843 1162.16C113.458 1163.15 113.304 1164.53 112.843 1165.65C109.153 1179.38 112.228 1193.12 111.459 1206.98C111.152 1211.6 111.459 1216.09 109.768 1220.71C108.077 1225.33 110.844 1230.82 111.613 1236.07H113.458C113.458 1246.18 113.765 1256.42 113.919 1267.03C116.379 1267.28 118.992 1267.53 122.835 1267.9C122.835 1276.14 123.143 1284.63 123.297 1293.5C120.068 1293.87 117.147 1294.37 114.072 1294.75C114.072 1297.37 114.072 1299.74 113.611 1302.11C113.15 1304.36 112.228 1306.61 111.305 1309.48C113.919 1312.85 114.38 1316.72 114.226 1320.59L116.379 1318.84C118.992 1319.84 121.606 1320.96 123.604 1322.59C124.065 1322.96 121.759 1325.33 119.914 1328.21C117.301 1325.58 115.61 1324.09 114.38 1322.46C114.38 1324.84 114.072 1327.21 114.226 1329.58C114.534 1339.94 112.689 1350.43 115.149 1360.42C117.301 1368.91 118.838 1377.52 116.993 1385.51C114.226 1398.12 116.379 1410.61 115.61 1423.09C115.456 1425.96 115.149 1428.71 117.455 1431.58C118.992 1433.58 118.685 1436.83 118.07 1439.32C117.147 1443.07 116.84 1446.06 116.532 1448.94C119.146 1446.31 122.374 1443.69 124.988 1441.07C127.294 1442.69 130.83 1444.07 131.598 1446.19C132.674 1448.94 130.215 1452.93 131.906 1455.18C133.751 1457.8 140.976 1461.3 141.437 1460.92C148.202 1455.18 150.508 1456.05 151.891 1458.43C151.891 1455.3 151.891 1452.18 151.891 1448.81C148.509 1448.44 144.82 1448.06 140.361 1447.69C140.822 1443.07 141.284 1438.45 141.591 1433.83C139.439 1434.7 137.287 1435.7 135.288 1435.33C132.213 1434.83 129.6 1432.46 124.526 1429.58C129.753 1427.96 133.136 1425.96 134.827 1426.59C137.44 1427.59 139.593 1429.58 141.745 1431.46C142.206 1427.21 142.514 1422.97 142.975 1418.6C138.516 1418.35 134.98 1418.1 130.368 1417.72C129.907 1409.98 130.061 1402.12 129.907 1393.75C133.597 1393.5 137.133 1393.25 141.437 1392.88C141.591 1391.01 141.899 1389.13 142.206 1386.64C144.973 1386.26 148.048 1385.89 151.276 1385.39C150.969 1362.17 150.508 1339.19 150.2 1316.22L147.741 1314.1C146.049 1314.47 144.358 1314.85 142.206 1315.35C139.746 1311.6 141.745 1307.73 140.361 1303.74C142.975 1303.11 144.973 1302.61 147.587 1301.99C147.587 1300.36 147.587 1298.74 147.587 1296.49C145.896 1296.12 143.897 1295.62 141.284 1295C141.284 1293.12 141.284 1291.25 141.284 1289C144.051 1288.63 146.664 1288.38 148.817 1288.13C149.278 1282.01 149.893 1276.14 149.893 1270.28C149.893 1264.41 149.893 1258.41 149.585 1252.55V1249.8C148.048 1250.55 146.511 1251.55 145.127 1252.92C144.051 1253.92 138.516 1253.67 137.133 1252.42C135.595 1250.92 135.288 1247.18 136.518 1245.56C139.593 1241.68 143.282 1237.69 147.894 1235.07L148.509 1234.82C148.202 1229.08 149.124 1223.58 146.664 1218.21V1214.97C146.972 1206.73 149.432 1198.24 147.126 1190.5C144.358 1181.13 146.357 1171.89 144.666 1162.16C148.663 1161.78 152.199 1161.53 156.196 1161.16C156.196 1158.16 156.196 1155.04 156.196 1151.54C152.506 1151.29 148.817 1150.92 144.973 1150.67C144.973 1149.55 145.127 1148.92 145.281 1147.92C148.663 1147.67 152.199 1147.42 155.888 1147.17L156.811 1144.93L155.735 1082.13C155.735 1079 156.657 1075.88 157.272 1071.26C153.275 1063.02 156.35 1052.66 154.659 1041.92C152.199 1041.67 149.432 1041.42 146.511 1041.18C146.203 1040.55 145.896 1039.68 145.281 1038.43C148.509 1038.05 151.584 1037.68 155.12 1037.3C155.12 1032.69 154.812 1028.32 155.12 1023.95C155.274 1019.95 155.888 1015.96 156.503 1010.59C156.042 1008.71 154.812 1005.34 154.659 1001.97L153.582 900.219C153.582 894.601 153.582 888.983 153.275 883.49C153.275 881.242 152.045 879.12 151.123 876.373C153.736 872.378 154.659 867.633 150.354 862.764C153.275 857.645 153.275 852.277 150.661 847.533C151.276 844.286 152.506 841.54 152.506 838.793L151.123 759.139C151.123 756.142 149.893 753.146 149.124 749.9L151.738 748.901C149.893 729.799 151.738 710.822 150.047 691.47C153.429 690.97 156.503 690.471 159.578 690.096C159.578 681.607 159.271 673.366 159.271 664.877C156.503 664.502 153.736 664.252 150.661 663.878C150.661 660.756 150.661 657.635 150.661 654.139C153.275 653.89 155.888 653.515 159.271 653.141C158.963 636.036 158.809 618.807 158.502 601.078H159.117C159.117 592.713 158.809 584.223 158.809 575.359C155.735 575.234 152.353 574.984 148.509 574.735C148.202 573.986 147.894 573.237 147.279 571.863C151.123 571.489 154.505 571.239 158.809 570.864C159.578 566.994 159.578 563.373 157.426 559.253C155.735 555.882 156.965 551.637 156.965 547.268C153.89 546.893 150.969 546.519 147.587 546.019C147.587 539.902 147.433 533.909 147.279 527.416C150.354 527.042 153.429 526.792 156.503 526.418C156.503 520.799 156.35 515.431 156.196 509.688C152.506 509.688 148.97 509.438 144.82 509.313C144.512 511.561 144.205 513.558 143.897 516.055C142.206 516.18 140.361 516.43 138.055 516.679C135.749 512.934 137.287 509.064 136.672 504.819C140.515 504.319 144.358 503.945 148.817 503.445C148.817 499.2 148.817 494.831 148.663 490.586C151.276 490.086 153.121 489.712 155.274 489.337C157.887 481.721 158.041 474.105 155.274 465.865C153.736 465.491 151.584 465.116 148.817 464.492C148.817 463.243 148.817 461.87 148.817 460.372C150.969 459.872 153.275 459.498 155.581 458.998C156.042 447.263 156.657 435.527 157.118 423.791C157.118 419.796 157.118 415.8 155.581 411.68C154.197 407.935 155.581 403.565 155.888 399.445C155.888 397.697 157.118 395.824 156.657 394.326C153.582 385.087 155.274 375.848 156.042 366.485C156.811 357.62 157.426 348.506 154.659 339.392C152.66 332.9 153.582 325.908 154.044 319.041C157.118 257.74 153.429 196.438 153.275 135.137C153.275 132.016 152.199 128.77 151.584 125.648L151.276 123.026C155.12 116.409 150.047 109.792 150.815 103.175C151.584 96.8079 152.506 90.4406 152.506 83.9484L152.045 42.9974V37.8786C152.045 35.7561 151.738 32.7597 150.969 30.2627C149.739 25.1439 147.126 20.2747 143.436 16.1547C136.21 7.7897 124.988 1.92171 112.228 0.423511C105.002 -0.325591 101.466 0.173825 97.3154 0.0489752L84.709 0.0489752L85.4777 1.04771ZM126.371 1251.67L124.219 1254.05L120.837 1251.42L123.758 1250.05L126.371 1251.8V1251.67ZM135.288 1235.19C132.674 1235.19 129.907 1235.19 127.14 1235.19C127.447 1233.69 127.755 1232.2 128.062 1230.45C129.907 1230.32 131.445 1230.2 133.751 1230.07C134.212 1231.7 134.673 1233.44 135.288 1235.19ZM128.37 1177.39L126.064 1179.01L124.988 1177.89L127.447 1176.26L128.37 1177.39ZM151.891 1162.28H148.817V1161.16H151.891V1162.28ZM129.139 1154.91L127.294 1158.16L124.373 1156.41L125.756 1154.16L128.985 1154.79L129.139 1154.91ZM141.13 1082.63L139.593 1083.5L137.44 1081.63L140.515 1081.25L140.976 1082.63H141.13ZM138.824 1049.67L135.442 1052.54L132.828 1050.54C133.597 1049.42 134.673 1048.42 135.749 1047.42L138.824 1049.79V1049.67ZM126.833 994.107L125.603 994.481V993.607L126.833 994.232V994.107ZM143.128 985.242L139.9 986.741L137.287 984.993L139.746 982.995L143.128 985.118V985.242ZM149.278 918.323C147.741 919.446 146.203 920.57 144.82 921.694L144.512 922.318V923.192C144.358 924.565 144.512 925.938 144.512 927.437L143.436 926.688C143.743 925.564 144.051 924.315 144.358 923.192V922.068L144.82 921.694C145.588 920.195 146.203 918.572 146.972 917.074L149.432 918.448L149.278 918.323Z" fill="#DDD0AE"/>
</svg>
