<svg width="3925" height="50" viewBox="0 0 3925 50" fill="none" xmlns="http://www.w3.org/2000/svg">
<path d="M3861.77 0C3861.46 3.87036 3861.15 7.36616 3860.84 11.1117C3859.92 11.3614 3859 11.6111 3857.31 12.1105C3857 8.36498 3856.54 4.86917 3856.08 0.499413C3848.7 0.249712 3841.32 0.499413 3833.17 0.499413C3833.02 3.62067 3832.71 6.36742 3832.56 9.61352C3828.56 9.61352 3824.72 9.61352 3820.1 9.61352C3819.8 6.86682 3819.34 3.99527 3819.03 0.749166C3793.97 0.998867 3769.06 1.24854 3743.39 1.49824C3743.39 5.1189 3743.39 8.61474 3743.39 12.3602C3722.79 12.6099 3702.96 12.7347 3682.2 12.9844C3682.2 9.23893 3682.2 5.86801 3682.2 1.99765C3674.98 1.99765 3668.52 2.12246 3661.14 2.24731C3660.84 5.36857 3660.68 8.86443 3660.22 13.2342C3653.76 14.233 3646.85 13.6088 3640.23 13.7336C3633.47 13.7336 3626.55 13.8584 3619.48 13.9833C3619.17 9.98806 3619.02 6.74193 3618.71 2.74672C3615.02 2.74672 3611.18 2.49704 3606.72 2.37219C3606.41 6.11769 3606.11 9.61347 3605.8 13.359C3604.88 13.6087 3603.95 13.8584 3602.26 14.2329C3601.8 10.4874 3601.49 6.9916 3601.03 2.62184C3586.43 2.62184 3571.51 2.8716 3556.76 2.8716L3510.94 3.24613C3496.03 3.37098 3480.96 2.2473 3466.36 3.9952C3451.14 5.74311 3436.07 5.11892 3421.01 5.61832C3406.4 6.24257 3391.8 4.74433 3377.19 5.86798C3361.97 6.99163 3346.75 6.49223 3331.38 6.74193L3286.64 7.11646L3240.83 7.49109L3196.09 7.74075C3180.87 7.74075 3165.65 8.24014 3150.28 8.11529L3106 7.11646C3091.25 7.11646 3076.33 7.36624 3061.58 7.49109C3060.35 8.9893 3059.12 10.4874 3057.42 12.485C3055.58 11.1117 3054.35 10.2377 3053.27 9.48865L3055.43 7.61587C3042.2 7.61587 3028.98 7.86556 3016.22 7.99041C3013.15 10.9868 3016.68 15.4814 3011.46 18.7275C3010.69 14.7323 3010.07 11.8608 3009.31 7.99041C3000.08 9.11406 2990.7 8.8644 2981.33 8.6147C2971.64 8.365 2961.95 9.86317 2952.42 10.2377C2942.58 10.6123 2932.74 10.4875 2923.06 10.6123C2913.37 10.7372 2903.23 11.9857 2893.7 10.6123C2883.86 9.11415 2874.33 10.2378 2864.64 9.61352C2854.95 8.98927 2845.88 12.6099 2835.89 10.862C2826.51 9.23895 2816.52 9.98802 2806.68 10.2377C2797 10.4874 2787.31 10.9868 2777.78 12.1105C2768.25 13.359 2758.72 7.36617 2749.8 12.485C2746.88 10.862 2744.42 9.48864 2741.96 8.11529C2740.73 9.98804 2739.96 10.9869 2739.04 12.3602C2712.29 12.6099 2685.54 12.8596 2660.02 13.1093C2657.1 11.3614 2655.25 10.2377 2653.1 8.86436C2651.72 10.6123 2650.64 11.8608 2649.41 13.359C2635.88 13.359 2622.05 13.6088 2608.36 13.7336C2595.14 13.7336 2582.07 13.7336 2569.16 13.7336C2567.32 12.4851 2565.93 11.4863 2564.55 10.4875C2561.01 10.4875 2557.32 10.4875 2553.94 10.4875C2553.02 11.8608 2552.25 12.8596 2551.17 14.4827C2543.95 14.233 2536.26 14.4827 2528.88 13.4839C2524.12 12.8596 2519.97 12.2354 2515.35 13.7336C2512.74 14.6076 2509.67 14.6076 2506.9 14.6076L2357.47 15.9809C2353.62 15.9809 2349.78 15.1069 2345.94 14.3578C2339.79 13.2341 2333.02 14.3578 2326.57 14.7323C2323.03 14.982 2319.65 16.2306 2316.11 16.2306L2244.16 16.9796C2238.48 16.9796 2232.94 17.4791 2227.1 15.7312C2223.87 14.7324 2219.72 14.8572 2215.57 16.3554C2211.57 17.7288 2206.5 16.7299 2201.89 16.4802C2199.12 16.3554 2196.35 15.3566 2193.59 15.3566L2045.39 16.8549C2045.39 16.8549 2044 17.1045 2042.16 17.3542C2042.16 20.4754 2042.16 22.9725 2042.16 25.7192C2040.93 26.0938 2040 26.3435 2038.16 26.9677C2038.16 21.2246 2038.16 15.7312 2038.01 9.61352C2033.39 9.48867 2029.55 9.36384 2025.25 9.23899C2024.78 11.736 2024.48 13.9833 2024.02 16.6051C2020.33 16.6051 2016.48 16.6051 2012.02 16.6051C2011.56 14.6075 2011.1 12.485 2010.64 9.86318C2006.95 9.86318 2003.11 9.86318 1998.96 9.86318C1998.65 12.1105 1998.34 14.233 1998.03 17.2294C1994.96 17.2294 1992.19 17.2294 1989.43 17.2294L1907.64 17.9785C1903.79 17.9785 1900.11 18.7276 1895.03 19.1022C1892.11 18.7276 1887.96 18.1033 1883.35 17.3542C1882.89 15.4814 1882.58 13.2341 1881.96 10.7371C1875.51 10.7371 1869.05 10.7372 1861.83 10.9869C1861.36 13.7336 1860.9 16.73 1860.44 20.3507C1848.6 19.6016 1836.92 18.8524 1824.77 18.1033C1824.47 21.724 1824.16 24.5956 1823.7 28.3411C1814.17 28.7156 1804.48 28.5908 1794.18 28.7156C1793.87 25.7192 1793.57 22.8476 1793.11 19.3518C1790.8 19.227 1788.49 18.9772 1785.42 18.7275C1784.96 16.4802 1784.5 13.9833 1783.88 11.3614C1755.29 11.6111 1727 11.9857 1698.71 12.2354L1696.1 14.2329C1696.56 15.6063 1697.02 16.9796 1697.64 18.7275C1693.02 20.7251 1688.26 19.1021 1683.34 20.2258C1682.57 18.1033 1681.95 16.4803 1681.19 14.3578C1679.19 14.3578 1677.19 14.3578 1674.42 14.3578C1673.96 15.7312 1673.35 17.3543 1672.58 19.4767C1670.27 19.4767 1667.97 19.4767 1665.2 19.4767C1664.74 17.2294 1664.43 15.1069 1664.12 13.359C1656.59 12.9844 1649.36 12.485 1642.14 12.485C1635.22 12.485 1628.3 12.4851 1621.38 12.7348L1620.15 14.9821L1617.54 13.6087L1617.85 12.8597C1611.85 12.8597 1605.7 12.2354 1599.55 13.9833V13.7336C1592.17 14.233 1584.95 13.1093 1578.03 15.2317H1574.03C1563.89 14.982 1553.43 12.9845 1543.9 14.8572C1532.37 17.1045 1520.99 15.4815 1509 16.8549C1508.54 13.6088 1508.23 10.7372 1507.77 7.49109C1504.08 7.49109 1500.24 7.49109 1495.94 7.49109C1495.63 10.4875 1495.17 13.4839 1494.86 16.6051C1493.48 16.6051 1492.71 16.4803 1491.48 16.3554C1491.17 13.6087 1490.86 10.7372 1490.55 7.74075L1487.79 6.99168L1410.46 7.86563C1406.62 7.86563 1402.77 7.11655 1397.08 6.61714C1386.94 9.86325 1374.18 7.36622 1360.96 8.73958C1360.65 10.7372 1360.34 12.9845 1360.03 15.3566C1359.26 15.6063 1358.19 15.856 1356.65 16.3554C1356.19 13.7336 1355.73 11.2366 1355.27 8.36504C1349.58 8.36504 1344.2 8.61474 1338.82 8.36504C1333.9 8.24019 1328.98 7.74074 1322.37 7.24134C1320.06 7.61589 1315.91 8.61473 1311.76 8.73958L1186.47 9.61352C1179.55 9.61352 1172.63 9.61348 1165.87 9.86318C1163.1 9.86318 1160.48 10.862 1157.1 11.6111C1152.18 9.48862 1146.34 8.73956 1140.35 12.2354C1134.04 9.86321 1127.43 9.86316 1121.59 11.9856C1117.59 11.4862 1114.21 10.4875 1110.83 10.4875L1012.75 11.6111C1009.06 11.6111 1005.37 12.6099 1001.37 13.2342L1000.14 11.1117C976.771 12.6099 953.25 11.1117 929.421 12.485C928.806 9.73832 928.191 7.24138 927.73 4.74437C917.276 4.74437 907.129 4.99403 896.675 4.99403C896.214 7.24133 895.907 9.48861 895.445 11.9856C891.602 11.9856 887.759 11.9856 883.454 11.9856C883.147 9.86316 882.685 7.74074 882.224 4.99403C861.162 5.24373 839.947 5.36862 818.117 5.61832V5.11891C807.816 5.11891 797.362 5.36857 786.447 5.36857C786.294 7.86557 785.986 10.6123 785.678 13.7336C784.756 13.9833 783.834 14.2329 782.143 14.7323C781.681 11.6111 781.374 8.86437 780.913 5.36857C776.147 4.74431 771.688 4.74436 766.615 6.49227C762.464 7.86562 757.237 6.8668 751.857 6.8668C751.395 9.36381 750.934 11.736 750.319 14.4827C742.786 14.4827 735.407 14.6075 727.413 14.7323C726.952 12.2353 726.644 9.73834 726.183 7.24134C719.265 7.24134 712.654 7.36624 705.582 7.49109C705.582 10.4875 705.275 13.359 705.121 16.73C707.888 16.9797 710.348 17.2294 713.423 17.4791C713.577 18.8524 713.884 20.3507 714.192 22.2234C709.58 24.0962 704.814 22.8476 699.587 23.347C698.972 20.2258 698.51 17.1045 697.896 13.4839C692.669 13.4839 687.288 13.4839 682.061 13.6087C681.446 11.4863 680.985 9.98807 680.524 8.24016C671.146 6.11771 661.768 5.99286 651.621 8.24016C651.16 9.48867 650.699 11.2365 649.93 13.4839C648.393 13.4839 646.702 13.4839 644.857 13.4839C644.242 11.7359 643.781 9.86316 643.166 7.99041C628.715 7.61586 614.264 7.11648 599.812 6.74193C594.893 6.74193 589.973 6.74191 584.9 7.99041C580.288 9.11406 574.907 7.99045 569.834 7.74075C567.682 7.74075 565.376 6.74191 563.531 7.11646C552.155 9.61347 540.778 8.24013 529.248 7.61587C518.333 6.99162 507.11 6.49227 495.887 8.73958C487.893 10.3626 479.284 9.61354 470.829 9.23899C418.251 7.49109 365.827 8.36504 313.25 9.23899C290.343 9.61354 267.437 9.86321 244.53 9.98806C240.687 9.98806 236.69 10.862 232.847 11.3614L229.618 11.6111C221.47 8.48982 213.322 12.6099 205.174 11.9856C197.334 11.3614 189.493 10.6123 181.499 10.6123H169.815L171.198 13.9833C171.198 14.233 169.2 14.6075 167.355 15.1069C167.048 13.7335 166.586 12.3602 166.74 11.1117L167.355 10.7371L96.637 11.3614C94.1772 15.4815 91.4101 19.8513 88.1816 25.3447C84.492 18.8525 85.1069 14.7324 87.1055 11.4863H80.8022L30.377 11.9856H17.4634C11.1602 12.2353 16.3509 11.9432 10.8164 14.0657C-0.252533 18.4354 4.68518 7.01138 0.841797 16.5C-0.695556 20.2455 0.341797 19.1296 0.341797 23C8.48977 23 -4.52084 37.3303 3.47339 37.3303C3.47339 35.3327 6.88059 41.5752 7.3418 38.4539C7.64927 35.4575 5.93323 34.7084 9.77661 33.2102C10.5453 35.083 11.3139 36.706 12.2363 38.4539L14.0811 39.9521L17.4634 39.203H18.3857H20.8455C22.5365 39.203 24.3814 39.203 26.0725 39.203C26.5337 36.9557 27.149 34.5836 27.7639 31.8369C31.6073 31.8369 35.4501 31.8369 39.4473 31.8369C40.0622 33.8345 40.6773 35.5824 41.2922 37.3303C46.3655 37.3303 51.4389 37.3303 56.5122 37.2054L54.5137 34.9581C53.4375 33.0854 53.2839 30.9629 52.6689 28.9653C55.4362 27.8416 58.0492 26.2186 60.9702 25.5943C65.1211 24.5955 69.4259 24.3458 73.7305 23.7216C71.4244 28.0913 70.0408 33.0854 66.5049 36.706L65.8899 37.0805C67.8885 37.0805 69.8868 37.0805 72.0391 37.0805C72.3465 35.3326 72.6543 33.8345 73.1155 31.5872C76.8051 31.3375 80.6488 31.0877 84.9534 30.838C85.5683 33.4599 86.029 35.9569 86.4902 38.5788C96.9442 38.5788 106.937 38.329 117.698 38.329C117.852 36.8308 118.006 35.3326 118.314 33.8344C118.621 32.7108 119.082 31.712 121.235 30.5884C122.003 33.0854 122.926 35.5824 123.848 38.2042C127.384 38.2042 130.92 38.2042 134.763 38.2042C135.378 35.7072 135.993 33.2102 136.762 30.4635C142.296 31.712 138.761 35.9569 141.528 38.2042C148.292 38.2042 155.517 38.0793 163.358 37.9545C163.665 35.832 164.127 33.335 164.588 30.7132C168.432 30.7132 171.967 30.7132 176.272 30.7132C176.733 32.8356 177.348 35.2078 177.963 37.9545C181.499 37.9545 185.189 37.9545 189.339 37.9545C189.801 35.832 190.262 33.4599 190.723 30.7132C194.566 30.7132 198.102 30.7132 202.407 30.7132C202.868 32.8356 203.483 35.2078 204.251 37.9545C208.556 37.9545 212.861 37.9546 217.78 37.8297C218.088 35.957 218.395 33.8344 218.857 31.2126C220.702 30.7132 222.854 30.089 225.621 29.3399C224.545 28.0914 223.776 26.9677 223.776 26.0938C223.776 24.8453 226.39 23.7216 227.927 22.598V22.3482C234.538 24.4707 241.302 25.9689 248.066 21.4743C248.681 24.7204 248.989 26.9677 249.45 29.0901L251.294 29.9641L298.184 29.4647C301.413 29.4647 304.487 28.2162 307.562 27.9665C315.402 27.592 323.396 27.2174 331.083 30.089C331.544 31.4623 331.852 32.9605 332.467 34.9581C339.077 34.9581 345.688 34.9582 352.606 34.7085C353.067 32.9606 353.529 31.4623 353.99 29.4647C374.744 29.215 395.652 29.0902 416.714 28.8405C412.102 23.7216 410.103 21.724 408.258 19.7264C411.026 17.9785 413.793 15.1069 416.867 14.9821C418.866 14.9821 422.556 18.4779 422.863 20.7252C423.171 22.8476 421.172 25.3447 419.327 28.8405H420.404C421.019 30.5884 421.633 32.3363 422.248 34.209C428.859 34.209 435.316 34.209 442.08 34.0842C442.695 32.2114 443.31 30.4635 443.925 28.4659C449.152 28.4659 454.225 28.4659 459.76 28.3411C460.067 29.7144 460.528 31.2126 461.143 33.5848C467.139 34.3339 473.442 33.9593 479.899 33.9593C486.048 33.9593 492.198 33.9593 498.808 33.8344C499.423 31.9617 499.885 30.0889 500.5 28.0913L540.471 27.7168C540.932 29.5895 541.393 31.0877 542.008 33.0853C548.311 33.0853 554.768 33.0853 561.994 32.9605C562.455 31.712 562.916 29.9641 563.685 27.5919C565.068 27.5919 566.759 27.4671 568.604 27.3422C569.219 29.3398 569.834 31.0878 570.449 32.8357C580.134 33.7096 589.666 34.4587 599.966 35.4575C599.966 33.2102 599.966 31.9617 599.966 30.7132C599.966 29.4647 600.427 28.3411 600.735 27.0926C606.731 27.592 602.887 31.9617 606.116 34.5836L607.653 34.9581C618.568 33.2102 629.637 32.8357 640.86 32.8357C643.781 32.8357 646.702 32.4611 649.469 32.8357C652.544 33.2102 655.465 34.3338 658.693 35.2078C658.847 37.9545 659.154 40.4516 659.308 43.5728C663.151 43.5728 666.995 43.5728 671.607 43.5728C671.761 40.3267 671.914 36.8309 672.068 32.4611C684.674 32.4611 696.82 32.2114 709.118 32.0865C721.417 32.0865 733.87 32.586 746.168 31.5872C758.314 30.4635 770.151 35.2078 783.526 32.0865C789.829 34.0841 800.745 34.3339 817.502 32.3363C817.502 30.2138 817.502 28.0913 817.502 25.9689C819.193 26.2186 820.884 26.4683 822.729 26.718C823.036 28.8404 823.497 30.9629 823.958 33.5848C830.723 33.5848 837.487 33.4599 844.713 33.3351C845.02 30.8381 845.328 28.4659 845.635 26.0938H849.017C849.325 28.3411 849.632 30.4635 849.94 33.4599C860.24 33.9593 870.54 33.4599 881.455 33.4599C881.917 30.7132 882.224 28.3411 882.685 25.7192C888.835 25.9689 885.145 30.4635 887.451 32.8357C903.132 32.7108 919.274 32.586 936.031 32.3363C936.339 30.3387 936.646 28.2162 937.108 25.4695C953.25 25.3446 969.392 25.2198 986.149 24.9701C986.457 26.9677 986.918 29.215 987.225 31.8369C1000.45 31.8369 1013.67 31.5872 1027.35 31.4623C1027.66 29.3399 1028.12 27.2174 1028.58 24.5955C1035.34 24.5955 1042.11 24.4707 1049.33 24.3459C1049.64 26.3435 1050.1 28.5907 1050.41 31.2126C1054.1 31.2126 1057.94 31.2126 1062.25 31.2126C1062.56 29.215 1062.86 26.9677 1063.17 24.3459C1067.63 24.3459 1072.24 24.3458 1077.62 24.221C1077.62 29.4647 1077.62 34.9581 1077.78 40.8261C1088.23 40.8261 1097.91 40.7012 1108.21 40.5763C1108.37 37.8296 1108.52 34.9581 1108.68 31.712C1119.28 31.712 1129.74 31.4623 1140.81 31.4623C1141.11 34.0842 1141.42 36.9557 1141.88 40.2018C1158.03 40.077 1174.17 39.9521 1191.08 39.7024C1191.08 36.9557 1191.39 34.0841 1191.54 30.838C1195.69 30.838 1199.53 30.838 1203.99 30.838C1204.3 33.5847 1204.61 36.4563 1204.91 39.3279C1207.84 40.2018 1210.76 41.2006 1213.68 42.0746C1223.06 39.0782 1232.28 39.3279 1242.12 40.7012C1252.26 42.0746 1262.72 43.3231 1272.87 39.9521C1275.17 39.203 1277.63 39.203 1279.94 38.8284C1280.55 35.5823 1281.01 32.5859 1281.78 28.5907C1286.7 31.8368 1284.24 35.5824 1285.93 38.7037C1293 38.7037 1300.54 38.5788 1308.69 38.4539C1308.69 35.8321 1308.99 32.9605 1309.15 29.7144C1313.3 29.7144 1317.14 29.7144 1321.6 29.7144C1321.91 32.4611 1322.21 35.2078 1322.52 38.2042C1325.44 39.0782 1328.36 40.0769 1330.05 40.5763C1335.74 39.8272 1340.2 39.0782 1344.81 38.7037C1348.66 38.3291 1352.5 38.4539 1356.34 37.2054C1359.57 36.2066 1364.49 39.3279 1367.57 38.2042C1375.25 35.5824 1382.48 39.8273 1390.32 37.3303C1397.24 35.2078 1405.39 36.3315 1412.92 36.3315C1416.45 36.3315 1419.84 35.9569 1423.37 37.58C1425.99 38.8285 1429.98 38.5788 1432.9 37.8297C1449.97 33.5848 1467.34 37.0805 1485.17 35.2078C1485.48 38.8284 1485.64 41.5752 1485.94 45.3207C1493.32 44.4468 1500.55 46.5692 1507.47 43.5728C1508.7 43.0734 1510.39 43.1983 1511.77 43.5728C1528.68 46.5692 1545.59 44.0722 1562.66 44.6964C1568.34 44.9461 1573.88 44.6964 1579.57 46.0698C1585.26 47.4431 1592.02 45.1958 1598.48 44.5715V43.0734C1610.93 43.0734 1623.54 42.8237 1636.6 42.6989C1636.91 40.7013 1637.22 38.5788 1637.68 35.4575C1647.83 35.4575 1658.28 35.2078 1669.2 35.083C1669.66 37.7048 1670.27 40.077 1670.73 42.574C1673.96 42.574 1676.88 42.574 1679.8 42.9485C1682.57 43.3231 1685.34 44.0722 1688.87 44.8213C1696.1 41.0758 1705.02 42.8237 1713.47 42.574C1726.23 42.3243 1739.14 43.8225 1751.44 41.8249C1761.9 40.077 1772.51 38.8285 1782.34 40.3267C1797.87 42.574 1813.24 40.826 1828.62 41.4503C1832.15 41.5751 1835.54 41.8249 1839.07 39.9521C1841.53 38.7036 1845.53 38.9533 1848.6 39.4527C1863.06 41.7 1869.51 41.2006 1883.35 39.203C1890.57 38.2042 1898.41 37.7048 1905.95 39.8273C1909.33 40.7012 1913.02 40.7012 1916.55 40.7012C1930.7 40.7012 1944.84 40.4515 1959.29 40.3267C1959.75 42.6988 1960.22 44.9461 1960.68 47.3183C1979.43 49.6904 1998.34 45.071 2017.87 47.568C2018.48 44.9462 2018.94 42.574 2019.56 39.9521C2023.55 39.9521 2027.4 39.9521 2031.55 39.9521C2031.86 42.4492 2032.32 44.5716 2032.62 47.3183C2043.08 46.5692 2053.38 45.6953 2064.14 44.9462C2064.45 43.5728 2064.6 42.0746 2065.06 39.8273C2066.91 39.7024 2068.91 39.4527 2071.06 39.3279C2072.9 39.3279 2074.75 39.3279 2077.05 39.3279C2077.52 41.8249 2078.13 44.3218 2078.59 46.8189C2082.44 46.8189 2085.97 46.8189 2090.28 46.8189C2090.58 44.6964 2090.89 42.574 2091.35 39.5776C2098.58 38.9534 2106.11 39.203 2114.26 39.203C2114.72 41.4503 2115.03 43.5728 2115.49 46.4443C2117.33 46.4443 2119.49 47.0686 2121.48 46.6941C2132.86 44.5716 2144.08 44.0721 2155.46 46.3194C2158.23 46.8188 2161.3 46.3194 2164.22 46.3194L2205.58 46.0698C2212.65 46.0698 2219.87 44.8213 2226.79 47.568C2229.25 48.5668 2232.48 47.568 2235.4 47.568C2236.32 46.4444 2237.09 45.4456 2238.32 43.9473C2250.16 44.6965 2262.15 42.6989 2274.45 44.9462C2279.37 45.8201 2285.21 46.1946 2290.44 43.8225C2292.13 43.0734 2295.05 42.9485 2296.74 43.8225C2301.51 46.3195 2305.81 44.5716 2311.81 42.1995C2312.58 43.5728 2313.5 45.1958 2314.58 46.9437C2319.03 45.9449 2323.03 44.9462 2327.8 43.9473C2328.1 42.1994 2328.41 40.077 2328.87 37.3303C2332.56 37.3303 2336.41 37.3303 2341.02 37.3303C2341.33 39.9522 2341.63 42.6988 2342.09 46.0698C2358.54 45.9449 2375.15 45.8201 2392.98 45.5704C2393.29 45.1958 2394.21 43.8224 2395.13 42.3242C2397.9 42.3242 2400.67 42.3242 2403.59 42.3242C2404.36 43.4479 2405.13 44.5716 2405.89 45.8201C2418.81 45.8201 2431.72 45.5703 2444.94 45.4455C2445.56 44.4467 2446.33 43.3231 2447.1 42.0746C2499.52 41.5752 2552.1 41.0757 2605.14 40.5763C2605.29 43.6976 2605.6 46.5692 2605.75 49.5656C2612.82 49.5656 2619.28 49.4408 2626.35 49.3159C2626.66 46.6941 2626.97 43.9473 2627.43 40.3267C2631.12 40.077 2634.96 39.9521 2639.42 39.7024C2639.88 42.6988 2640.34 45.5704 2640.8 48.6916L2643.42 49.4407L2744.88 48.442C2748.42 48.442 2751.8 46.8189 2755.33 46.8189C2761.02 46.8189 2766.56 46.0698 2772.4 47.8177C2777.01 49.191 2782.85 49.0662 2787.31 47.8177C2792.69 46.1946 2798.07 46.4443 2803.3 46.3194C2842.96 45.9449 2882.47 45.5704 2921.98 45.071C2923.06 46.3195 2923.83 47.3182 2925.06 48.5667C2929.06 48.5667 2933.36 48.5667 2937.82 48.5667C2938.43 47.5679 2939.2 46.5692 2940.12 45.1958C2954.88 45.1958 2969.64 44.9461 2984.55 44.8213C2986.24 44.8213 2987.94 45.4455 2989.63 45.9449C2999 48.6916 3008.69 48.6917 3018.38 48.0674C3019.14 46.9438 3019.76 45.9449 3020.84 44.3219C3024.06 44.3219 3027.6 44.3219 3031.14 44.3219L3412.71 40.8261C3426.08 40.8261 3439.61 39.8273 3452.99 40.8261C3464.52 41.7 3475.89 42.0746 3487.42 41.7C3494.49 41.5752 3501.72 39.7024 3508.79 40.2018C3538.46 41.8249 3568.13 40.9509 3597.8 40.8261C3601.03 40.8261 3604.26 40.8261 3608.1 40.8261C3608.1 37.58 3608.41 34.7084 3608.57 31.4623C3613.02 32.3363 3617.02 33.0853 3621.17 33.8344C3621.48 35.832 3621.63 37.7048 3621.94 40.2018C3629.01 41.2006 3636.39 42.0746 3643.31 43.0734C3644.85 41.4503 3646.08 40.2018 3647.31 38.9533C3655.3 38.9533 3663.29 38.5787 3671.29 38.8284C3676.67 38.9533 3681.9 40.0769 3687.12 40.0769C3692.04 40.0769 3696.96 39.4527 3703.27 38.9533C3703.57 39.3279 3704.65 40.4516 3705.73 41.8249C3712.03 41.8249 3718.64 41.8249 3724.94 41.7C3726.02 40.4515 3726.79 39.4527 3727.56 38.4539C3730.17 39.8273 3732.63 41.0757 3735.24 42.3242C3736.32 40.5763 3737.09 39.5776 3738.01 38.2042C3752.31 38.0794 3766.76 37.9546 3781.36 37.8297C3782.29 38.9534 3783.21 40.2018 3784.13 41.4503C3789.05 41.4503 3793.82 41.4504 3798.43 41.3255C3799.66 40.077 3800.89 38.8284 3801.81 37.9545C3806.88 38.4539 3811.8 38.9533 3817.03 39.4527C3817.49 36.4563 3817.8 34.209 3818.11 31.712C3822.26 31.712 3826.1 31.712 3830.1 31.712C3830.71 33.7096 3831.33 35.4575 3831.94 37.4551C3852.24 37.2054 3872.07 37.0805 3891.59 36.9557C3894.05 38.5787 3896.2 39.8273 3898.51 41.2006C3900.05 39.203 3901.12 38.0794 3902.35 36.4564C3909.43 36.4564 3916.65 36.3314 3924.18 36.2066C3924.18 24.4707 3924.18 22.8476 3923.88 10.862C3917.42 11.6111 3911.73 7.3662 3905.89 9.98806C3904.04 10.7372 3887.75 9.98805 3885.75 9.48865C3872.84 6.36739 3873.3 2.74677 3859.61 1.62311L3861.77 0ZM499.731 11.1117L500.961 11.6111L499.577 12.1105V11.1117H499.731ZM218.396 23.4719C216.704 26.5932 214.86 29.7144 213.168 32.8357C211.477 32.2114 209.786 31.712 207.942 31.0878C209.479 27.9665 210.862 24.8453 212.707 21.724C212.707 21.5992 216.397 22.8477 218.396 23.4719ZM344.766 26.4683L343.228 28.3411L340.307 27.3422L341.999 25.2198L344.766 26.4683ZM1087.46 39.4527C1085 37.4551 1082.23 35.5823 1080.08 33.4599C1079.77 33.2102 1081.93 31.4623 1083.92 29.215C1086.54 31.9617 1088.84 33.8344 1090.38 36.0817L1087.46 39.3279V39.4527ZM1103.45 28.7156L1103.14 29.5895C1103.14 31.0878 1103.14 32.7108 1102.99 34.209H1101.14C1101.76 32.586 1102.53 31.0878 1103.14 29.5895V28.4659C1100.84 25.9689 1097.15 23.347 1097.3 20.9748C1097.3 18.8524 1102.37 16.7299 1105.45 15.1069L1109.75 16.9796C1107.75 20.85 1105.45 24.7204 1103.14 28.4659L1103.45 28.7156ZM1597.86 32.2114C1596.02 31.9617 1594.17 31.712 1592.02 31.4623C1591.87 29.9641 1591.71 28.7156 1591.56 26.8428C1593.56 26.4683 1595.71 26.0937 1597.86 25.5943C1597.86 27.7168 1597.86 29.9641 1597.86 32.2114Z" fill="#DDD0AE"/>
</svg>
