<svg width="548" height="548" viewBox="0 0 548 548" fill="none" xmlns="http://www.w3.org/2000/svg">
<g clip-path="url(#clip0_9_45091)">
<path d="M542.534 394.753H525.186C522.792 394.753 520.85 396.699 520.85 399.097V436.539H507.839C505.445 436.539 503.502 438.485 503.502 440.883V444.358H494.829V418.079C494.829 415.681 492.886 413.735 490.492 413.735H477.482V408.045C477.482 405.647 475.539 403.701 473.145 403.701H460.134V387.89C460.134 385.492 458.192 383.546 455.798 383.546H442.787V375.902C442.787 373.504 440.844 371.558 438.45 371.558H425.44V359.005C425.44 356.607 423.497 354.661 421.103 354.661H403.756C401.362 354.661 399.419 356.607 399.419 359.005V371.558H386.409C384.015 371.558 382.072 373.504 382.072 375.902V431.066H373.399V405.352C373.399 402.954 371.456 401.008 369.062 401.008H351.715C349.321 401.008 347.378 402.954 347.378 405.352V424.594H334.367C331.973 424.594 330.031 426.54 330.031 428.938V478.239H313.759L337.442 319.173C338.058 316.167 340.179 313.843 343.115 312.966C346.033 312.106 349.052 312.866 351.19 315.021C358.814 322.731 365.571 323.308 369.907 322.435C379.852 320.45 383.733 303.614 388.638 282.3C393.929 259.326 400.516 230.736 414.42 230.736C426.134 230.736 430.956 254.326 435.211 275.141C440.198 299.544 445.359 324.776 463.079 324.776C483.64 324.776 486.459 291.265 488.948 261.702C490.076 248.319 491.958 225.923 496.16 224.246C498.389 223.334 500.089 223.638 501.807 225.232C504.695 227.995 508.572 229.224 512.462 228.638C516.179 228.065 519.358 225.841 521.184 222.522C526.986 211.897 528.92 200.434 530.625 190.322C532.923 176.709 534.736 165.959 544.416 161.276C546.575 160.234 547.478 157.636 546.437 155.477C545.396 153.314 542.807 152.406 540.647 153.453C526.93 160.082 524.571 174.068 522.073 188.872C520.403 198.771 518.677 209.005 513.581 218.339C512.918 219.542 511.89 219.933 511.144 220.046C509.956 220.233 508.724 219.833 507.752 218.904C503.528 214.968 498.251 214.008 492.921 216.185C484.195 219.664 482.521 234.697 480.309 260.968C478.349 284.228 475.669 316.085 463.083 316.085C452.441 316.085 447.805 293.406 443.715 273.395C438.555 248.15 433.22 222.044 414.425 222.044C393.621 222.044 386.487 253.015 380.19 280.345C377.193 293.359 372.666 313.023 368.203 313.913C364.937 314.569 361.295 312.888 357.348 308.9C352.916 304.426 346.667 302.837 340.634 304.644C334.671 306.429 330.191 311.328 328.903 317.666L304.994 478.239H295.267L274.134 321.415C273.873 319.499 272.382 317.979 270.469 317.701C268.578 317.431 266.692 318.435 265.889 320.198L259.588 334.05L243.217 247.22C242.887 245.478 241.534 244.11 239.795 243.767C238.038 243.424 236.282 244.171 235.319 245.661L227.314 257.988L223.189 246.086C222.617 244.436 221.112 243.285 219.373 243.176C217.642 243.076 215.994 244.01 215.214 245.574L209.697 256.65L199.736 224.086C199.159 222.196 197.294 220.958 195.408 221.019C193.434 221.102 191.769 222.505 191.348 224.438L172.648 310.725L166.598 301.164C165.701 299.748 164.074 298.962 162.413 299.175C160.752 299.375 159.356 300.513 158.823 302.103C157.808 305.121 153.653 313.739 148.059 313.739C141.753 313.739 136.692 291.53 132.624 273.682C125.16 240.931 116.695 203.805 90.3792 203.805C53.4254 203.805 44.8906 253.827 35.8527 306.789C28.9875 347.012 21.8882 388.607 2.02133 404.904C0.169519 406.425 -0.103699 409.161 1.41418 411.016C2.93639 412.871 5.66424 413.144 7.51605 411.624C29.8896 393.272 37.2665 350.052 44.3962 308.253C52.8052 259.005 60.7459 212.493 90.3792 212.493C109.778 212.493 117.757 247.498 124.167 275.623C130.13 301.777 134.836 322.431 148.059 322.431C155.331 322.431 160.349 317.114 163.393 312.332L170.983 324.32C171.924 325.81 173.659 326.588 175.406 326.275C177.137 325.967 178.512 324.642 178.885 322.917L196.31 242.52L204.589 269.581C205.109 271.28 206.61 272.492 208.379 272.639C210.127 272.796 211.822 271.84 212.62 270.25L218.384 258.679L222.031 269.212C222.573 270.78 223.961 271.901 225.605 272.101C227.244 272.296 228.862 271.545 229.764 270.159L236.707 259.469L253.612 349.131C253.963 350.991 255.477 352.411 257.35 352.637C259.228 352.858 261.036 351.846 261.817 350.126L267.555 337.508L286.519 478.243H269.315V404.44C269.315 402.042 267.373 400.096 264.979 400.096H251.968V387.195C251.968 384.797 250.025 382.851 247.631 382.851H230.284C227.89 382.851 225.947 384.797 225.947 387.195V395.709H217.274V382.417C217.274 380.019 215.331 378.073 212.937 378.073H195.59C193.196 378.073 191.253 380.019 191.253 382.417V438.841H178.243C175.849 438.841 173.906 440.787 173.906 443.185V452.176H165.232V445.096C165.232 442.699 163.289 440.753 160.896 440.753H147.885V382.417C147.885 380.019 145.942 378.073 143.548 378.073H130.538V369.647C130.538 367.249 128.595 365.303 126.201 365.303H113.191V361.437C113.191 359.039 111.248 357.093 108.854 357.093H95.8436V347.277C95.8436 344.879 93.9007 342.933 91.5068 342.933H74.1596C71.7657 342.933 69.8228 344.879 69.8228 347.277V379.159H56.8124C54.4185 379.159 52.4756 381.105 52.4756 383.503V413.17H39.4652C37.0713 413.17 35.1284 415.116 35.1284 417.514V444.749H22.118C19.7241 444.749 17.7812 446.695 17.7812 449.092V452.176H4.77086C2.37695 452.176 0.434064 454.122 0.434064 456.52V482.582C0.434064 484.98 2.37695 486.926 4.77086 486.926H287.686L295.375 543.976C295.666 546.121 297.483 547.724 299.643 547.737C299.651 547.737 299.66 547.737 299.673 547.737C301.82 547.737 303.645 546.165 303.962 544.032L312.467 486.926H542.534C544.927 486.926 546.87 484.98 546.87 482.582V399.097C546.87 396.695 544.927 394.753 542.534 394.753ZM260.642 478.239H251.968V408.783H260.642V478.239ZM234.621 391.539H243.295V404.44V478.239H234.621V391.539ZM225.947 404.396V478.239H217.274V404.396H225.947ZM199.927 386.761H208.6V478.239H199.927V386.761ZM182.579 447.529H191.253V478.239H182.579V447.529ZM173.906 460.864V478.239H165.232V460.864H173.906ZM156.559 449.44V478.239H147.885V449.44H156.559ZM139.212 386.761V478.239H130.538V386.761H139.212ZM121.864 373.99V478.239H113.191V373.99H121.864ZM104.517 365.781V478.239H95.8436V365.781H104.517ZM78.4964 351.62H87.17V478.239H78.4964V351.62ZM61.1492 387.847H69.8228V478.239H61.1492V387.847ZM43.802 421.858H52.4756V478.239H43.802V421.858ZM26.4548 453.436H35.1284V478.239H26.4548V453.436ZM17.7812 460.864V478.239H9.10766V460.864H17.7812ZM299.89 512.527L296.438 486.926H303.702L299.89 512.527ZM529.523 403.44H538.197V478.239H529.523V403.44ZM512.176 445.227H520.85V478.239H512.176V445.227ZM503.502 453.045V478.239H494.829V453.045H503.502ZM486.155 422.422V478.239H477.482V422.422H486.155ZM468.808 412.388V478.239H460.134V412.388H468.808ZM451.461 392.234V478.239H442.787V392.234H451.461ZM434.114 380.245V478.239H425.44V380.245H434.114ZM408.093 363.348H416.766V478.239H408.093V363.348ZM390.746 380.245H399.419V478.239H390.746V380.245ZM382.072 439.754V478.239H373.399V439.754H382.072ZM356.051 409.695H364.725V478.239H356.051V409.695ZM338.704 433.281H347.378V478.239H338.704V433.281Z" fill="#22665C"/>
<path d="M2.87087 242.676C3.47369 242.972 4.12421 243.115 4.77039 243.115C5.72015 243.115 6.66123 242.802 7.43752 242.194L101.477 168.647L153.154 194.401C154.685 195.161 156.528 194.948 157.851 193.858L198.868 159.86L221.905 175.154C223.449 176.183 225.479 176.11 226.949 174.972L245.194 160.889L307.357 212.492C309.044 213.891 311.521 213.813 313.117 212.297L377.735 150.725H395.602C396.721 150.725 397.801 150.291 398.608 149.513L424.238 124.837H442.83C443.984 124.837 445.09 124.376 445.901 123.56L510.298 58.7783L517.761 76.5265C518.473 78.2162 520.203 79.2587 521.998 79.1762C523.824 79.0763 525.394 77.834 525.914 76.0748L546.688 6.01133C547.147 4.46498 546.714 2.79266 545.56 1.66765C544.407 0.54264 542.72 0.15171 541.197 0.642545L471.765 23.1428C470.022 23.7075 468.821 25.3103 468.764 27.1433C468.708 28.9763 469.809 30.6487 471.518 31.3176C471.518 31.3176 479.689 34.5232 488.184 37.8765L434.005 92.3896H415.465C414.346 92.3896 413.271 92.824 412.464 93.5972L386.79 118.278H368.975C367.86 118.278 366.793 118.708 365.986 119.472L309.873 172.943L248.52 122.391C246.959 121.106 244.717 121.075 243.116 122.305L223.05 137.807L199.926 122.148C198.33 121.067 196.21 121.171 194.731 122.4L151.35 158.37L100.457 132.347C98.9569 131.583 97.1485 131.752 95.8171 132.794L2.09892 206.072C1.04942 206.893 0.433594 208.157 0.433594 209.495V238.771C0.433594 240.431 1.37902 241.947 2.87087 242.676Z" fill="#22665C"/>
</g>
<defs>
<clipPath id="clip0_9_45091">
<rect width="547.737" height="547.737" fill="white"/>
</clipPath>
</defs>
</svg>
