<svg width="374" height="279" viewBox="0 0 374 279" fill="none" xmlns="http://www.w3.org/2000/svg">
<g clip-path="url(#clip0_9_26326)">
<g clip-path="url(#clip1_9_26326)">
<path d="M360.782 127.764C361.059 125.954 360.749 123.222 360.576 121.519C360.71 120.84 360.915 119.936 360.415 119.346C360.057 118.912 359.536 118.637 358.958 118.666C358.858 118.256 357.833 116.914 357.57 116.662C357.796 116.789 358.157 116.787 358.419 116.736C359.433 116.462 359.772 114.88 358.724 114.346C358.621 113.272 358.573 109.086 357.369 108.504C354.298 106.547 351.071 104.788 347.422 104.207C338.839 101.565 329.304 100.827 320.988 97.2629C305.831 91.9762 287.97 86.1167 272.042 84.7242C269.285 83.7745 266.47 83.9258 264.342 83.7589C261.9 83.3811 259.284 82.8923 256.807 83.6035C252.11 85.1809 247.631 89.7837 246.917 94.7765C247.142 99.7379 247.271 97.1805 242.799 99.3774C240.936 99.5773 238.964 99.7622 237.217 98.9171C232.761 97.5738 229.456 99.9809 227.278 103.704C226.683 104.828 225.275 108.146 225.66 108.739C223.53 110.657 221.106 113.338 221.465 116.521C215.584 117.333 218.449 117.14 220.14 112.602C221.273 110.659 222.605 108.076 223.709 106.106C225.147 104.523 227.954 101.032 228.337 98.8188C228.955 96.337 228.774 92.8868 227.739 90.5373C228.286 84.4311 223.163 78.5767 217.285 77.4181C216.741 77.1547 215.531 77.3293 216.016 76.9868C217.614 75.0741 219.119 72.6021 220.141 71.0797C226.237 63.8306 222.932 52.6622 214.158 49.4113C208.484 47.349 202.057 46.7405 196.699 45.2502C182.333 41.8771 157.075 33.4019 143.421 28.2209C139.575 26.9907 135.103 25.9455 131.245 24.6926C127.943 23.1759 124.177 21.3826 120.691 20.6431C118.637 19.9305 115.909 18.7624 113.686 18.7179C106.123 16.6957 100.372 15.0075 96.5349 23.7152C95.1951 26.4472 93.863 29.2764 92.3263 31.9095C85.8425 43.8352 102.731 42.4349 90.8252 45.7402C88.4912 45.8698 86.2004 46.9608 83.91 47.2557C81.3192 47.9693 81.5537 48.497 78.5407 49.2883C76.0626 50.1885 75.7168 50.6312 72.8953 51.5387C70.8405 52.4185 70.6188 52.7669 69.9951 53.0665C68.3763 53.7023 65.6884 54.9736 62.9143 57.3178C59.0946 61.1391 55.05 64.8908 51.2834 68.7854C49.2745 71.291 47.16 73.9535 45.7319 76.8478C43.6965 78.6437 42.5671 81.3083 40.6367 83.1936C37.7864 86.2726 35.3626 89.7494 32.9376 93.1688C29.7727 97.0794 26.7352 102.414 26.0686 107.743C23.6503 116.644 21.9859 125.988 24.0281 135.115C25.3645 142.545 27.7712 146.95 32.8091 152.835C34.3439 154.733 36.491 156.062 38.517 157.354C40.2515 158.669 41.7947 160.967 43.68 162.102C42.4248 162.604 43.4136 165.223 43.9087 165.889C44.058 166.997 44.9622 167.505 45.6475 168.229C49.2669 172.025 57.7027 175.266 63.0041 175.715C68.8608 176.696 74.9989 177.442 80.8922 176.899C84.4344 177.031 88.2942 176.198 91.7724 175.741C94.4372 175.278 95.0149 174.699 96.9153 176.823C100.207 180.574 104.4 183.865 109.197 185.39C113.779 188.65 119.401 190.45 125.661 189.887C127.397 190.463 130.166 191.682 131.999 191.701C133.499 191.938 135.879 191.842 137.406 191.746C137.602 191.788 137.088 191.61 137.088 191.61L137.592 191.576C137.561 191.491 137.139 191.019 136.995 190.993C139.588 191.74 139.236 191.897 139.483 194.343C139.759 195.775 139.781 196.009 139.781 197.905C140.297 202.294 140.839 206.784 142.853 210.803C144.45 213.725 146.21 216.792 148.704 219.082C151.116 220.778 153.554 222.88 156.222 224.181C161.146 226.276 165.501 228.555 170.376 230.806C172.925 231.881 176.388 232.329 178.836 233.543C181.581 234.716 184.869 235.546 187.521 236.956C190.614 238.294 194.046 240.003 197.473 240.383C201.154 241.106 204.863 242.105 208.544 242.829C212.884 243.321 213.94 243.155 218.993 244.343C222.712 244.946 225.236 245.425 230.361 245.649C234.644 245.592 236.017 245.013 239.873 245.356C244.958 245.586 250.695 245.241 256.23 245.611C262.529 246.388 269.371 247.371 275.311 244.719C277.77 243.453 280.579 241.669 283.003 239.842C286.049 237.905 287.667 234.216 287.495 230.674L287.645 229.64C288.776 230.332 291.089 230.575 292.342 230.755C301.175 231.369 308.117 224.629 314.839 220.191C321.861 219.676 323.401 213.915 325.266 208.142C329.348 204.515 331.641 199.197 335.343 195.206C342.683 184.248 336.408 182.17 338.497 175.555C338.982 174.113 340.386 173.069 341.266 171.882C342.366 169.739 342.8 166.689 341.676 164.444C340.93 163.303 339.856 162.06 338.612 161.485C339.909 156.691 345.655 144.272 346.678 139.564C353.493 138.738 359.745 135.083 360.782 127.764ZM104.688 29.5798L104.101 29.4548C104.079 29.4667 104.945 29.5457 104.688 29.5798ZM108.64 185.047C108.679 184.983 107.846 184.308 107.822 184.262C107.882 184.376 109.325 185.468 108.64 185.047ZM171.428 65.4957C173.602 66.1886 175.025 65.7575 171.939 66.9055C171.144 67.5123 171.227 66.0212 171.002 65.6479C170.548 65.0332 171.177 65.5125 171.428 65.4957ZM125.369 164.902C125.49 164.94 125.806 165.265 125.894 165.349L125.369 164.902ZM124.884 189.703C123.428 189.138 123.307 189.101 124.877 189.663C125.005 189.741 124.585 189.383 124.602 189.389C124.8 189.545 125.948 189.939 124.884 189.703ZM146.976 156.964C145.319 160.109 143.506 163.51 141.583 166.535C138.285 166.043 135.701 166.551 132.612 164.835C130.572 164.202 127.686 163.725 125.547 163.839C129.25 162.105 135.055 159.278 138.403 156.979C142.821 154.348 146.008 154.217 146.309 148.414C146.427 148.28 146.314 148.093 146.181 148.033C146.037 148.254 143.879 146.409 143.758 146.372C147.616 143.037 145.655 144.533 149.24 146.725C150.045 147.127 151.719 147.475 152.607 147.485C152.851 147.371 146.914 156.982 146.976 156.964ZM214.302 79.8871L213.605 80.5434C213.96 80.2552 215.043 78.6571 214.302 79.8871ZM216.007 88.5118L216.054 88.2989C216.049 88.3162 216.042 88.5225 216.007 88.5118ZM247.218 97.9034L247.365 97.5508C247.337 97.5801 247.311 97.9701 247.218 97.9034ZM308.257 147.865C307.22 147.847 308.579 147.377 308.66 147.117C309.299 147.259 308.334 147.68 308.257 147.865ZM329.579 168.183L329.761 167.595C329.741 167.721 329.773 168.168 329.579 168.183ZM330.214 167.906C329.834 167.542 330.438 166.572 330.568 166.215C330.542 166.605 330.309 167.538 330.214 167.906ZM336.79 160.635C333.834 159.472 331.965 161.585 333.839 158.355C334.571 156.667 335.604 154.617 336.388 152.945C336.768 153.31 337.396 153.485 337.922 153.44C338.201 153.394 338.628 153.242 338.836 153.06C338.685 152.994 337.172 161.361 336.79 160.635Z" fill="#FFD766"/>
<path d="M361.863 134.242C361.665 135.432 361.48 136.152 360.497 136.814C360.356 137.453 359.344 137.291 359.411 136.648C358.496 136.175 358.374 134.981 358.474 134.045C358.51 132.217 359.692 130.668 360.079 128.93C361.087 126.228 361.736 121.689 364.688 120.727C365.617 121.584 365.444 123.73 364.891 124.904C364.359 126.863 363.682 129.232 363.099 131.174C362.95 132.266 362.012 133.151 361.863 134.242ZM356.975 139.799C356.337 140.265 355.537 140.585 354.727 140.505C352.575 141.089 350.442 139.897 348.378 139.523C348.277 139.605 345.863 138.648 346.718 139.312L347.135 140.047C347.066 140.576 347.157 141.382 347.356 141.841C346.948 146.152 345.301 150.609 344.308 154.851L344.119 155.399L341.586 159.904C341.91 160.08 342.774 160.841 342.947 161.198C343.88 162.227 344.131 163.31 345.051 164.012C345.136 163.981 345.194 163.734 345.287 163.801C345.345 163.799 345.351 163.839 345.335 163.891C345.748 165.801 345.903 168.296 344.783 170.015C343.648 172.45 342.833 178.872 341.602 181.069C341.461 182.257 340.239 183.263 339.448 184.041C339.023 182.905 338.415 181.503 338.407 180.306C338.826 177.61 340.884 171.461 341.875 168.753C342.319 168.056 342.562 167.089 343.04 166.403C343.197 165.959 345.076 164.664 343.869 164.461C343.952 165.112 343.044 164.982 342.82 164.666C342.276 164.403 341.198 163.784 340.761 163.421C339.833 162.622 340.026 162.795 338.987 162.416C338.212 162.043 337.415 161.493 336.612 161.149C335.162 161.667 334.694 161.161 333.152 161.365C331.591 160.958 329.821 160.674 328.224 160.445C326.933 159.779 325.283 159.476 323.847 159.277C321.615 159.078 319.354 158.605 317.231 157.871C316.12 158.152 314.875 157.766 313.907 157.219C311.757 156.875 309.526 156.184 307.372 155.857C302.75 155.05 298.197 153.961 293.68 152.693C291.83 152.423 289.967 151.769 288.128 151.768C287.009 151.402 285.44 150.594 284.237 150.562C282.853 150.379 280.909 149.739 279.611 149.279C277.924 149.401 275.3 148.019 273.739 147.554C272.119 147.886 261.803 144.289 260.223 143.762C258.873 142.793 256.674 142.794 255.166 142.156C252.407 140.599 249.038 139.725 246.406 137.942C245.268 136.907 243.669 136.316 242.304 135.704C240.848 134.835 239.351 133.613 237.762 132.987C236.753 132.636 235.753 131.644 235.049 130.857C233.395 130.382 231.256 128.904 229.822 127.966C229.378 127.563 228.71 126.844 228.244 126.453C228.241 126.338 227.559 130.374 227.578 130.494C226.926 132.965 226.641 136.024 224.973 138.104C223.815 138.599 228.71 139.623 229.085 139.455C233.307 140.631 241.216 142.761 245.545 144.084C252.274 147.08 259.722 149.105 266.649 151.65C269.939 153.144 273.785 154.128 277.183 155.276C280.291 156.562 283.506 157.995 286.511 159.552C288.612 160.602 290.942 161.647 293.177 162.264C296.155 163.85 299.215 165.596 302.048 167.403C302.839 167.971 303.761 168.484 304.029 169.515C304.287 170.088 304.782 170.753 304.739 171.688C304.76 172.169 304.389 172.755 304.307 173.203C304.104 174.164 304.168 175.303 303.405 176.052C302.347 177.203 300.57 177.676 299.052 177.433C299.116 177.472 299.279 177.56 299.124 177.569C298.471 177.841 297.212 177.867 296.552 177.796C293.715 177.712 290.64 177.48 287.889 177.12C286.834 176.793 285.652 176.388 284.543 176.48C282.898 176.16 281.097 175.488 279.425 175.254C277.596 174.858 275.504 174.512 273.684 174.024C273.091 173.916 271.933 173.007 271.37 173.231C270.071 173.264 268.609 172.659 267.453 172.168C266.058 171.717 263.389 171.155 262.01 170.708C241.038 165.041 218.502 158.244 198.939 149.069C197.825 148.933 196.912 148.024 195.975 147.563C195.093 147.289 194.007 146.573 193.224 146.103C192.579 145.979 191.915 145.432 191.292 145.239C191.257 145.171 190.509 145.015 190.632 144.863C190.925 144.651 191.81 144.793 192.178 144.888C192.023 144.84 191.391 144.492 191.154 144.4C189.375 143.412 187.266 142.512 185.345 141.859C184.235 141.344 182.903 140.685 182.375 139.516C181.948 139.365 181.399 138.873 181.112 138.575C181.116 138.501 181.155 138.437 181.236 138.481C182.301 138.716 183.617 138.935 184.43 139.736C188.696 140.528 192.93 142.77 196.902 144.57C199.348 145.916 202.845 146.924 204.944 148.656C204.798 148.819 206.439 149.214 206.698 149.541C221.85 155.698 240.051 160.886 255.909 165.442C260.454 166.984 265.744 167.714 270.224 169.406C270.8 169.812 271.679 169.667 272.344 169.722C273.103 169.843 274.271 170.357 274.937 170.715C277.198 171.189 279.629 171.601 281.879 172.109C283.713 172.735 285.74 172.984 287.614 173.299C288.63 173.937 289.383 173.525 290.552 173.85C292.405 174.538 294.898 174.079 296.847 174.398C297.548 174.521 298.613 174.263 299.245 174.061C299.789 174.078 300.463 174.23 300.944 173.962C301.443 173.453 301.513 171.882 301.823 171.125C301.521 171.733 301.345 170.712 301.207 170.422C301.047 170.145 301.103 170.087 301.191 170.474C301.144 170.441 300.836 170.213 300.79 170.179C299.119 168.903 297.07 167.869 295.278 166.802C293.701 165.896 291.882 164.668 290.001 164.559C286.19 162.79 282.049 161.165 278.365 159.169C269.891 156.05 261.245 152.876 252.602 150.121C247.259 148.521 239.278 145.099 233.711 144.037C216.862 139.439 199.452 135.122 181.976 133.098C179.606 132.61 176.389 132.959 174.085 132.32C174.836 133.198 176.539 134.37 177.35 135.361C178.398 135.895 180.026 136.759 179.819 138.098C177.006 138.307 174.547 136.028 172.439 134.388C172.179 137 170.886 139.766 170.097 142.308C168.955 144.343 168.45 146.765 167.764 148.979C168.26 149.152 168.842 150.148 168.852 150.606C167.158 150.934 167.315 151.589 167.187 153.162C166.883 155.001 166.205 157.066 164.853 158.429C164.769 158.517 164.653 158.462 164.651 158.348C163.632 156.742 163.603 154.572 164.064 152.781C163.861 151.296 164.668 151.262 162.985 151.309C160.082 150.826 157.108 151.8 154.23 151.97C152.59 151.878 150.759 152.221 149.137 152.135C149.107 152.353 150.408 152.681 150.613 153.18C156.548 157.883 163.808 160.76 170.644 163.903C171.743 164.149 173.605 164.992 174.668 165.416C172.268 163.8 169.739 161.745 167.612 159.74C167.101 159.676 167.345 157.666 167.197 157.412C167.773 157.325 169.41 157.548 170.021 157.718C172.523 159.309 175.351 161.134 177.635 162.999C180.644 164.482 183.958 166.514 187.034 167.903C188.526 168.593 191.887 170.47 193.501 170.705C196.607 172.672 200.177 174.12 203.681 175.169C216.548 180.504 230.727 183.137 244.084 186.709C254.367 190.655 264.204 192.434 274.764 195.67C278.184 196.503 282.534 196.107 285.979 197.1C289.018 197.511 292.91 197.125 295.852 197.847C297.059 197.501 298.418 198.434 299.624 198.581C300.129 198.908 300.33 199.178 300.673 199.721C300.521 199.845 301.316 199.788 301.306 199.822C301.055 198 300.869 195.421 301.733 193.736C302.874 190.298 306.841 178.786 307.755 175.41C309.688 171.99 311.271 174.282 309.232 174.56C310.541 175.534 310.587 176.61 310.344 178.128C310.385 178.728 309.27 180.43 310.486 179.992C312.639 179.958 314.664 181.192 316.796 180.981C321.461 181.707 326.715 182.615 331.337 183.423C330.778 183.268 332.146 183.199 332.259 183.14C333.255 183.107 333.99 183.487 335.063 183.573C336.3 183.312 337.593 183.788 338.788 183.969C339.547 184.394 339.412 184.769 339.198 185.461C338.718 185.54 338.335 186.104 337.897 186.234C334.425 187.527 335.496 186.456 335.49 191.062C334.748 196.084 333.608 200.433 330.093 204.31C329.496 204.77 330.165 201.451 329.323 203.067C328.803 203.948 327.765 204.726 326.697 204.566C325.785 204.757 324.077 205.251 323.182 205.448C321.486 205.719 319.563 205.502 317.921 205.049C315.544 205.014 312.694 205.401 310.359 204.677C308.947 204.22 305.383 204.158 303.917 203.628C302.837 203.444 299.892 202.058 298.937 201.591C298.866 201.455 298.538 200.86 298.338 201.14C294.236 201.1 289.486 200.955 285.177 200.605C284.054 200.56 280.402 199.068 280.47 200.625C279.166 204.524 278.108 209.771 276.976 213.667C276.628 214.545 276.415 215.598 276.384 216.555C277.703 216.888 281.384 217.669 282.618 217.786C286.717 219.057 291.253 219.591 295.423 220.448C298.2 220.417 301.168 220.996 303.969 220.765C307.965 220.411 312.047 219.78 316.009 220.269C319.143 220.065 317.025 220.66 318.477 217.261C319.273 214.816 319.899 212.185 320.16 209.63C320.591 208.361 321.446 207.071 322.207 205.961C322.221 205.795 322.509 205.846 322.628 205.826C322.661 205.722 322.686 205.579 322.782 205.514C322.805 205.502 323.358 205.673 323.374 205.621C323.42 205.597 323.448 205.568 323.494 205.602C323.554 205.715 323.541 206.185 323.579 206.367C324.536 204.749 323.769 208.019 323.756 208.489C322.992 213.03 322.679 218.014 319.811 221.884C319.731 222.144 319.267 222.417 319.186 222.676C319.229 222.784 318.271 222.999 318.255 223.051C318.183 222.915 317.856 222.321 317.649 222.56C317.561 222.722 316.725 222.482 317.364 222.87C316.897 223.029 316.342 223.292 315.857 223.389C314.658 223.586 313.394 223.137 312.291 223.212C303.965 225.485 295.217 224.536 286.886 222.731C286.022 222.766 283.648 221.556 283 221.753C283.187 221.944 284.211 222.186 284.56 222.161C284.702 222.072 284.828 222.642 284.892 222.681C284.948 222.623 285.048 222.483 285.064 222.431C285.138 222.378 285.236 222.428 285.227 222.519C287.756 226.527 286.345 232.119 285.124 236.424L280.683 245.001C280.953 239.301 283.273 231.754 283.521 226.124C283.575 225.401 283.918 224.541 284.127 223.866C282.727 224.039 281.037 224.539 279.58 224.713C277.818 224.527 276.121 225.29 274.375 224.748C273.2 224.441 271.786 225.027 270.537 224.469C267.396 223.779 263.707 223.754 260.547 223.306C255.375 222.442 249.558 220.657 244.395 219.948C242.44 219.892 240.482 218.81 238.547 218.571C236.307 218.028 234.059 217.577 231.807 217.259C229.341 216.285 226.521 216.208 224.039 215.287C222.63 214.451 220.73 214.772 219.32 213.937C216.574 213.257 213.502 213.138 210.914 211.824C207.821 211.529 204.693 210.123 201.655 209.466C193.576 207.947 185.371 205.062 177.85 201.744C170.653 198.849 163.027 194.893 156.673 190.439C153.8 188.638 150.102 187.055 147.56 184.675C147.287 184.211 145.63 183.318 145.414 182.853C145.344 183.324 145.593 183.743 145.038 184.007C146.154 183.708 145.337 184.877 145.426 185.568C145.515 187.113 145.058 188.772 144.331 190.139C144.408 191.907 143.494 196.63 143.036 198.289C142.953 198.434 142.871 198.882 142.766 199.039C142.783 199.045 143.038 198.65 142.98 198.897C143.225 200.187 143.028 201.68 142.768 202.946C142.373 203.487 141.952 204.172 141.701 204.796C141.697 204.87 141.629 204.906 141.565 204.867C140.165 203.883 139.472 202.019 139.493 200.3C139.317 199.278 139 198.099 139.512 197.121C140.415 194.025 140.597 189.342 141.882 186.479C142.041 184.746 142.583 182.506 144.388 182.004C142.654 180.443 140.009 178.276 140.925 175.811C145.125 177.303 148.333 181.141 152.082 183.479C155.983 185.94 160.58 188.294 164.209 191.202C173.614 195.843 183.559 200.879 193.67 203.975C198.261 205.247 203.131 206.112 207.659 207.649C208.87 208.328 210.554 208.338 211.885 208.693C213.324 209.31 215.007 209.813 216.526 210.17C218.12 210.228 219.975 210.481 221.395 211.281C222.669 211.392 224.127 211.579 225.269 212.236C227.663 213.016 230.322 213.12 232.679 214.078C235.296 214.321 237.901 215.09 240.478 215.643C245.304 216.343 251.119 217.52 255.835 218.754C258.323 218.862 261.047 219.005 263.395 219.809C264.61 218.763 266.76 220.264 268.2 220.085C269.174 220.368 270.351 220.543 271.364 220.762C270.487 221.268 271.903 221.043 272.305 221.395C273.747 220.781 275.379 221.875 276.734 221.479C277.415 221.178 278.358 221.376 279.085 221.355C277.928 220.807 275.815 219.734 274.655 219.868C274.793 220.157 273.974 220.415 273.92 220.588C273.911 220.68 273.786 220.717 273.716 220.695C273.659 220.697 273.566 220.63 273.57 220.555C273.432 220.512 273.06 220.795 272.998 220.567C273.014 220.516 273.03 220.464 273.093 220.445L273.567 220.384C273.458 220.122 273.564 219.719 273.318 219.472C272.415 219.268 271.325 218.93 270.449 218.64C269.743 218.042 269.069 217.036 268.606 216.267C269.363 216.331 270.308 216.036 271.058 216.003C271.587 216.129 272.225 215.967 272.71 215.871C273.215 216.994 272.93 213.816 273.332 213.314C274.201 210.816 274.957 207.523 275.584 204.95L277.415 199.715C276.784 199.672 275.899 199.53 275.291 199.474C271.232 198.443 267.071 197.248 263.049 196.096C256.419 194.799 249.053 192.079 242.271 190.659C241.298 190.434 240.252 189.957 239.29 189.697C238.398 189.762 237.201 189.524 236.345 189.353C232.747 188.484 228.824 187.685 225.386 186.24C216.643 185.027 207.991 180.468 199.447 178.065C182.75 172.548 165.298 167.023 150.621 157.07C149.05 155.35 146.308 153.249 146.667 150.744C146.985 150.577 147.208 150.039 147.649 150.024C147.768 149.947 148.014 149.398 148.205 149.514C148.382 149.493 149.044 149.622 148.851 149.202C149.057 149.152 149.461 149.069 149.684 149.024C151.638 148.53 153.973 148.704 155.918 148.36C154.886 148.021 153.673 147.284 152.596 146.969C149.395 146.167 149.642 143.229 147.728 145.915C145.441 147.974 142.745 150.248 140.996 152.834C140.045 153.639 138.962 154.441 138.198 155.437C136.425 157.181 133.935 158.305 132.097 159.954C131.841 160.291 136.244 161.069 136.941 161.512C138.648 161.814 140.359 163.387 140.421 160.619C141.064 158.79 141.507 156.69 142.664 155.096C143.142 154.106 143.63 152.286 145.009 152.486C145.59 152.078 145.289 154.089 145.398 154.351C145.903 155.778 145.527 157.235 144.688 158.473C144.382 160.255 143.5 162.427 143.412 164.239C143.278 166.018 142.079 167.807 142.042 169.578C141.909 170.618 141.554 172.252 141.478 173.29C140.21 174.812 140.079 174.809 138.877 173.242C138.212 170.496 138.498 167.494 139.554 164.882C137.251 165.097 134.291 164.312 132.137 163.493C128.888 162.049 129.991 160.571 126.627 163.472C122.326 166.215 117.571 168.286 113.173 170.791C110.353 171.756 107.54 173.064 104.726 174.069C104.244 174.28 103.953 174.36 103.385 174.544C103.551 174.558 104.161 174.974 103.846 174.403C108.43 177.227 114.378 179.318 119.452 181.175C121.188 182.054 123.458 182.682 125.34 183.095C127.592 183.717 130.347 185.103 132.69 185.374C135.223 186.007 138.568 186.286 140.546 188.037C139.652 188.537 137.666 189.135 136.607 188.882C133.616 188.562 130.375 188.562 127.533 187.453C124.165 186.333 120.253 185.5 117.053 183.958C112.007 182.014 105.608 180.03 101.65 176.471C101.381 174.587 100.074 176.172 98.8452 176.284C97.9831 176.681 96.9758 176.444 96.0784 176.526C95.4028 176.81 93.8327 177.043 93.2091 177.343C89.7619 178.189 85.8794 178.483 82.3648 179.119C80.3577 179.54 78.0492 178.976 76.0206 179.466C74.2455 179.75 72.2865 179.465 70.6023 178.904C69.523 178.778 67.9685 179.207 67.0809 178.401C66.2978 177.93 63.5952 177.415 62.6319 176.547C61.888 175.217 57.9337 174.825 56.6836 174.21C53.292 172.798 49.4104 172.05 46.2488 170.141C42.6478 168.304 39.4067 165.612 36.2999 163.037C31.3576 158.433 28.626 156.544 27.4579 149.488C29.3166 151.809 30.9817 154.999 33.5314 156.68C35.944 158.926 38.6251 161.407 41.3514 163.314C43.8104 165.043 46.4156 166.913 49.1351 168.23C51.7789 169.485 54.967 170.208 57.6496 171.4C62.5493 172.9 67.6234 175.061 72.6582 175.636C74.6006 176.219 77.0548 175.274 79.0579 175.478C83.2751 175.572 87.6124 174.3 91.7961 173.89C92.8372 173.284 94.7853 173.054 95.9415 172.749C96.313 172.712 96.9719 172.727 97.3899 172.724C97.4126 172.712 98.1443 172.92 97.8121 172.646C102.043 171.227 106.22 169.128 110.505 167.84C113.948 165.969 117.656 164.16 121.116 162.294C122.923 161.357 124.9 160.055 126.524 158.852C127.118 158.524 128.032 158.39 128.538 157.921C130.684 156.255 133.087 154.743 135.264 153.162C136.069 152.217 137.108 151.25 138.107 150.536C139.818 148.563 142 146.111 144.077 144.423C147.829 141.188 150.974 137.157 153.166 132.717C153.978 131.566 154.215 130.066 155.336 129.143C155.56 128.113 156.073 126.888 156.621 125.977C159.737 121.122 160.476 114.886 160.833 109.27C161.27 106.088 161.03 102.582 161.283 99.38C160.689 98.3616 160.696 97.0554 160.597 95.9062C160.435 94.4719 160.238 92.9696 159.62 91.6595C159.347 90.3994 159.09 89.0874 158.545 87.9132C158.538 87.0771 158.606 86.1878 159.189 85.5912C159.251 85.5727 159.315 85.6114 159.333 85.674C159.534 85.9447 159.956 86.1134 160.095 86.4598C160.447 86.8534 160.657 87.5821 161.26 87.6552C161.687 88.3565 162.163 89.2056 162.477 89.9665C162.508 90.109 162.548 90.3488 162.579 90.4913C162.689 90.2599 163.442 90.6449 163.53 90.4826C163.91 90.6006 164.755 90.9951 165.167 91.0093C168.057 92.2655 170.964 94.0197 173.969 95.0272C176.605 95.0859 180.452 95.8236 182.967 96.6982C185.241 97.4978 187.93 97.3836 190.163 98.436C193.823 99.5328 197.763 99.7873 201.546 100.24C203.232 100.611 205.079 101.013 206.826 101.004C208.094 101.132 209.877 101.742 211.143 101.509C213.397 102.188 216.463 102.267 218.86 102.176C224.217 102.263 222.506 103.685 222.377 100.251C222.654 97.6447 223.78 95.1119 224.564 92.6437C225.253 90.7904 225.674 88.5132 227.058 87.0462C227.039 86.68 227.276 86.526 227.516 86.2402L226.087 85.8352C225.16 85.8319 224.065 85.2651 223.167 85.0436C220.413 84.2656 217.685 83.3439 214.854 82.9972C214.167 82.7654 213.257 82.5212 212.567 82.364C212.023 82.1006 211.539 81.7041 210.905 81.792C209.377 81.2802 207.5 81.3429 205.92 81.1186C205.175 81.0771 204.362 80.8251 203.69 80.4842C203.926 81.0692 200.049 80 199.358 80.0891C198.135 79.6911 197.672 79.1682 196.654 79.27C195.501 78.8934 194.159 78.8188 192.998 78.5913C192.56 78.4746 191.608 77.8761 191.216 77.7355C192.692 78.4775 189.787 77.8803 189.349 77.7636C189.1 77.6486 187.69 76.7562 188.475 77.341C186.112 77.1391 182.162 75.6303 179.866 74.8427C178.743 73.698 174.951 73.1482 173.457 72.6471C169.598 70.7871 160.902 68.8118 156.726 67.1189C155.315 66.4728 153.606 66.3601 152.167 65.7433C151.611 65.4573 150.572 65.0783 150.024 64.8894C151.147 66.8303 152.503 68.9382 153.036 71.1322C153.421 72.8253 154.297 74.7084 153.847 76.465C154.813 77.4469 153.731 79.6523 152.94 80.4308C152.025 79.4077 151.97 77.8738 151.294 76.7539C151.191 75.6793 151.028 74.4913 150.323 73.647C148.881 69.6164 146.269 65.811 143.565 62.4887C140.61 59.5441 136.998 56.642 133.841 54.1084C130.443 52.4104 127.086 49.9096 123.229 49.5102C118.533 47.9027 113.562 47.1201 108.613 47.6145C106.501 47.3957 104.201 47.2325 102.154 47.9632C98.8663 47.9298 95.4281 48.9306 92.2977 49.8561C85.1834 51.708 78.1815 54.5428 71.6258 57.8951C65.0325 61.3685 58.1532 65.3978 52.6575 70.406C51.229 71.6506 49.3808 73.0874 48.3257 74.6563C46.2324 76.1498 44.3092 78.3787 42.9626 80.5209C40.8234 82.2846 39.4955 85.0393 37.6486 87.0832C34.5857 91.215 31.5379 95.7875 29.6755 100.633C28.6754 102.636 27.8971 104.841 27.3932 107.016C26.9855 107.781 26.3447 108.625 26.4039 109.535C25.5903 110.875 25.0272 112.691 24.5088 114.18C24.9073 115.157 23.8809 117 23.9236 118.208C23.3302 120.489 23.0916 124.927 22.6989 126.133C23.0224 127.352 23.1521 128.89 22.8179 130.151C23.5313 133.293 24.0992 136.597 25.4613 139.541C26.5465 141.299 27.3979 143.384 28.9136 144.915C29.3872 145.65 30.2938 146.272 30.5301 147.161C30.9692 147.885 32.1245 148.622 32.5796 149.294C32.9274 149.762 33.2866 150.499 33.4531 151.063L33.4232 150.731C33.4989 150.792 33.9427 151.195 33.9958 151.269C34.9801 152.863 36.5499 153.976 37.877 155.259C38.7132 155.803 39.4182 156.647 39.9742 157.483C39.7785 156.892 40.5491 157.586 40.8658 157.665C41.1127 157.969 42.0914 158.481 42.2984 158.791C45.4574 160.036 49.6761 161.287 53.0538 161.766C53.4861 161.9 54.2602 162.215 54.6366 162.408C54.0569 162.077 55.079 162.204 55.1815 162.179C58.0142 162.886 61.0413 163.578 63.9652 163.992C66.0966 164.577 68.3437 165.216 70.5495 165.256C72.5764 165.505 75.0811 165.864 77.1318 165.609C77.1145 165.604 78.5868 165.624 77.7269 165.585C77.8348 165.542 79.1854 165.222 79.288 165.197C80.1615 165.069 81.6285 165.107 82.4741 165.009C84.3499 164.339 86.4644 164.122 88.397 163.698C89.6098 163.088 91.475 163.002 92.7182 162.478C94.4993 161.93 96.4985 160.862 98.3721 160.628C99.3439 160 100.478 159.461 101.553 159.111C101.873 159.059 101.998 158.776 102.212 158.576C102.588 158.219 103.215 158.091 103.663 157.87C105.594 157.084 107.044 155.524 108.898 154.62C110.137 154.17 110.08 154.171 110.928 153.391C111.855 152.787 113.056 152.458 113.672 151.511C115.356 149.872 117.447 149.117 119.08 147.519C119.733 146.944 120.881 146.295 121.605 145.856L121.299 145.988L121.488 145.744C122.091 144.963 123.112 144.237 123.913 143.67C125.515 142.479 126.814 140.797 127.971 139.203C128.385 138.724 129.332 138.297 129.782 137.887C129.69 137.877 129.449 138.106 129.57 137.897C130.386 136.121 132.601 134.969 133.479 133.421C134.733 131.515 136.427 129.784 137.651 127.851C139.039 126.005 139.986 123.683 141.298 121.776C142.1 120.717 142.942 119.101 143.582 117.953C144.937 116.212 146.532 113.881 146.996 111.712C148.204 109.223 149.659 106.546 149.864 103.746C150.631 99.6802 152.247 95.6306 152.86 91.5736C152.895 90.2382 152.944 88.4901 153.41 87.2315C152.809 86.1731 153.078 83.7158 153.745 82.4816C153.713 82.0355 154.422 82.009 154.673 81.935C154.724 81.8938 154.77 81.9272 154.822 81.9433C154.954 83.046 155.841 84.3447 156.019 85.4808C156.452 86.7146 156.813 88.116 156.238 89.3597C156.437 93.0616 155.33 96.814 154.224 100.32C153.708 102.17 153.09 104.102 152.97 106.017C152.494 107.614 151.81 109.393 151.247 110.963C150.22 112.502 149.729 114.758 148.79 116.382C147.741 118.237 146.007 120.221 145.137 122.17C142.963 125.269 141.488 128.926 139.006 131.797C138.394 132.669 137.741 133.737 136.89 134.402C136.179 135.718 135.251 137.061 133.945 137.85C132.683 139.108 131.898 141.027 130.161 141.739C129.592 143.023 128.304 144.122 127.416 145.212C126.015 146.37 124.428 147.451 123.295 148.844C121.923 149.538 120.677 150.744 119.483 151.663C117.694 152.417 116.191 153.904 114.769 155.188C113.822 155.919 112.659 156.184 111.901 157.162C111.047 157.656 109.168 158.211 108.996 158.707C107.608 160.003 105.559 160.865 103.82 161.521C104.634 161.28 103.367 162.006 103.227 162.152C102.588 162.561 101.632 162.587 101.052 163.052C99.9359 163.9 98.2496 164.325 96.9163 164.651C95.8443 165.419 93.1896 166.094 91.9786 166.514C90.4819 166.695 89.1665 167.33 87.6364 167.557C86.5786 167.912 85.2291 167.74 84.5906 168.149C83.2943 168.6 81.8256 168.751 80.4558 168.706C77.9985 169.234 75.4421 169.408 72.8666 169.216C71.4705 169.011 69.9242 168.74 68.493 168.77C67.858 168.801 66.7797 168.182 66.2842 168.313C63.4276 167.56 60.4638 167.153 57.5738 166.447C56.1761 166.431 55.0225 165.504 53.6201 165.809C51.8512 165.033 49.9358 164.913 48.0531 164.443C45.6747 163.554 40.9344 162.824 39.1587 160.909C38.7084 160.466 38.1615 160.334 37.5991 160.008C37.0832 159.715 36.829 159.068 36.4252 158.658C34.5101 157.192 32.4822 155.54 31.23 153.464C30.509 153.222 30.1885 152.421 29.9344 151.773C29.2406 150.648 27.9082 149.931 27.3092 148.684C26.6261 147.524 25.5286 146.539 24.7376 145.422C23.3829 143.371 22.2935 141.138 21.3412 138.889C20.2219 136.324 20.0578 133.429 19.2515 130.771C18.8512 129.983 19.7054 128.94 19.413 128.11C19.2626 127.495 18.9785 126.515 19.0213 125.827C19.5884 123.386 19.4751 121 20.0242 118.251C20.6314 116.353 20.6547 114.199 21.2047 112.303C21.753 111.145 21.9278 109.114 22.9736 108.187C22.6909 108.365 23.2142 107.105 23.1557 107.049C23.2362 106.789 23.5062 106.285 23.6505 106.065C25.1478 101.296 27.4543 96.0573 30.0216 91.5064C32.1448 87.8986 34.9956 84.5732 37.3633 81.155C37.9957 79.9101 39.4271 78.5337 40.4621 77.6411C40.9305 76.497 41.8474 75.4351 42.688 74.5581C44.2537 73.2991 45.9509 71.4932 47.2601 70.022C49.7635 67.8782 52.4589 65.6044 54.8747 63.3765C66.0109 55.8889 78.2101 49.3755 91.2168 46.1271C92.1589 45.7176 94.336 45.4825 95.0252 45.0326C94.3525 44.6344 93.353 44.4952 92.7363 44.0385C92.3737 43.6796 91.8265 42.4482 91.6035 42.1895C90.682 36.7845 91.8525 36.6165 92.5395 31.7102C93.014 28.4066 94.4843 25.0703 96.588 22.4424C96.6309 22.304 96.8385 22.3684 96.7956 22.5068C96.8123 25.2043 96.0373 28.3769 95.5949 31.0269C95.1826 32.6624 95.3167 34.6758 94.6224 36.2428C94.0835 37.3082 94.0815 38.8434 93.5427 39.9087C93.6024 40.022 92.9752 40.6998 92.9365 40.7636C93.0373 40.9276 93.7393 41.3538 93.8842 41.4366C94.0201 41.365 95.3782 42.4876 94.4805 41.4698C94.6177 41.4554 95.622 41.8237 95.7418 41.8039C97.2191 42.6032 99.0999 42.7123 100.621 43.4305C101.897 43.9018 103.435 43.5255 104.748 43.5722C106.656 43.3484 108.984 43.7287 110.894 43.6195C116.05 43.1323 120.985 44.9466 125.942 45.8956C128.325 46.4637 130.526 47.9236 132.662 48.9838C134.718 49.8109 136.695 51.2011 138.312 52.6504C140.431 54.3125 142.939 56.436 144.885 58.2907C145.964 59.213 146.879 60.786 148.129 61.4011C148.814 61.8219 151.436 62.047 152.185 62.2603C152.941 62.5135 153.993 62.9724 154.797 63.0699C166.089 66.2675 177.349 70.3651 188.227 73.9839C189.222 73.6478 190.215 74.297 191.033 74.778C191.643 74.6448 192.292 74.4477 192.889 74.7845C193.698 75.4146 194.686 75.5312 195.661 75.6251C196.289 75.8008 197.271 76.181 197.918 76.173C198.799 76.1429 199.675 76.9262 200.497 77.0864C201.036 76.8172 202.649 77.2986 203.415 77.4599C204.129 77.4161 204.916 77.5083 205.542 77.8731C206.171 78.1061 206.936 77.9639 207.57 78.1795C208.921 78.4087 210.568 78.2936 211.791 78.9952C212.605 78.4509 214.343 79.6915 215.122 79.6864C215.603 80.2147 217.508 80.1228 218.478 80.234C220.95 80.9434 223.896 81.8376 226.39 82.5351C227.405 82.8688 229.967 83.2269 230.668 84.1458C231.37 85.1218 230.665 86.7234 229.422 86.6982C230.065 87.8646 229.109 89.2367 228.748 90.3383C227.998 93.3099 226.745 96.3723 226.091 99.3361C225.837 100.831 226.046 102.906 224.434 103.581C224.516 103.683 224.439 103.81 224.366 103.863C224.29 103.802 224.125 104.699 224.108 104.694C223.442 104.885 222.761 105.736 221.939 105.576C221.541 105.699 218.871 105.383 219.948 105.945C220.395 107.316 215.969 120.676 216.148 122.115C215.879 122.923 215.652 124.388 214.876 124.811C214.994 124.981 214.722 125.37 214.632 125.475L215.292 125.244C216.752 125.241 218.49 124.832 219.571 126.115C221.822 126.377 221.187 128.304 222.356 128.628C222.895 128.909 223.551 129.359 223.956 129.826C224.435 128.894 225.662 125.975 226.38 125.249C226.419 125.186 225.17 122.732 225.691 123.007C229.27 122.96 231.18 124.993 234.086 126.501C235.846 127.369 237.754 128.245 239.097 129.723C240.443 130.027 241.955 131.083 243.083 131.907C244.172 132.737 245.731 133.088 246.874 133.803C248.117 134.624 249.471 135.821 250.975 136.23C253.867 137.297 256.569 139.159 259.662 139.701C262.65 141.006 271.259 144.055 274.561 144.168C278.892 145.852 283.415 146.61 287.957 147.98C289.175 148.699 289.084 148.197 290.55 148.481C292.887 149.015 295.308 149.52 297.634 150.089C302.385 151.581 307.425 152.138 312.24 153.423C313.709 153.821 315.329 154.039 316.706 154.731C316.4 154.314 318.59 154.709 318.897 154.88C321.684 155.857 324.727 155.948 327.568 156.752C327.937 156.905 329.147 157.223 329.388 157.544C330.458 157.459 331.602 157.681 332.622 157.997C335.084 157.149 338.072 158.151 340.269 159.382C340.256 154.96 342.025 150.048 343.047 145.833C343.191 144.513 344.072 143.079 344.096 141.779C344.374 141.125 344.207 140.258 344.913 139.814C345.062 139.518 345.109 139.059 345.456 138.92C336.887 138.065 328.247 136.277 320.073 133.478C315.713 132.316 309.202 130.999 305.016 129.151C301.388 128.197 297.552 127.179 294.1 125.596C283.127 122.1 271.969 118.47 261.463 113.772C258.202 112.002 254.341 111.185 251.262 109.073C250.054 108.32 248.332 108.127 247.498 106.845C246.288 106.527 245.506 105.564 245.043 104.491C245.168 103.658 244.458 102.584 244.887 101.75C245.05 99.3927 245.296 96.7011 246.253 94.5328C247.205 92.4391 247.283 89.8655 248.605 87.9243C248.919 87.3392 248.957 86.4219 249.452 85.9875C250.199 85.2901 251.368 84.7612 252.401 84.6076C253.433 84.3967 254.442 85.2403 255.288 84.6495C259.141 84.2701 263.172 84.7804 266.951 85.5538C272.324 86.1388 278.024 87.0148 283.152 88.7563C287.758 89.6153 292.73 90.7587 297.075 92.5798C303.422 93.6941 310.802 96.608 316.751 98.945C318.701 98.8292 320.36 100.386 322.163 100.87C328.886 102.726 335.099 106.226 341.778 108.164C344.543 109.457 347.623 110.469 350.188 112.099C352.342 112.672 354.448 113.647 356.283 114.879C357.255 115.598 358.733 115.601 359.726 116.25C360.14 116.625 360.823 116.685 361.291 116.887C361.974 117.497 362.702 117.779 363.475 118.341C364.141 118.946 363.737 119.882 363.782 120.655C362.946 120.965 362.585 120.417 361.836 120.203L361.543 119.866L361.134 120.023C360.998 120.095 360.604 119.897 360.489 119.842C359.783 119.244 359.032 118.917 358.293 118.365C357.838 117.997 357.38 117.703 356.755 117.699C356.243 117.578 355.41 116.903 354.864 116.828C353.018 115.63 350.711 115.181 348.668 114.433C347.627 113.694 346.235 113.11 345.024 112.735C343.013 111.884 340.941 110.559 338.784 110.118C334.9 108.705 330.969 107.012 327.101 105.548C324.975 104.642 322.499 104.007 320.301 103.269C318.926 102.691 317.525 101.707 316.071 101.749C311.432 99.8367 304.644 97.6377 299.792 96.2283C297.025 95.6167 293.19 94.6555 290.538 93.5489C286.41 92.8 281.996 91.8109 277.966 90.5044C274.421 89.4625 270.07 89.2511 266.438 88.675C263.9 88.0586 261.161 87.7214 258.569 87.5815C258.356 87.5345 257.256 87.5349 258.268 87.6968C259.035 87.4227 260.133 88.1613 260.874 88.2773C264.004 89.7404 269.201 90.7072 272.452 91.9615C274.402 92.6419 277.472 94.5416 278.622 93.4003C279.207 93.7144 279.353 93.551 279.841 93.0766C281.836 92.6334 283.766 93.4403 285.72 93.7426C286.688 94.0428 288.093 94.099 289.102 94.1464C290.46 94.4727 292.256 95.4657 293.798 95.5075C296.059 95.431 298.046 96.7865 300.18 97.2397C307.008 99.1858 314.528 101.65 320.915 104.711C327.313 106.884 334.074 110.573 339.864 114.093C322.09 109.606 356.636 119.122 353.865 118.889C355.398 119.326 357.401 119.833 358.929 120.288C359.291 120.097 359.668 121.389 359.893 121.459C359.996 121.491 360.056 121.604 360.024 121.708C359.985 121.772 359.946 121.836 359.849 121.844C359.779 121.765 358.631 122.471 358.574 122.472C356.904 122.845 354.68 122.251 353.004 122.034C336.758 117.263 312.348 109.354 296.531 103.996C293.91 102.728 290.783 102.176 288.06 101.237C283.59 98.9601 278.222 97.5043 273.529 95.7651C268.932 93.4108 262.618 92.7427 258.23 89.9601C257.271 89.3217 255.996 88.6041 255.478 87.647C254.788 87.7934 253.891 87.9327 253.248 87.5625C252.715 87.2645 252.101 87.4723 251.626 87.7802C251.182 87.927 250.788 87.9755 251.16 88.4889C250.995 90.4284 250.403 92.5203 250.037 94.4354C248.25 97.6925 249.33 102.464 246.004 104.751C247.145 105.048 248.549 105.104 249.55 105.85C250.271 106.093 251.122 105.977 251.856 106.3C254.901 107.851 258.232 109.092 261.43 110.273C271.977 115.079 283.326 118.464 294.4 121.878C301.355 124.698 309.214 126.679 316.427 128.973C321.328 129.43 326.316 131.868 331.125 132.866C332.597 133.132 334.903 133.885 336.371 134.227C338.347 134.517 340.883 134.469 342.893 134.959C344.737 136.043 347.115 135.586 349.093 136.237C350.581 136.452 352.039 137.131 353.506 137.472C354.972 137.453 356.396 138.425 357.805 138.71C357.82 139.151 357.413 139.669 356.975 139.799ZM293.804 99.3395C298.031 100.991 305.919 103.493 310.341 104.883C312.306 105.455 330.182 111.755 326.949 110.013C318.005 106.577 308.631 102.571 299.294 100.037C297.189 99.6114 295.266 98.2946 293.073 98.3354C291.016 98.0009 288.462 96.6974 286.403 96.7983C287.333 97.7123 291.631 98.9502 293.804 99.3395ZM250.766 87.7411C250.659 87.8407 250.851 87.957 250.896 87.9331C250.879 87.9277 250.822 87.6826 250.766 87.7411ZM144.256 183.594C144.372 183.156 143.998 183.324 143.734 183.318L144.256 183.594ZM302.177 199.884C302.521 199.877 303.578 200.015 303.921 200.007C306.871 200.827 310.585 200.955 313.532 201.66C314.339 201.625 317.664 201.538 318.646 201.672C319.549 201.819 320.768 202.348 321.67 202.192C323.784 202.222 326.077 201.245 328.154 201.946C328.738 201.956 329.36 201.599 329.696 202.291C329.584 201.612 329.466 200.096 329.705 199.45C331.15 197.111 331.569 194.169 332.346 191.604C331.996 190.775 335.512 186.954 334.552 187.055C333.926 186.994 332.566 186.856 332 186.605C332.09 187.107 331.148 186.966 330.846 187.024C328.422 186.709 325.73 186.159 323.3 185.804C319.426 184.849 314.613 185.026 311.089 183.061C310.52 182.941 309.6 182.789 309.042 182.635C308.207 185.694 305.083 195.097 304.129 197.929L302.177 199.884ZM282.151 221.433C281.949 221.352 281.692 221.386 281.558 221.572C281.754 221.613 282.029 221.642 282.151 221.433ZM301.233 173.824C301.296 173.806 301.38 173.718 301.413 173.671C301.308 173.582 301.272 173.76 301.233 173.824ZM221.7 131.174C221.79 131.126 221.986 131.168 221.817 131.04C221.741 130.978 221.728 131.145 221.7 131.174ZM163.439 117.681C162.782 118.881 164.775 118.569 165.462 118.859C167.164 119.178 170.445 119.967 172.119 120.316C173.888 121.092 176.058 120.513 177.767 121.422C179.394 121.983 181.363 121.684 182.918 122.601C185.311 122.585 187.736 123.508 190.071 123.985C192.059 123.995 195.228 124.901 197.09 124.644C199.573 124.523 202.345 125.363 204.776 124.922C205.835 124.928 206.978 125.34 208.05 125.122C209.208 125.178 210.484 125.953 211.419 126.546C211.641 126.747 210.622 127.038 210.631 127.193C208.952 128.265 206.757 128.987 204.764 128.445C203.307 129.169 201.352 128.26 199.785 128.362C196.192 128.272 192.186 127.864 188.621 127.195C186.536 126.643 184.289 126.004 182.128 125.883C181.225 125.736 180.225 124.99 179.278 125.17C178.167 125.205 184.548 126.577 185.514 127.066C193.149 128.978 201.807 129.974 209.601 130.76C211.668 130.756 213.808 131.496 215.874 131.131C217.422 131.459 219.017 131.328 220.567 131.221C221.293 131.2 218.725 130.005 218.31 129.573C218.022 129.522 218.129 128.626 217.814 128.604C217.522 128.324 217.026 128.455 216.659 128.417C216.073 128.349 215.379 128.02 214.826 127.848C214.382 127.749 213.901 126.917 213.391 126.911C212.976 126.782 213.07 126.356 213.305 126.088C212.981 125.911 212.738 125.286 212.521 125.01C211.958 124.931 212.183 124.204 212.06 123.806C212.366 120.677 216.293 108.869 217.659 105.747C215.888 105.71 212.421 105.886 210.822 104.992L211.226 105.156C209.781 105.352 207.925 104.796 206.507 104.603C205.016 104.52 203.284 104.419 201.871 103.962C198.999 103.564 196.003 103.261 193.153 102.795C191.199 102.492 189.12 101.924 187.283 101.184C185.46 100.827 183.379 100.751 181.646 100.043C179.706 100.124 177.121 100.024 175.47 98.8676C171.48 97.858 167.526 96.1203 163.967 94.0878C163.321 93.6031 163.957 95.2794 163.889 95.5615C163.98 96.0637 164.003 97.4551 164.204 97.7258C164.813 99.185 164.512 100.95 164.533 102.473C164.857 107.541 163.969 112.669 163.439 117.681ZM163.419 120.804C164.435 121.194 162.879 120.466 162.689 120.16C162.19 121.465 162.537 120.834 163.419 120.804ZM173.739 132.213L173.942 132.352C174.049 132.252 173.785 132.246 173.739 132.213ZM222.658 136.704C222.797 136.254 222.738 135.591 222.671 135.134C222.873 134.116 222.978 134.206 222.089 134.442C220.626 134.576 219.057 134.621 217.582 134.732C208.746 134.249 199.308 133.143 190.476 131.486C184.519 130.398 176.16 127.522 170.258 125.768C167.466 125.604 165.065 123.931 162.541 122.901C161.814 121.823 161.951 122.662 161.6 123.368C160.918 124.711 160.49 126.399 159.547 127.605C158.935 128.723 158.82 130.318 158.052 131.388C157.204 132.168 157.566 132.527 156.777 133.666C155.105 136.428 153.555 139.778 151.245 142.095C151.044 142.374 150.656 142.955 150.498 143.096C152.124 142.804 154.131 143.975 155.703 144.406C157.739 145.36 162.595 146.695 164.706 147.652C164.893 146.743 165.518 145.705 165.596 144.781C166.248 142.556 167.695 140.274 168.49 138.075C169.142 136.096 169.953 134.395 171.588 133.404C170.512 131.554 171.899 129.955 173.734 129.538C182.505 129.925 192.295 131.917 201.034 133.261C208.329 134.006 215.466 136.484 222.599 137.994C223.812 138.484 222.512 137.114 222.658 136.704ZM230.206 102.147C231.016 102.835 232.411 103.533 233.491 103.412C234.745 103.953 236.017 103.703 237.264 103.9C239.109 103.941 241.319 104.455 242.987 103.721C243.513 103.922 244.459 103.988 243.757 103.258C243.167 102.468 242.123 101.861 241.266 101.386C239.525 101.131 237.376 100.541 235.638 100.646C234.779 100.418 233.028 100.197 231.635 100.96C231.223 100.946 230.866 101.669 230.462 101.81C230.29 101.813 230.162 101.982 230.206 102.147ZM223.772 113.178C223.063 115.708 223.481 118.397 224.389 120.726C224.398 120.881 224.593 120.922 224.712 120.845C225.718 120.475 226.428 119.652 226.686 118.575C227.062 116.019 227.149 113.353 228.186 110.925C228.698 109.15 229.686 105.778 230.062 104.018C230.242 103.865 229.774 103.417 229.72 103.286C229.844 102.945 229.645 102.182 229.615 101.851C229.013 101.835 228.384 101.848 228.112 102.541C228.145 102.741 227.606 103.01 227.488 103.087C227.408 103.404 227.063 103.846 226.844 104.063C225.83 106.782 224.52 110.396 223.772 113.178ZM280.63 245.174C280.628 245.117 280.707 245.046 280.615 245.037C280.61 245.054 279.948 244.621 279.936 244.599C278.934 245.141 277.681 244.658 276.539 245.1C274.155 245.574 271.532 245.596 269.101 245.733C258.834 245.28 247.82 244.425 237.423 242.984C235.563 242.503 233.396 242.646 231.603 241.825C227.89 241.205 224.29 239.975 220.586 239.206C210.904 237.967 200.875 235.522 191.844 231.755C191.528 231.676 189.739 231.026 190.062 231.449C189.009 230.933 187.911 230.194 186.809 229.777C185.695 229.394 184.377 228.814 183.221 228.57C182.321 227.987 180.58 226.936 179.549 226.654C175.116 224.995 170.602 223.046 166.403 220.815C161.088 219.186 155.752 215.731 151.166 212.546C147.78 210.32 144.813 206.5 140.842 205.306C140.824 205.301 139.927 205.137 139.91 205.131C139.846 205.093 139.813 205.139 139.814 205.196C139.262 208.628 145.538 212.659 147.865 214.878C151.759 217.849 156.592 220.542 161.035 222.659C162.067 223.244 163.462 224.245 164.669 224.145C167.63 225.537 170.713 227.517 173.865 228.418C177.676 229.884 181.341 232.063 185.239 233.31C186.377 233.738 187.453 234.546 188.597 235.014C189.891 234.998 191.605 235.89 192.844 236.236C201.709 240.046 211.782 241.614 221.197 243.225C222.313 243.419 223.704 243.945 224.787 244.243C225.454 244.355 226.287 244.234 226.886 244.628C229.455 245.33 232.25 246.159 234.912 246.377C243.242 247.575 252.85 248.867 261.231 248.678C266.207 249.443 271.505 249.474 276.431 248.385C277.323 248.074 278.231 247.653 279.172 247.49C279.953 247.05 280.613 246.022 280.63 245.174ZM192.001 140.017C194.614 141.984 198.53 142.439 201.766 143.006C210.684 145.183 220.657 146.948 229.419 149.873C248.616 155.274 267.251 163.099 286.407 168.754C293.541 171.364 294.521 170.283 287.318 166.61C282.894 164.309 277.583 162.852 272.957 161.02C268.553 159.389 263.646 157.545 259.212 156.133C249.686 152.8 240.03 149.276 230.305 146.83C222.725 144.252 213.7 142.914 205.925 141.148C204.574 140.616 191.596 138.697 192.001 140.017ZM220.511 60.6525C218.991 63.2337 217.597 66.1387 216.857 69.0757C216.531 70.738 214.662 75.2398 215.309 76.5779C215.535 77.2547 215.525 78.1428 216.045 78.6645C216.144 78.7139 216.312 79.6383 216.504 79.5082C217.227 78.4619 218.359 77.5615 218.41 76.1742C219.595 73.6975 220.35 67.9592 222.15 64.7821C222.578 63.8909 222.976 62.6681 223.248 61.7287C222.916 60.9052 223.221 59.862 222.866 59.0504C221.897 58.9964 220.793 59.6213 220.511 60.6525ZM96.4758 17.1177C98.4879 17.4761 100.668 17.659 102.672 18.1664C108.804 19.4227 115.306 20.8888 121.434 22.2197C137.919 26.1551 154.441 31.5045 170.88 35.71C183.177 40.622 196.763 43.9428 208.886 49.2938C212.73 50.7131 218.239 54.7721 210.164 52.3255C191.097 46.566 171.996 39.4497 152.729 34.273C138.732 30.199 124.587 25.9277 110.39 22.6828C106.711 21.7697 102.78 20.8735 99.0705 20.1215C97.6787 19.8417 99.4117 20.5496 99.8483 20.6091C104.113 21.8935 108.702 23.8469 112.911 25.4361C114.941 26.1034 117.478 26.359 119.5 27.2326C121.621 27.8521 124.055 28.929 126.269 29.0654C127.919 29.672 129.991 30.6935 131.747 30.8396C135.674 31.3178 139.665 33.1807 143.606 33.7388C167.939 41.2827 197.148 48.6317 220.854 57.3459C221.64 57.6844 221.425 58.3763 221.018 58.8948C220.796 58.9396 220.113 58.8796 219.919 58.8951C217.286 58.4583 214.626 57.5008 212.079 56.7872C184.099 48.4728 153.162 39.8487 125.38 31.7478C122.827 31.7904 119.988 30.2467 117.506 29.6291C114.545 28.7868 110.711 27.8827 107.728 26.8061C104.056 25.4404 100.273 24.1916 96.8599 22.2992C95.9318 21.1962 93.9621 20.9457 93.5127 19.4603C93.2112 17.9258 95.0988 16.7287 96.4758 17.1177ZM95.6356 19.6444C95.7102 19.6486 96.2117 19.804 95.9618 19.6318L95.6356 19.6444ZM45.7342 97.0792C46.7598 94.3825 48.8696 92.0408 50.4749 89.6755C52.5803 86.3087 55.5648 83.347 58.4342 80.6342C61.9391 77.0945 65.7659 73.0668 70.1936 70.6474C75.7068 66.7444 81.9209 63.7602 88.5462 62.079C91.5335 60.8816 95.1513 60.5242 98.3296 60.2393C102.122 59.7465 106.342 59.7087 110.018 60.7535C113.816 61.8931 118.324 63.0062 122.139 64.0939C123.068 64.458 124.102 65.4042 125.142 65.2905C126.034 66.022 127.282 66.2762 128.216 66.8693C131.12 69.0589 133.595 71.7789 135.91 74.5824C136.597 75.1177 136.805 75.9783 137.068 76.7804C137.496 77.5388 138.067 78.2657 138.671 78.946C139.047 79.3848 139.546 79.9757 140.192 79.9104C140.493 80.3451 141.433 80.371 141.62 80.8081C141.717 80.0041 141.495 79.2527 140.803 78.7347C140.358 77.1746 139.607 75.8043 139.11 74.2282C138.509 73.1698 137.559 72.3823 136.88 71.3942C134.766 68.3688 131.434 66.8241 128.394 64.9524C127.695 64.698 126.884 64.2569 126.301 63.7537C125.247 63.4839 124.27 62.7829 123.376 62.1832C120.887 61.2221 117.169 59.823 114.525 59.3635C108.183 57.6248 101.499 56.804 94.927 57.7624C89.051 58.3107 83.2494 60.7592 77.8329 63.0048C74.1146 64.2979 70.69 67.0282 67.1691 68.7238C63.9233 70.6943 60.7748 73.7568 57.8887 76.218C55.6131 78.8495 52.6339 81.2439 50.365 83.9154C47.9239 87.3868 45.1525 90.9453 43.0663 94.6784C39.6261 102.106 36.2791 110.15 35.8924 118.43C35.7568 122.597 35.8665 127.257 38.0112 130.918C38.255 130.804 39.8425 133.571 40.0857 133.154C40.0648 132.977 40.2973 130.148 40.1792 129.978C39.8814 129.166 39.4565 128.029 39.4265 127.148C38.3601 116.768 41.0201 106.292 45.7342 97.0792ZM70.9219 134.826C69.4753 132.766 71.7674 129.836 72.5946 127.78C71.0668 127.571 69.4632 127.302 67.9259 127.185C65.7926 126.24 63.3172 125.908 61.5022 124.303C59.2036 122.851 56.5442 120.851 55.9299 118.063C55.6255 117.21 55.2192 116.136 55.6191 115.274C55.6435 115.073 56.7717 114.797 56.8068 114.561C56.8867 114.548 57.0065 114.529 57.0543 114.619C56.8808 114.812 58.2071 115.242 58.1296 115.37C58.7124 116.119 59.3256 116.954 59.7349 117.896C61.3168 119.581 63.3362 120.833 65.2078 122.134C66.5729 122.5 68.096 123.029 69.3967 123.603C70.312 123.28 71.6634 123.813 72.6176 123.976C72.6814 124.014 74.323 123.917 74.4173 124.041C75.3537 122.549 77.1652 119.641 78.0033 118.099C79.5972 115.465 81.8944 111.418 83.3899 108.734C84.262 107.45 86.3402 104.966 86.5229 103.581C84.9072 102.189 83.1022 100.246 81.8692 98.5362C80.9884 98.32 80.3773 96.5 80.2831 96.376C76.5492 90.137 84.7207 85.7309 89.8273 84.5459C92.8385 83.9437 96.1343 83.5244 99.1755 83.2538C99.8992 82.2647 100.721 81.0215 101.137 79.8613C101.574 78.5747 102.661 77.4519 103.846 76.8712C104.202 77.1902 104.761 77.8943 104.647 78.4466C104.221 79.4523 103.706 80.563 103.454 81.6223C103.14 82.7574 101.443 84.0707 103.544 84.0205C105.302 84.2811 108.631 77.2739 110.498 76.2033C112.061 75.3225 111.377 76.0587 110.935 76.8127C110.031 78.2008 109.215 79.9766 108.658 81.5293C107.364 84.541 105.133 84.3992 108.485 86.3674C109.929 87.2132 111.283 88.4103 112.672 89.3719C114.269 90.1514 114.786 92.151 114.666 93.7631C114.623 93.9015 114.39 93.9809 114.301 93.8396C113.251 93.7415 112.372 93.3363 111.736 92.5135C109.768 91.8277 107.235 89.8479 105.011 88.4C104.874 88.4143 104.535 87.7972 104.477 88.0447C103.808 88.9181 102.561 90.9207 101.946 91.8674C99.2484 96.2263 96.2334 100.999 93.6745 105.4C97.3124 109.258 101.454 113.633 101.789 119.216C102.587 120.677 101.295 122.95 100.11 124.081C96.981 126.959 92.4294 127.577 88.3775 127.989C85.3202 128.312 81.8824 127.967 78.8239 128.232C76.7344 130.447 74.8181 134.366 71.9466 135.618C71.8345 135.735 71.6311 135.596 71.674 135.457C71.8502 134.033 72.081 134.389 70.9219 134.826ZM91.6317 108.749C91.072 109.637 90.1033 111.233 89.5782 112.132C87.8096 114.901 84.4518 119.985 82.7165 122.708C82.4538 123.555 80.8088 124.581 82.6543 124.376C86.9156 124.389 96.2689 124.426 98.3192 120.075L98.4211 119.746C97.9432 120.982 98.0451 118.207 97.7957 117.789C96.8403 115.123 95.3071 112.486 93.1706 110.572C93.1122 110.516 91.6955 108.787 91.6317 108.749ZM101.294 87.3045C99.8119 86.2762 95.4445 96.45 94.3244 97.923C96.0472 95.4234 98.7021 90.9566 100.879 88.2756C100.87 88.1211 102.013 87.1861 101.294 87.3045ZM90.583 97.5784C92.1142 94.4127 94.818 90.0937 96.7148 87.1552C92.9235 87.7052 88.4822 87.8451 85.4094 90.4191C84.5067 91.0683 83.3673 91.6251 83.0759 92.7483C82.7846 93.8714 83.8862 94.7817 84.1316 95.8248C84.3836 95.0118 86.3583 98.487 87.0817 98.844C89.2923 101.558 89.1081 99.3395 90.583 97.5784ZM142.946 91.0218C143.618 91.3627 143.635 87.8224 143.806 87.2689C143.251 88.3861 143.035 89.817 142.946 91.0218ZM74.2675 155.525C75.3822 155.966 76.7931 156.062 77.9362 155.677C80.9386 155.47 84.1961 154.868 87.0391 153.891C94.3997 152.04 101.689 148.706 108.341 145.043C112.48 143.065 116.394 139.917 120.378 137.645C121.57 136.308 123.016 134.822 124.524 133.811C125.882 132.184 127.685 130.221 129.188 128.735C130.158 127.196 132.661 123.403 133.764 121.924C136.886 116.256 139.209 109.62 140.916 103.38C141.467 101.541 141.943 99.1482 142.006 97.2337C141.343 100.536 139.432 104.987 138.245 108.202C134.353 118.618 127.349 127.634 119.223 135.012C113.862 139.341 107.446 143.04 101.138 145.957C95.7358 148.586 89.6746 150.404 84.0005 152.381C80.9 153.638 76.8849 153.625 74.2675 155.525Z" fill="#FF742E"/>
</g>
</g>
<defs>
<clipPath id="clip0_9_26326">
<rect width="332.583" height="188.289" fill="white" transform="translate(55.7559) rotate(17.2245)"/>
</clipPath>
<clipPath id="clip1_9_26326">
<rect width="332.583" height="188.289" fill="white" transform="translate(55.7559) rotate(17.2245)"/>
</clipPath>
</defs>
</svg>
