<svg width="149" height="119" viewBox="0 0 149 119" fill="none" xmlns="http://www.w3.org/2000/svg">
<g clip-path="url(#clip0_9_18805)">
<g clip-path="url(#clip1_9_18805)">
<path d="M133.846 114.339C131.285 114.339 129.212 116.412 129.212 118.972H123.605C123.605 116.412 121.533 114.339 118.972 114.339C116.418 114.339 114.34 116.412 114.34 118.972H108.737C108.737 116.412 106.658 114.339 104.105 114.339C101.544 114.339 99.4709 116.412 99.4709 118.972H93.8623C93.8623 116.412 91.7914 114.339 89.2304 114.339C86.6748 114.339 84.5985 116.412 84.5985 118.972H78.9953C78.9953 116.412 76.9171 114.339 74.3615 114.339C71.8023 114.339 69.7296 116.412 69.7296 118.972H64.121C64.121 116.412 62.0483 114.339 59.489 114.339C56.928 114.339 54.8571 116.412 54.8571 118.972H49.2521C49.2521 116.412 47.1758 114.339 44.6202 114.339C42.0609 114.339 39.9882 116.412 39.9882 118.972H34.3796C34.3796 116.412 32.3069 114.339 29.7477 114.339C27.1867 114.339 25.1139 116.412 25.1139 118.972H19.5108C19.5108 116.412 17.4344 114.339 14.8788 114.339C12.3178 114.339 10.2451 116.412 10.2451 118.972H4.63828C4.63828 116.412 2.56558 114.339 0.00453628 114.339V108.733C2.56558 108.733 4.63828 106.661 4.63828 104.1C4.63828 101.541 2.56558 99.4691 0.00453628 99.4691V93.8613C2.56558 93.8613 4.63828 91.7889 4.63828 89.2301C4.63828 86.6695 2.56558 84.5971 0.00453628 84.5971V78.9912C2.56558 78.9912 4.63828 76.9188 4.63828 74.3581C4.63828 71.7993 2.56558 69.7269 0.00453628 69.7269V64.1192C2.56558 64.1192 4.63828 62.0468 4.63828 59.488C4.63828 56.9291 2.56558 54.8567 0.00453628 54.8567V49.249C2.56558 49.249 4.63828 47.1766 4.63828 44.6178C4.63828 42.0571 2.56558 39.9848 0.00453628 39.9848V34.3788C2.56558 34.3788 4.63828 32.3065 4.63828 29.7458C4.63828 27.187 2.56558 25.1146 0.00453628 25.1146V19.5069C2.56558 19.5069 4.63828 17.4345 4.63828 14.8756C4.63828 12.315 2.56558 10.2426 0.00453628 10.2426V4.63669C2.56558 4.63669 4.63828 2.5643 4.63828 0.00366211L10.2451 0.00366211C10.2451 2.5643 12.3178 4.63669 14.8788 4.63669C17.4344 4.63669 19.5108 2.5643 19.5108 0.00366211L25.1139 0.00366211C25.1139 2.5643 27.1867 4.63669 29.7477 4.63669C32.3069 4.63669 34.3796 2.5643 34.3796 0.00366211L39.9882 0.00366211C39.9882 2.5643 42.0609 4.63669 44.6202 4.63669C47.1758 4.63669 49.2521 2.5643 49.2521 0.00366211L54.8571 0.00366211C54.8571 2.5643 56.928 4.63669 59.489 4.63669C62.0483 4.63669 64.121 2.5643 64.121 0.00366211L69.7296 0.00366211C69.7296 2.5643 71.8023 4.63669 74.3615 4.63669C76.9171 4.63669 78.9953 2.5643 78.9953 0.00366211L84.5985 0.00366211C84.5985 2.5643 86.6748 4.63669 89.2304 4.63669C91.7914 4.63669 93.8623 2.5643 93.8623 0.00366211L99.4709 0.00366211C99.4709 2.5643 101.544 4.63669 104.105 4.63669C106.658 4.63669 108.737 2.5643 108.737 0.00366211L114.34 0.00366211C114.34 2.5643 116.418 4.63669 118.972 4.63669C121.533 4.63669 123.605 2.5643 123.605 0.00366211L129.212 0.00366211C129.212 2.5643 131.285 4.63669 133.846 4.63669C136.402 4.63669 138.478 2.5643 138.478 0.00366211L144.081 0.00366211C144.081 2.5643 146.159 4.63669 148.715 4.63669V10.2426C146.159 10.2426 144.081 12.315 144.081 14.8756C144.081 17.4345 146.159 19.5069 148.715 19.5069V25.1146C146.159 25.1146 144.081 27.187 144.081 29.7458C144.081 32.3065 146.159 34.3788 148.715 34.3788V39.9848C146.159 39.9848 144.081 42.0571 144.081 44.6178C144.081 47.1766 146.159 49.249 148.715 49.249V54.8567C146.159 54.8567 144.081 56.9291 144.081 59.488C144.081 62.0468 146.159 64.1192 148.715 64.1192V69.7269C146.159 69.7269 144.081 71.7993 144.081 74.3581C144.081 76.9188 146.159 78.9912 148.715 78.9912V84.5971C146.159 84.5971 144.081 86.6695 144.081 89.2301C144.081 91.7889 146.159 93.8613 148.715 93.8613V99.4691C146.159 99.4691 144.081 101.541 144.081 104.1C144.081 106.661 146.159 108.733 148.715 108.733V114.339C146.159 114.339 144.081 116.412 144.081 118.972H138.478C138.478 116.412 136.402 114.339 133.846 114.339Z" fill="#D1B266"/>
<path d="M9.75881 109.22V9.7561L138.963 9.7561V109.22L9.75881 109.22Z" fill="#FFF6E1"/>
</g>
</g>
<defs>
<clipPath id="clip0_9_18805">
<rect width="118.976" height="148.72" fill="white" transform="matrix(0 1 -1 0 148.72 0)"/>
</clipPath>
<clipPath id="clip1_9_18805">
<rect width="118.976" height="148.72" fill="white" transform="matrix(0 1 -1 0 148.72 0)"/>
</clipPath>
</defs>
</svg>
