<svg xmlns="http://www.w3.org/2000/svg" xmlns:xlink="http://www.w3.org/1999/xlink" width="192" zoomAndPan="magnify" viewBox="0 0 144 153.000002" height="204" preserveAspectRatio="xMidYMid meet" version="1.0"><defs><clipPath id="7d2d82a56f"><path d="M 0.46875 0 L 143.53125 0 L 143.53125 152 L 0.46875 152 Z M 0.46875 0 " clip-rule="nonzero"/></clipPath><clipPath id="2a374a6c01"><path d="M 70 125 L 75 125 L 75 131 L 70 131 Z M 70 125 " clip-rule="nonzero"/></clipPath><clipPath id="48c558ef1c"><path d="M 131.191406 38.429688 L 66.035156 145.792969 L 12.351562 113.210938 L 77.511719 5.847656 Z M 131.191406 38.429688 " clip-rule="nonzero"/></clipPath><clipPath id="f5d5e93267"><path d="M 131.191406 38.429688 L 66.035156 145.792969 L 12.351562 113.210938 L 77.511719 5.847656 Z M 131.191406 38.429688 " clip-rule="nonzero"/></clipPath><clipPath id="a836134870"><path d="M 78 116 L 83 116 L 83 123 L 78 123 Z M 78 116 " clip-rule="nonzero"/></clipPath><clipPath id="6c7faf3d95"><path d="M 131.191406 38.429688 L 66.035156 145.792969 L 12.351562 113.210938 L 77.511719 5.847656 Z M 131.191406 38.429688 " clip-rule="nonzero"/></clipPath><clipPath id="d896e957aa"><path d="M 131.191406 38.429688 L 66.035156 145.792969 L 12.351562 113.210938 L 77.511719 5.847656 Z M 131.191406 38.429688 " clip-rule="nonzero"/></clipPath><clipPath id="eaea9dfb17"><path d="M 62 133 L 67 133 L 67 139 L 62 139 Z M 62 133 " clip-rule="nonzero"/></clipPath><clipPath id="4b783db877"><path d="M 131.191406 38.429688 L 66.035156 145.792969 L 12.351562 113.210938 L 77.511719 5.847656 Z M 131.191406 38.429688 " clip-rule="nonzero"/></clipPath><clipPath id="0af166b74e"><path d="M 131.191406 38.429688 L 66.035156 145.792969 L 12.351562 113.210938 L 77.511719 5.847656 Z M 131.191406 38.429688 " clip-rule="nonzero"/></clipPath><clipPath id="461c65fbef"><path d="M 83 37 L 130 37 L 130 115 L 83 115 Z M 83 37 " clip-rule="nonzero"/></clipPath><clipPath id="280fd355e4"><path d="M 131.191406 38.429688 L 66.035156 145.792969 L 12.351562 113.210938 L 77.511719 5.847656 Z M 131.191406 38.429688 " clip-rule="nonzero"/></clipPath><clipPath id="364db90569"><path d="M 131.191406 38.429688 L 66.035156 145.792969 L 12.351562 113.210938 L 77.511719 5.847656 Z M 131.191406 38.429688 " clip-rule="nonzero"/></clipPath><clipPath id="25506cddd7"><path d="M 47 30 L 119 30 L 119 135 L 47 135 Z M 47 30 " clip-rule="nonzero"/></clipPath><clipPath id="eac9a8d350"><path d="M 131.191406 38.429688 L 66.035156 145.792969 L 12.351562 113.210938 L 77.511719 5.847656 Z M 131.191406 38.429688 " clip-rule="nonzero"/></clipPath><clipPath id="faea10467f"><path d="M 131.191406 38.429688 L 66.035156 145.792969 L 12.351562 113.210938 L 77.511719 5.847656 Z M 131.191406 38.429688 " clip-rule="nonzero"/></clipPath><clipPath id="ceb8293079"><path d="M 36 46 L 86 46 L 86 128 L 36 128 Z M 36 46 " clip-rule="nonzero"/></clipPath><clipPath id="9a777f3457"><path d="M 131.191406 38.429688 L 66.035156 145.792969 L 12.351562 113.210938 L 77.511719 5.847656 Z M 131.191406 38.429688 " clip-rule="nonzero"/></clipPath><clipPath id="e98179791a"><path d="M 131.191406 38.429688 L 66.035156 145.792969 L 12.351562 113.210938 L 77.511719 5.847656 Z M 131.191406 38.429688 " clip-rule="nonzero"/></clipPath><clipPath id="15aa5038d4"><path d="M 91 32 L 99 32 L 99 40 L 91 40 Z M 91 32 " clip-rule="nonzero"/></clipPath><clipPath id="0847eaacf4"><path d="M 131.191406 38.429688 L 66.035156 145.792969 L 12.351562 113.210938 L 77.511719 5.847656 Z M 131.191406 38.429688 " clip-rule="nonzero"/></clipPath><clipPath id="ecd8e99be7"><path d="M 131.191406 38.429688 L 66.035156 145.792969 L 12.351562 113.210938 L 77.511719 5.847656 Z M 131.191406 38.429688 " clip-rule="nonzero"/></clipPath><clipPath id="71615c85e6"><path d="M 102 23 L 108 23 L 108 29 L 102 29 Z M 102 23 " clip-rule="nonzero"/></clipPath><clipPath id="9c76b2815b"><path d="M 131.191406 38.429688 L 66.035156 145.792969 L 12.351562 113.210938 L 77.511719 5.847656 Z M 131.191406 38.429688 " clip-rule="nonzero"/></clipPath><clipPath id="8ea3e9caef"><path d="M 131.191406 38.429688 L 66.035156 145.792969 L 12.351562 113.210938 L 77.511719 5.847656 Z M 131.191406 38.429688 " clip-rule="nonzero"/></clipPath><clipPath id="1ab3ceabed"><path d="M 25 16 L 96 16 L 96 122 L 25 122 Z M 25 16 " clip-rule="nonzero"/></clipPath><clipPath id="6527b1819d"><path d="M 131.191406 38.429688 L 66.035156 145.792969 L 12.351562 113.210938 L 77.511719 5.847656 Z M 131.191406 38.429688 " clip-rule="nonzero"/></clipPath><clipPath id="c6175bc960"><path d="M 131.191406 38.429688 L 66.035156 145.792969 L 12.351562 113.210938 L 77.511719 5.847656 Z M 131.191406 38.429688 " clip-rule="nonzero"/></clipPath><clipPath id="7cdd9df4a3"><path d="M 14 110 L 19 110 L 19 115 L 14 115 Z M 14 110 " clip-rule="nonzero"/></clipPath><clipPath id="f0746b03f1"><path d="M 131.191406 38.429688 L 66.035156 145.792969 L 12.351562 113.210938 L 77.511719 5.847656 Z M 131.191406 38.429688 " clip-rule="nonzero"/></clipPath><clipPath id="98e2020ab7"><path d="M 131.191406 38.429688 L 66.035156 145.792969 L 12.351562 113.210938 L 77.511719 5.847656 Z M 131.191406 38.429688 " clip-rule="nonzero"/></clipPath><clipPath id="a5a5d29cb4"><path d="M 19 99 L 30 99 L 30 109 L 19 109 Z M 19 99 " clip-rule="nonzero"/></clipPath><clipPath id="409dc7b5b9"><path d="M 131.191406 38.429688 L 66.035156 145.792969 L 12.351562 113.210938 L 77.511719 5.847656 Z M 131.191406 38.429688 " clip-rule="nonzero"/></clipPath><clipPath id="996abeb83b"><path d="M 131.191406 38.429688 L 66.035156 145.792969 L 12.351562 113.210938 L 77.511719 5.847656 Z M 131.191406 38.429688 " clip-rule="nonzero"/></clipPath><clipPath id="3915fa0487"><path d="M 31 9 L 85 9 L 85 97 L 31 97 Z M 31 9 " clip-rule="nonzero"/></clipPath><clipPath id="cf2dd9cbc9"><path d="M 131.191406 38.429688 L 66.035156 145.792969 L 12.351562 113.210938 L 77.511719 5.847656 Z M 131.191406 38.429688 " clip-rule="nonzero"/></clipPath><clipPath id="04af93564e"><path d="M 131.191406 38.429688 L 66.035156 145.792969 L 12.351562 113.210938 L 77.511719 5.847656 Z M 131.191406 38.429688 " clip-rule="nonzero"/></clipPath><clipPath id="482748c8a3"><path d="M 26 24 L 120 24 L 120 118 L 26 118 Z M 26 24 " clip-rule="nonzero"/></clipPath><clipPath id="23bbd63fb8"><path d="M 137.804688 69.945312 L 73.238281 136.507812 L 6.675781 71.941406 L 71.242188 5.378906 Z M 137.804688 69.945312 " clip-rule="nonzero"/></clipPath><clipPath id="22dce9db7c"><path d="M 137.804688 69.945312 L 73.238281 136.507812 L 6.675781 71.941406 L 71.242188 5.378906 Z M 137.804688 69.945312 " clip-rule="nonzero"/></clipPath><clipPath id="c6bcb7f752"><rect x="0" width="144" y="0" height="152"/></clipPath></defs><g clip-path="url(#7d2d82a56f)"><g transform="matrix(1, 0, 0, 1, 0.000000000000000111, 0.000000000000009523)"><g clip-path="url(#c6bcb7f752)"><g clip-path="url(#2a374a6c01)"><g clip-path="url(#48c558ef1c)"><g clip-path="url(#f5d5e93267)"><path fill="#000000" d="M 70.21875 129.273438 C 70.253906 129.210938 70.296875 129.15625 70.351562 129.105469 L 73.359375 126.160156 C 73.699219 125.828125 74.242188 125.832031 74.574219 126.171875 C 74.90625 126.511719 74.90625 127.050781 74.5625 127.386719 L 71.554688 130.332031 C 71.214844 130.664062 70.667969 130.660156 70.335938 130.320312 C 70.058594 130.03125 70.019531 129.601562 70.21875 129.273438 Z M 70.21875 129.273438 " fill-opacity="1" fill-rule="nonzero"/></g></g></g><g clip-path="url(#a836134870)"><g clip-path="url(#6c7faf3d95)"><g clip-path="url(#d896e957aa)"><path fill="#000000" d="M 78.25 121 C 78.269531 120.964844 78.292969 120.933594 78.320312 120.902344 C 79.351562 119.636719 80.394531 118.238281 81.425781 116.742188 C 81.695312 116.351562 82.230469 116.253906 82.621094 116.523438 C 83.011719 116.792969 83.105469 117.320312 82.839844 117.71875 C 81.785156 119.25 80.710938 120.6875 79.652344 121.988281 C 79.351562 122.355469 78.808594 122.410156 78.441406 122.109375 C 78.105469 121.835938 78.03125 121.359375 78.25 121 Z M 78.25 121 " fill-opacity="1" fill-rule="nonzero"/></g></g></g><g clip-path="url(#eaea9dfb17)"><g clip-path="url(#4b783db877)"><g clip-path="url(#0af166b74e)"><path fill="#000000" d="M 62.265625 137.058594 C 62.300781 136.996094 62.34375 136.941406 62.398438 136.890625 L 65.316406 134.035156 C 65.652344 133.703125 66.199219 133.707031 66.53125 134.046875 C 66.863281 134.386719 66.859375 134.929688 66.515625 135.261719 L 63.601562 138.117188 C 63.261719 138.449219 62.71875 138.445312 62.386719 138.105469 C 62.105469 137.816406 62.066406 137.386719 62.265625 137.058594 Z M 62.265625 137.058594 " fill-opacity="1" fill-rule="nonzero"/></g></g></g><g clip-path="url(#461c65fbef)"><g clip-path="url(#280fd355e4)"><g clip-path="url(#364db90569)"><path fill="#000000" d="M 102.917969 64.914062 C 105.6875 60.34375 108.902344 56.046875 111.902344 53.113281 L 127.992188 37.359375 C 128.332031 37.027344 128.875 37.035156 129.207031 37.371094 C 129.539062 37.710938 129.539062 38.253906 129.195312 38.589844 L 113.105469 54.339844 C 107.28125 60.042969 100.609375 71.035156 98.238281 78.835938 L 91.695312 100.375 C 90.46875 104.417969 88.113281 109.359375 85.070312 114.296875 C 84.820312 114.703125 84.292969 114.828125 83.886719 114.578125 C 83.484375 114.328125 83.359375 113.804688 83.605469 113.402344 C 83.605469 113.398438 83.609375 113.398438 83.609375 113.394531 C 86.53125 108.664062 88.882812 103.722656 90.050781 99.875 L 96.597656 78.335938 C 97.816406 74.316406 100.144531 69.480469 102.917969 64.914062 Z M 102.917969 64.914062 " fill-opacity="1" fill-rule="nonzero"/></g></g></g><g clip-path="url(#25506cddd7)"><g clip-path="url(#eac9a8d350)"><g clip-path="url(#faea10467f)"><path fill="#000000" d="M 91.707031 58.109375 C 94.476562 53.542969 97.695312 49.246094 100.695312 46.308594 L 116.785156 30.554688 C 117.121094 30.222656 117.667969 30.230469 118 30.570312 C 118.332031 30.90625 118.328125 31.453125 117.984375 31.785156 L 101.894531 47.535156 C 96.070312 53.242188 89.398438 64.230469 87.03125 72.03125 L 80.484375 93.574219 C 78.046875 101.609375 71.179688 112.921875 65.179688 118.796875 L 49.089844 134.542969 C 48.753906 134.878906 48.207031 134.871094 47.875 134.53125 C 47.542969 134.191406 47.550781 133.648438 47.890625 133.316406 L 63.976562 117.566406 C 69.800781 111.863281 76.472656 100.875 78.84375 93.074219 L 85.386719 71.53125 C 86.605469 67.515625 88.933594 62.675781 91.707031 58.109375 Z M 91.707031 58.109375 " fill-opacity="1" fill-rule="nonzero"/></g></g></g><g clip-path="url(#ceb8293079)"><g clip-path="url(#9a777f3457)"><g clip-path="url(#e98179791a)"><path fill="#000000" d="M 80.511719 51.28125 C 81.453125 49.730469 82.449219 48.203125 83.488281 46.734375 C 83.761719 46.347656 84.296875 46.253906 84.683594 46.527344 C 85.074219 46.800781 85.167969 47.332031 84.890625 47.726562 C 80.828125 53.488281 77.351562 60.195312 75.820312 65.230469 L 69.277344 86.769531 C 66.835938 94.804688 59.96875 106.117188 53.96875 111.992188 L 37.882812 127.742188 C 37.542969 128.074219 37 128.066406 36.667969 127.726562 C 36.335938 127.390625 36.339844 126.84375 36.679688 126.511719 L 52.765625 110.765625 C 58.59375 105.058594 65.261719 94.070312 67.632812 86.269531 L 74.175781 64.730469 C 75.363281 60.824219 77.671875 55.960938 80.511719 51.28125 Z M 80.511719 51.28125 " fill-opacity="1" fill-rule="nonzero"/></g></g></g><g clip-path="url(#15aa5038d4)"><g clip-path="url(#0847eaacf4)"><g clip-path="url(#ecd8e99be7)"><path fill="#000000" d="M 91.246094 37.816406 C 91.285156 37.757812 91.328125 37.699219 91.378906 37.648438 L 96.765625 32.375 C 97.105469 32.042969 97.648438 32.050781 97.980469 32.390625 C 98.3125 32.730469 98.3125 33.273438 97.96875 33.605469 L 92.582031 38.878906 C 92.242188 39.210938 91.699219 39.203125 91.367188 38.863281 C 91.085938 38.578125 91.046875 38.144531 91.246094 37.816406 Z M 91.246094 37.816406 " fill-opacity="1" fill-rule="nonzero"/></g></g></g><g clip-path="url(#71615c85e6)"><g clip-path="url(#9c76b2815b)"><g clip-path="url(#8ea3e9caef)"><path fill="#000000" d="M 102.316406 26.980469 C 102.351562 26.917969 102.398438 26.863281 102.449219 26.8125 L 105.574219 23.753906 C 105.914062 23.421875 106.457031 23.425781 106.789062 23.765625 C 107.121094 24.105469 107.117188 24.648438 106.777344 24.980469 L 103.652344 28.039062 C 103.3125 28.371094 102.769531 28.367188 102.4375 28.027344 C 102.15625 27.738281 102.117188 27.308594 102.316406 26.980469 Z M 102.316406 26.980469 " fill-opacity="1" fill-rule="nonzero"/></g></g></g><g clip-path="url(#1ab3ceabed)"><g clip-path="url(#6527b1819d)"><g clip-path="url(#c6175bc960)"><path fill="#000000" d="M 69.285156 44.503906 C 72.058594 39.9375 75.273438 35.640625 78.273438 32.703125 L 94.363281 16.949219 C 94.703125 16.617188 95.246094 16.625 95.578125 16.964844 C 95.910156 17.300781 95.90625 17.84375 95.566406 18.179688 L 79.476562 33.929688 C 73.648438 39.636719 66.980469 50.625 64.609375 58.425781 L 58.066406 79.964844 C 55.625 88 48.757812 99.316406 42.757812 105.191406 L 26.671875 120.9375 C 26.332031 121.269531 25.789062 121.265625 25.457031 120.925781 C 25.125 120.585938 25.128906 120.042969 25.46875 119.710938 L 41.554688 103.960938 C 47.382812 98.257812 54.050781 87.269531 56.421875 79.464844 L 62.964844 57.925781 C 64.1875 53.910156 66.515625 49.070312 69.285156 44.503906 Z M 69.285156 44.503906 " fill-opacity="1" fill-rule="nonzero"/></g></g></g><g clip-path="url(#7cdd9df4a3)"><g clip-path="url(#f0746b03f1)"><g clip-path="url(#98e2020ab7)"><path fill="#000000" d="M 14.125 113.074219 C 14.164062 113.015625 14.207031 112.957031 14.261719 112.90625 L 16.910156 110.3125 C 17.246094 109.980469 17.792969 109.988281 18.125 110.328125 C 18.457031 110.667969 18.453125 111.207031 18.109375 111.542969 L 15.460938 114.136719 C 15.125 114.46875 14.578125 114.460938 14.246094 114.121094 C 13.964844 113.835938 13.925781 113.402344 14.125 113.074219 Z M 14.125 113.074219 " fill-opacity="1" fill-rule="nonzero"/></g></g></g><g clip-path="url(#a5a5d29cb4)"><g clip-path="url(#409dc7b5b9)"><g clip-path="url(#996abeb83b)"><path fill="#000000" d="M 19.878906 107.445312 C 19.914062 107.382812 19.957031 107.328125 20.011719 107.277344 L 27.71875 99.730469 C 28.058594 99.398438 28.601562 99.40625 28.933594 99.746094 C 29.265625 100.082031 29.261719 100.625 28.921875 100.960938 L 21.214844 108.503906 C 20.875 108.835938 20.332031 108.832031 20 108.492188 C 19.71875 108.203125 19.679688 107.773438 19.878906 107.445312 Z M 19.878906 107.445312 " fill-opacity="1" fill-rule="nonzero"/></g></g></g><g clip-path="url(#3915fa0487)"><g clip-path="url(#cf2dd9cbc9)"><g clip-path="url(#04af93564e)"><path fill="#000000" d="M 58.078125 37.699219 C 60.847656 33.132812 64.066406 28.835938 67.066406 25.898438 L 83.15625 10.148438 C 83.492188 9.816406 84.039062 9.820312 84.371094 10.160156 C 84.703125 10.5 84.699219 11.042969 84.355469 11.375 L 68.265625 27.128906 C 62.441406 32.832031 55.769531 43.820312 53.402344 51.621094 L 46.855469 73.164062 C 44.691406 80.292969 39.050781 90.058594 33.441406 96.386719 C 33.128906 96.742188 32.585938 96.777344 32.230469 96.460938 C 31.875 96.144531 31.835938 95.601562 32.15625 95.246094 C 37.53125 89.183594 43.144531 79.472656 45.210938 72.664062 L 51.757812 51.121094 C 52.976562 47.105469 55.304688 42.265625 58.078125 37.699219 Z M 58.078125 37.699219 " fill-opacity="1" fill-rule="nonzero"/></g></g></g><g clip-path="url(#482748c8a3)"><g clip-path="url(#23bbd63fb8)"><g clip-path="url(#22dce9db7c)"><path fill="#000000" d="M 39.957031 37.394531 C 40.714844 36.757812 41.492188 36.144531 42.300781 35.570312 C 42.832031 34.988281 43.425781 34.460938 44.109375 34.058594 C 45.125 33.453125 46.019531 32.652344 47.070312 32.109375 C 47.613281 31.648438 48.09375 31.097656 48.75 30.78125 C 49.984375 30.132812 51.0625 29.160156 52.410156 28.738281 C 53.054688 28.730469 53.609375 28.617188 54.042969 28.121094 C 54.792969 27.855469 55.421875 27.339844 56.199219 27.121094 C 56.792969 26.851562 57.46875 26.910156 58.042969 26.597656 C 58.824219 26.394531 59.566406 26.078125 60.359375 25.902344 C 61.222656 25.824219 61.960938 25.269531 62.828125 25.234375 C 63.976562 24.988281 65.140625 24.839844 66.316406 24.859375 C 67.070312 24.617188 67.75 25.167969 68.464844 24.925781 C 69.003906 24.523438 69.71875 24.664062 70.324219 24.679688 C 70.792969 24.175781 71.511719 24.617188 72.121094 24.507812 C 73.054688 24.5 73.992188 24.675781 74.917969 24.550781 C 75.558594 24.355469 76.242188 24.652344 76.902344 24.644531 C 77.882812 24.726562 78.890625 24.582031 79.839844 24.886719 C 80.480469 24.816406 81.042969 25.183594 81.65625 25.230469 C 82.28125 25.433594 83.035156 25.445312 83.570312 25.789062 C 84.226562 25.933594 84.832031 26.269531 85.503906 26.417969 C 86.074219 26.855469 86.800781 26.527344 87.417969 26.902344 C 88.210938 27.171875 89.03125 27.378906 89.757812 27.820312 C 90.449219 28.105469 91.054688 28.601562 91.75 28.816406 C 92.324219 28.964844 92.804688 29.601562 93.332031 29.578125 C 93.203125 30.125 94.449219 29.804688 94.542969 30.417969 C 94.492188 30.5625 93.9375 31.160156 94.320312 30.789062 C 94.765625 30.21875 95.496094 30.714844 95.820312 31.15625 C 96.203125 31.574219 96.84375 31.140625 97.195312 31.742188 C 97.71875 32.011719 98.257812 32.300781 98.546875 32.789062 C 99.132812 32.511719 99.25 33.628906 99.769531 33.640625 C 100.125 33.84375 100.019531 34.410156 100.539062 34.515625 C 100.996094 34.773438 101.539062 35.050781 101.894531 35.574219 C 102.320312 35.914062 102.359375 36.640625 102.964844 36.410156 C 103.253906 37.023438 104.074219 37.222656 104.25 37.898438 C 104.578125 38.503906 105.355469 38.722656 105.777344 39.300781 C 106.871094 40.398438 108.179688 41.335938 108.941406 42.710938 C 109.476562 42.832031 109.445312 43.261719 109.140625 43.597656 C 109.328125 43.597656 109.84375 43.105469 110.019531 43.671875 C 110.105469 44.023438 109.785156 44.398438 110.375 44.335938 C 111.039062 44.367188 110.765625 45.09375 111.378906 45.300781 C 111.746094 45.816406 112.234375 46.242188 112.492188 46.863281 C 112.996094 47.226562 112.023438 47.738281 112.363281 47.949219 C 112.558594 47.410156 112.957031 47.414062 113.128906 47.964844 C 113.679688 48.386719 113.578125 49.144531 113.996094 49.683594 C 114.324219 50.324219 114.523438 51 114.761719 51.667969 C 114.964844 52.234375 115.335938 52.710938 115.472656 53.292969 C 115.675781 53.875 115.84375 54.472656 116.101562 55.042969 C 116.476562 55.726562 116.324219 56.574219 116.785156 57.226562 C 117.082031 57.804688 117.113281 58.480469 117.34375 59.078125 C 117.664062 59.671875 117.628906 60.460938 117.773438 61.125 C 117.871094 61.828125 118.242188 62.46875 118.261719 63.183594 C 118.5 63.425781 117.667969 63.855469 118.289062 63.761719 C 118.898438 64.101562 118.195312 64.925781 118.414062 65.285156 C 118.871094 65.695312 118.566406 66.570312 118.683594 67.160156 C 118.695312 67.878906 118.941406 68.5625 118.84375 69.292969 C 118.855469 69.839844 118.699219 70.320312 119.023438 70.800781 C 119.066406 71.191406 118.214844 71.640625 118.445312 71.824219 C 119.097656 71.363281 118.519531 72.5625 118.773438 72.882812 C 118.742188 73.648438 118.296875 74.351562 118.398438 75.152344 C 118.230469 75.847656 118.304688 76.570312 118.246094 77.28125 C 118.203125 77.941406 117.941406 78.601562 117.996094 79.253906 C 118.230469 79.824219 117.378906 80.445312 117.835938 81.015625 C 117.832031 81.605469 117.175781 81.953125 117.414062 82.476562 C 117.011719 83.050781 117.273438 83.828125 116.882812 84.390625 C 116.714844 85.160156 116.242188 85.84375 116.214844 86.664062 C 116.167969 87.460938 115.460938 88.039062 115.257812 88.808594 C 115.121094 89.105469 114.988281 89.414062 115.398438 89.300781 C 115.480469 89.757812 114.53125 89.542969 114.675781 90.109375 C 114.359375 90.234375 114.34375 90.90625 114.199219 90.878906 C 113.90625 90.996094 114.386719 91.664062 113.828125 91.785156 C 113.445312 92.25 113.15625 92.804688 112.78125 93.28125 C 113.121094 93.554688 112.628906 94.058594 112.492188 94.3125 C 112.105469 94.359375 111.46875 94.925781 112.167969 94.847656 C 112.113281 95.492188 111.441406 95.871094 111.0625 96.347656 C 110.277344 97.339844 109.617188 98.421875 108.929688 99.480469 C 108.210938 100.417969 107.332031 101.222656 106.53125 102.089844 C 104.714844 103.9375 102.9375 105.824219 101.058594 107.605469 C 100.488281 107.847656 100.144531 108.292969 99.691406 108.730469 C 99.09375 109.300781 98.398438 109.753906 97.820312 110.34375 C 97.25 110.65625 96.808594 111.125 96.195312 111.359375 C 95.710938 111.59375 95.066406 112.179688 94.78125 111.65625 C 94.804688 112.445312 93.8125 112.652344 93.238281 112.96875 C 92.683594 113.347656 92.050781 113.570312 91.4375 113.828125 C 90.734375 114.292969 89.890625 114.410156 89.109375 114.683594 C 88.433594 114.625 87.890625 115.144531 87.21875 115.105469 C 86.894531 115.136719 86.496094 114.875 86.710938 115.390625 C 86.089844 115.59375 85.371094 115.710938 84.730469 115.964844 C 83.933594 116.191406 83.128906 116.433594 82.300781 116.425781 C 81.464844 116.496094 80.699219 116.847656 79.863281 116.894531 C 79.179688 116.910156 78.53125 117.230469 77.855469 117.144531 C 77.175781 117.34375 76.464844 117.390625 75.769531 117.484375 C 75.058594 117.777344 74.285156 117.335938 73.570312 117.402344 C 72.902344 117.765625 72.222656 117.546875 71.542969 117.722656 C 70.625 117.953125 69.679688 117.675781 68.746094 117.683594 C 68.34375 117.601562 67 117.703125 67.503906 116.996094 C 67.132812 117.101562 67.148438 117.667969 66.578125 117.507812 C 65.574219 117.597656 64.667969 117.050781 63.679688 117.023438 C 63.214844 116.960938 62.832031 116.316406 62.390625 116.75 C 61.832031 116.296875 61.09375 116.570312 60.480469 116.238281 C 59.828125 115.996094 59.261719 115.613281 58.609375 115.398438 C 58.011719 115.101562 57.320312 114.921875 56.691406 114.652344 C 56.144531 114.351562 55.613281 114.027344 55.011719 113.84375 C 54.320312 113.613281 53.746094 113.171875 53.160156 112.765625 C 52.511719 112.59375 52.011719 112.132812 51.402344 111.867188 C 50.613281 111.425781 49.761719 111.082031 49.070312 110.488281 C 48.128906 110.003906 47.257812 109.402344 46.421875 108.753906 C 45.894531 108.511719 45.5 107.929688 44.945312 107.9375 C 44.714844 107.71875 44.914062 107.191406 44.398438 107.335938 C 43.425781 106.890625 42.671875 106.089844 41.972656 105.300781 C 41.425781 104.984375 40.929688 104.566406 40.710938 103.953125 C 40.378906 103.695312 39.949219 103.585938 39.753906 103.210938 C 39.125 103.246094 39.222656 102.097656 38.667969 102.117188 C 38.253906 101.640625 37.894531 101.109375 37.484375 100.628906 C 37.050781 100.085938 36.144531 100.039062 35.886719 99.378906 C 35.773438 98.738281 34.742188 98.582031 34.9375 97.886719 C 34.632812 97.441406 34.339844 96.984375 33.925781 96.609375 C 33.558594 95.972656 33.171875 95.328125 32.753906 94.734375 C 32.574219 94.421875 32.660156 94.078125 32.222656 94.164062 C 31.925781 93.648438 31.410156 93.21875 31.640625 92.574219 C 31.246094 92.109375 31.003906 91.589844 30.679688 91.089844 C 30.320312 90.621094 29.859375 90.265625 29.789062 89.625 C 29.332031 89.144531 29.242188 88.496094 28.945312 87.96875 C 28.492188 87.328125 28.34375 86.519531 27.929688 85.859375 C 27.757812 85.085938 27.847656 84.253906 27.484375 83.53125 C 27.515625 82.902344 27.226562 82.339844 27.175781 81.710938 C 27.207031 81.089844 26.832031 80.503906 26.855469 79.898438 C 26.617188 79.34375 26.890625 78.761719 26.714844 78.230469 C 26.542969 77.542969 26.652344 76.859375 26.703125 76.160156 C 26.492188 75.65625 25.960938 74.824219 26.753906 74.476562 C 26.707031 74.019531 26.136719 73.496094 26.246094 72.882812 C 26.238281 72.132812 26.152344 71.347656 26.378906 70.625 C 26.4375 70.109375 26.152344 69.433594 26.234375 68.820312 C 26.242188 67.886719 26.230469 66.9375 26.445312 66.019531 C 26.699219 65.363281 26.425781 64.589844 26.621094 63.871094 C 26.617188 63.199219 27.101562 62.636719 26.980469 61.949219 C 27.207031 61.066406 27.222656 60.128906 27.515625 59.253906 C 27.859375 58.070312 28.324219 56.917969 28.585938 55.707031 C 28.84375 55.023438 29.480469 54.519531 29.574219 53.765625 C 29.792969 53.003906 30.488281 52.492188 30.644531 51.699219 C 30.859375 51.042969 31.140625 50.429688 31.417969 49.800781 C 31.671875 48.796875 32.355469 47.964844 32.628906 46.96875 C 32.921875 46.246094 33.597656 45.769531 33.859375 45.03125 C 34.25 44.464844 34.542969 43.835938 35.019531 43.328125 C 36.019531 42.117188 37.085938 40.953125 37.964844 39.652344 C 38.496094 39.003906 39.050781 38.371094 39.574219 37.722656 C 39.695312 37.609375 39.824219 37.5 39.957031 37.394531 Z M 37.644531 42.640625 C 37.234375 43.257812 36.871094 43.902344 36.363281 44.449219 C 35.914062 45.023438 35.609375 45.695312 35.125 46.25 C 34.757812 46.855469 34.316406 47.40625 33.886719 47.96875 C 33.394531 48.679688 32.957031 49.441406 32.691406 50.261719 C 32.265625 50.851562 32.03125 51.535156 31.691406 52.164062 C 31.53125 52.722656 31.609375 53.207031 31.296875 53.703125 C 30.886719 54.226562 30.765625 54.90625 30.441406 55.480469 C 30.246094 56.171875 29.847656 56.789062 29.726562 57.503906 C 29.28125 58.398438 29.441406 59.460938 28.96875 60.34375 C 28.847656 60.960938 28.597656 61.53125 28.480469 62.152344 C 28.003906 62.960938 28.25 63.945312 27.976562 64.808594 C 27.984375 65.675781 27.765625 66.53125 27.808594 67.402344 C 27.8125 68.078125 27.570312 68.714844 27.617188 69.394531 C 27.566406 70.695312 27.507812 72 27.628906 73.300781 C 27.585938 74.171875 27.625 75.039062 27.722656 75.90625 C 27.660156 76.605469 27.710938 77.28125 27.945312 77.949219 C 27.980469 78.550781 28.117188 79.136719 28.132812 79.746094 C 28.296875 80.308594 28.394531 80.890625 28.582031 81.441406 C 28.847656 82.324219 28.84375 83.261719 29.085938 84.140625 C 29.292969 84.789062 29.398438 85.46875 29.640625 86.101562 C 30.015625 86.578125 30.226562 87.203125 30.449219 87.792969 C 30.652344 88.425781 31.03125 88.988281 31.175781 89.632812 C 31.507812 90.335938 31.9375 91.003906 32.191406 91.71875 C 32.542969 92.273438 32.691406 92.933594 33.089844 93.464844 C 33.210938 94.152344 33.628906 94.699219 34.097656 95.191406 C 34.695312 95.839844 35.21875 96.546875 35.75 97.242188 C 36.175781 97.675781 36.148438 98.394531 36.667969 98.683594 C 37.207031 99.171875 37.679688 99.769531 38.105469 100.304688 C 38.246094 100.738281 38.945312 100.609375 39.109375 101.140625 C 39.515625 101.578125 40.105469 102.089844 40.007812 102.664062 C 39.800781 102.898438 39.644531 103.070312 39.984375 102.777344 C 40.699219 102.214844 40.976562 103.515625 41.554688 103.757812 C 42.132812 104.0625 42.632812 104.484375 43.082031 104.96875 C 43.523438 105.546875 44.242188 105.726562 44.75 106.222656 C 45.179688 106.777344 45.898438 106.796875 46.328125 107.34375 C 47.023438 107.964844 47.839844 108.410156 48.648438 108.859375 C 49.25 109.199219 49.695312 109.859375 50.429688 109.914062 C 51.097656 110.242188 51.695312 110.714844 52.363281 111.046875 C 52.933594 111.476562 53.507812 111.949219 54.21875 112.105469 C 54.71875 112.445312 55.464844 112.484375 55.804688 112.996094 C 56.386719 113.453125 57.089844 113.730469 57.789062 113.976562 C 58.40625 114.238281 59.007812 114.453125 59.632812 114.730469 C 60.222656 114.875 60.820312 114.988281 61.40625 115.175781 C 62.066406 115.21875 62.699219 115.476562 63.386719 115.449219 C 64.117188 115.5 64.851562 115.570312 65.570312 115.691406 C 66.304688 116.097656 67.183594 115.914062 67.984375 116.078125 C 70.046875 116.367188 72.136719 116.421875 74.21875 116.464844 C 74.902344 116.527344 75.59375 116.164062 76.308594 116.25 C 77.324219 116.210938 78.324219 116.070312 79.324219 115.917969 C 80.019531 115.953125 80.675781 115.746094 81.363281 115.679688 C 82.398438 115.515625 83.449219 115.359375 84.441406 115.015625 C 85.050781 115.003906 85.5625 114.980469 86.019531 114.515625 C 86.570312 114.285156 87.089844 114.21875 87.648438 114.035156 C 88.253906 113.789062 88.929688 113.683594 89.464844 113.332031 C 90.144531 113.074219 90.832031 112.832031 91.527344 112.632812 C 92.097656 112.300781 92.804688 112.082031 93.414062 111.75 C 94.09375 111.574219 94.648438 111.144531 95.316406 110.964844 C 95.914062 110.445312 96.691406 110.167969 97.242188 109.585938 C 97.738281 109.164062 97.914062 109.519531 97.664062 109.964844 C 98.351562 109.800781 97.707031 109.023438 98.363281 108.742188 C 99.519531 107.773438 100.855469 107.039062 101.988281 106.035156 C 102.636719 105.753906 103.007812 105.179688 103.429688 104.640625 C 104.667969 103.289062 106.054688 102.039062 107.003906 100.449219 C 107.445312 99.816406 108.140625 99.425781 108.554688 98.765625 C 108.617188 98.5 109.3125 98.863281 109.074219 98.53125 C 108.496094 98.617188 109.296875 97.546875 109.433594 97.265625 C 110.355469 95.6875 111.472656 94.230469 112.308594 92.597656 C 112.636719 92.089844 112.980469 91.660156 113.066406 91.054688 C 113.316406 90.53125 114.050781 90.617188 114.015625 89.933594 C 113.96875 89.683594 113.773438 90.3125 113.703125 90.417969 C 113.082031 89.988281 114.007812 89.09375 113.976562 88.472656 C 114.222656 87.773438 114.386719 87.035156 114.769531 86.386719 C 115.027344 85.683594 115.140625 84.941406 115.445312 84.25 C 115.59375 83.632812 115.800781 83.015625 116.058594 82.429688 C 116.109375 81.898438 116.101562 81.382812 116.34375 80.871094 C 116.457031 80.269531 116.664062 79.683594 116.726562 79.070312 C 116.742188 78.351562 117.085938 77.75 117.101562 77.0625 C 117.085938 76.34375 117.214844 75.648438 117.269531 74.914062 C 117.410156 74.308594 117.160156 73.691406 117.476562 73.113281 C 117.359375 71.796875 117.453125 70.46875 117.421875 69.144531 C 117.46875 68.292969 117.414062 67.4375 117.183594 66.613281 C 117.164062 65.96875 117.246094 65.3125 117.136719 64.660156 C 117.042969 63.960938 116.839844 63.285156 116.796875 62.582031 C 116.589844 61.890625 116.503906 61.175781 116.289062 60.488281 C 116.074219 59.820312 116.023438 59.082031 115.675781 58.464844 C 115.882812 57.851562 115.226562 57.363281 115.335938 56.769531 C 115.128906 56.488281 115.320312 56.171875 114.980469 55.910156 C 114.660156 55.332031 114.8125 54.683594 114.410156 54.152344 C 114.230469 53.433594 113.679688 52.878906 113.644531 52.121094 C 113.535156 51.59375 113.105469 51.160156 113.015625 50.703125 C 112.457031 50.558594 112.9375 49.773438 112.597656 49.585938 C 112.285156 49.15625 112.027344 48.511719 111.628906 48.058594 C 111.46875 47.640625 110.769531 47.230469 110.980469 46.820312 C 110.496094 46.667969 111.023438 46.117188 110.378906 46.144531 C 109.941406 45.8125 109.578125 45.140625 109.6875 44.660156 C 109.164062 44.980469 109.03125 44.023438 109.503906 43.828125 C 109.257812 43.925781 108.421875 43.953125 108.316406 43.371094 C 107.871094 42.726562 107.101562 42.425781 106.699219 41.765625 C 105.898438 40.839844 104.964844 40.042969 104.203125 39.082031 C 103.832031 38.441406 103.015625 38.28125 102.746094 37.59375 C 102.289062 37.375 101.832031 36.828125 101.535156 36.683594 C 101.917969 36.117188 101.097656 36.636719 100.886719 36.207031 C 100.082031 35.628906 99.175781 35.078125 98.6875 34.191406 C 98.070312 34.265625 98.953125 33.804688 98.445312 33.804688 C 97.535156 33.804688 96.824219 33.148438 96.199219 32.570312 C 95.570312 32.351562 94.902344 32.210938 94.402344 31.734375 C 93.851562 31.417969 93.191406 31.265625 92.882812 30.722656 C 92.417969 30.84375 92.484375 30.429688 92.011719 30.609375 C 91.316406 30.195312 90.71875 29.511719 89.878906 29.390625 C 89.273438 29.277344 88.613281 29.167969 88.03125 28.890625 C 87.3125 28.539062 86.484375 28.5 85.785156 28.101562 C 85.164062 27.976562 84.523438 27.890625 83.917969 27.683594 C 82.902344 27.40625 81.898438 27.015625 80.855469 26.867188 C 80.195312 26.703125 79.507812 26.605469 78.832031 26.472656 C 78.203125 26.300781 77.648438 26.339844 77.058594 26.214844 C 76.386719 26.117188 75.707031 26.03125 75.015625 26.019531 C 74.328125 25.949219 73.644531 26.144531 72.960938 25.988281 C 72.328125 25.890625 71.667969 25.960938 71.046875 25.804688 C 70.484375 26.46875 69.667969 25.8125 68.929688 25.972656 C 68.25 26.046875 67.578125 26.289062 66.882812 26.105469 C 66.492188 25.851562 66.101562 26.183594 65.898438 26.402344 C 65.941406 25.917969 65.308594 26.375 65.066406 26.152344 C 64.417969 26.332031 63.78125 26.5625 63.105469 26.601562 C 62.441406 26.871094 61.71875 26.941406 61.074219 27.277344 C 60.371094 27.574219 59.59375 27.640625 58.90625 27.976562 C 57.890625 28.328125 56.824219 28.589844 55.882812 29.09375 C 55.207031 29.175781 54.59375 29.492188 53.980469 29.757812 C 53.296875 30.042969 52.582031 30.316406 51.964844 30.695312 C 51.371094 31.1875 50.519531 31.261719 49.988281 31.855469 C 49.320312 32.246094 48.574219 32.503906 47.953125 32.984375 C 47.375 33.398438 46.886719 33.933594 46.257812 34.28125 C 44.859375 35.351562 43.585938 36.578125 42.226562 37.695312 C 40.648438 39.246094 39.113281 40.847656 37.707031 42.554688 Z M 42.492188 40.191406 C 42.9375 39.835938 43.363281 39.347656 43.847656 38.992188 C 44.449219 38.636719 45.019531 38.199219 45.238281 37.507812 C 45.65625 36.992188 46.308594 36.75 46.777344 36.289062 C 47.492188 35.6875 48.207031 35.070312 49.03125 34.640625 C 49.628906 34.175781 50.34375 33.902344 50.980469 33.492188 C 51.644531 33.175781 52.132812 32.625 52.835938 32.410156 C 53.472656 32.277344 54.070312 31.972656 54.695312 31.773438 C 55.269531 31.425781 55.953125 31.320312 56.507812 30.945312 C 57.21875 30.867188 57.90625 30.597656 58.523438 30.226562 C 59.109375 29.921875 59.667969 29.609375 60.339844 29.546875 C 61.007812 29.347656 61.660156 29.09375 62.328125 28.898438 C 62.957031 28.539062 63.769531 28.792969 64.488281 28.503906 C 65.550781 28.105469 66.703125 28.207031 67.800781 27.984375 C 68.453125 28.003906 69.078125 27.804688 69.722656 27.757812 C 70.351562 27.734375 70.960938 27.792969 71.582031 27.867188 C 72.292969 27.976562 72.988281 28.035156 73.695312 27.902344 C 74.453125 28.019531 75.207031 27.929688 75.964844 27.988281 C 76.65625 28.09375 77.332031 28.203125 78.027344 28.308594 C 78.664062 28.675781 79.324219 28.273438 79.980469 28.386719 C 81.050781 28.527344 82.109375 28.746094 83.140625 29.058594 C 84.117188 29.519531 85.273438 29.429688 86.207031 29.992188 C 86.828125 30.105469 87.351562 30.421875 87.980469 30.492188 C 88.554688 30.667969 89.128906 30.867188 89.660156 31.148438 C 90.34375 31.265625 90.964844 31.613281 91.570312 31.9375 C 91.90625 32.089844 92.707031 32.65625 91.871094 32.402344 C 91.191406 32.300781 90.542969 32.183594 89.964844 31.773438 C 89.132812 31.398438 88.242188 31.179688 87.375 30.921875 C 86.679688 30.578125 85.90625 30.429688 85.167969 30.21875 C 84.484375 30.105469 83.824219 29.894531 83.164062 29.695312 C 81.617188 29.410156 80.074219 29.097656 78.515625 28.863281 C 77.808594 28.691406 77.082031 28.707031 76.351562 28.640625 C 75.753906 28.398438 75.144531 28.632812 74.511719 28.488281 C 73.8125 28.605469 73.078125 28.675781 72.367188 28.570312 C 71.085938 28.472656 69.785156 28.570312 68.5 28.636719 C 67.484375 28.785156 66.457031 28.8125 65.4375 28.9375 C 64.558594 29.046875 63.691406 29.246094 62.808594 29.332031 C 61.210938 29.695312 59.628906 30.183594 58.152344 30.90625 C 56.597656 31.460938 55.195312 32.351562 53.695312 33.015625 C 52.207031 33.703125 50.820312 34.59375 49.390625 35.398438 C 47.933594 36.324219 46.609375 37.449219 45.300781 38.570312 C 43.414062 40.234375 41.699219 42.078125 40.054688 43.976562 C 39.457031 44.933594 38.691406 45.769531 38.046875 46.695312 C 37.367188 47.640625 36.550781 48.515625 36.117188 49.609375 C 35.347656 50.546875 34.832031 51.652344 34.171875 52.667969 C 33.574219 53.84375 33.144531 55.09375 32.558594 56.277344 C 31.773438 58 31.34375 59.855469 30.71875 61.632812 C 30.140625 62.085938 30.445312 60.863281 30.578125 60.582031 C 30.875 59.84375 30.707031 58.992188 31.121094 58.292969 C 31.164062 57.582031 31.519531 56.980469 31.695312 56.316406 C 31.800781 55.324219 32.476562 54.515625 32.824219 53.601562 C 32.984375 52.90625 33.535156 52.429688 33.792969 51.773438 C 34.230469 51.214844 34.589844 50.609375 34.867188 49.957031 C 35.25 49.378906 35.390625 48.675781 35.917969 48.199219 C 37.269531 46.339844 38.625 44.480469 40.113281 42.726562 C 40.855469 41.875 41.554688 40.96875 42.410156 40.226562 Z M 45.085938 39.789062 C 45.636719 39.480469 45.929688 38.878906 46.566406 38.667969 C 47.171875 38.132812 47.960938 37.859375 48.589844 37.34375 C 49.210938 36.96875 49.722656 36.453125 50.289062 36.019531 C 51.003906 35.644531 51.472656 34.925781 52.242188 34.640625 C 53.242188 34.035156 54.179688 33.277344 55.324219 32.953125 C 56.140625 32.601562 56.957031 32.246094 57.828125 32.039062 C 58.808594 31.644531 59.933594 31.714844 60.855469 31.167969 C 61.46875 31.183594 62.074219 30.953125 62.707031 30.957031 C 63.574219 30.890625 64.382812 30.429688 65.265625 30.542969 C 66.058594 30.363281 66.894531 30.425781 67.703125 30.269531 C 68.679688 30.191406 69.667969 30.304688 70.636719 30.105469 C 71.335938 29.949219 72.027344 30.179688 72.730469 30.148438 C 73.402344 30.101562 74.054688 30.296875 74.722656 30.304688 C 75.675781 30.238281 76.625 30.386719 77.570312 30.460938 C 78.296875 30.414062 78.988281 30.71875 79.710938 30.742188 C 80.285156 30.925781 80.835938 30.925781 81.449219 31 C 82.074219 31.222656 82.734375 31.265625 83.363281 31.464844 C 84.335938 31.714844 85.339844 31.914062 86.246094 32.355469 C 86.8125 32.453125 87.324219 32.667969 87.878906 32.828125 C 88.472656 33.09375 89.050781 33.347656 89.664062 33.589844 C 90.6875 34.058594 91.691406 34.605469 92.761719 34.941406 C 93.25 35.3125 93.890625 35.398438 94.378906 35.78125 C 94.988281 36.199219 95.632812 36.570312 96.257812 36.941406 C 96.574219 37.285156 97.039062 37.3125 97.175781 37.773438 C 98.015625 38.25 98.746094 38.902344 99.472656 39.53125 C 100.207031 40.457031 101.109375 41.238281 101.753906 42.230469 C 102.1875 42.796875 102.871094 43.183594 103.148438 43.859375 C 102.949219 44.28125 102.425781 43.320312 102.167969 43.167969 C 100.785156 41.613281 99.210938 40.25 97.726562 38.796875 C 97.804688 38.257812 96.984375 38.492188 96.679688 38.050781 C 95.8125 37.464844 95.078125 36.664062 94.078125 36.308594 C 93.65625 35.816406 92.957031 35.730469 92.507812 35.320312 C 91.894531 34.886719 91.039062 34.964844 90.417969 34.519531 C 89.871094 34.277344 89.238281 34.167969 88.761719 33.839844 C 87.914062 33.878906 87.160156 33.378906 86.355469 33.160156 C 85.6875 32.917969 84.992188 32.726562 84.359375 32.394531 C 83.761719 32.230469 83.210938 32.222656 82.605469 32.140625 C 82.164062 32.226562 82.074219 31.699219 81.730469 32.039062 C 81.097656 31.964844 80.453125 31.835938 79.855469 31.84375 C 79.226562 31.511719 78.480469 31.652344 77.847656 31.359375 C 77.148438 31.332031 76.441406 31.328125 75.769531 31.101562 C 75.089844 31.09375 74.40625 31.023438 73.761719 30.984375 C 73.167969 31.144531 72.550781 30.867188 71.941406 30.925781 C 71.410156 31.039062 70.695312 30.609375 70.382812 31.144531 C 69.902344 30.765625 69.171875 30.875 68.628906 30.984375 C 68.027344 30.992188 67.441406 31.238281 66.828125 31.203125 C 66.019531 31.230469 65.234375 31.453125 64.425781 31.460938 C 63.582031 31.492188 62.765625 31.695312 61.960938 31.921875 C 61.195312 32.015625 60.488281 32.367188 59.722656 32.484375 C 58.953125 32.644531 58.238281 32.980469 57.464844 33.125 C 56.707031 33.328125 56.140625 33.878906 55.527344 34.3125 C 54.964844 34.65625 54.121094 34.722656 53.714844 35.152344 C 53.679688 35.734375 52.730469 35.398438 52.414062 35.890625 C 51.824219 36.226562 51.179688 36.433594 50.667969 36.890625 C 49.734375 37.40625 48.828125 37.953125 47.988281 38.613281 C 46.960938 39.308594 45.957031 40.050781 45.117188 40.972656 L 44.125 41.996094 C 42.851562 43.121094 42.8125 42.992188 42.390625 43.695312 C 42.128906 44.214844 41.621094 44.65625 41.328125 45.234375 C 40.875 45.875 40.527344 46.59375 39.9375 47.128906 C 39.664062 47.664062 39.269531 48.128906 38.910156 48.613281 C 38.566406 49.1875 38.195312 49.71875 37.8125 50.265625 C 37.230469 50.75 37.167969 51.53125 36.671875 52.058594 C 36.457031 52.3125 36.234375 52.792969 36.625 52.316406 C 36.699219 52.816406 35.898438 53.203125 35.941406 53.808594 C 35.613281 54.054688 35.292969 54.347656 35.601562 54.695312 C 35.3125 55.300781 34.984375 55.871094 34.738281 56.515625 C 34.554688 57.179688 34.148438 57.71875 33.976562 58.335938 C 34.074219 59.09375 33.5 59.65625 33.320312 60.34375 C 32.910156 60.925781 33.230469 61.617188 32.765625 62.140625 C 32.96875 62.691406 32.386719 63.300781 32.503906 63.960938 C 32.546875 64.726562 32.148438 65.414062 32.210938 66.183594 C 31.976562 66.796875 31.980469 67.449219 31.871094 68.101562 C 31.808594 68.792969 31.785156 69.492188 31.898438 70.179688 C 32.015625 70.835938 31.667969 71.523438 31.796875 72.191406 C 31.847656 73.179688 31.859375 74.175781 31.726562 75.152344 C 31.832031 75.753906 32.121094 76.328125 32.058594 76.960938 C 32.039062 77.65625 32.222656 78.328125 32.386719 78.992188 C 32.507812 79.625 32.542969 80.320312 32.824219 80.890625 C 32.925781 81.570312 33.289062 82.1875 33.324219 82.886719 C 33.667969 83.914062 33.882812 84.988281 34.371094 85.964844 C 34.894531 87.007812 35.261719 88.125 35.855469 89.132812 C 36.167969 89.8125 36.679688 90.402344 36.769531 91.164062 C 37.039062 91.75 37.308594 92.339844 37.710938 92.875 C 38.523438 94.066406 39.210938 95.367188 40.246094 96.386719 C 42.027344 98.558594 44.15625 100.40625 46.269531 102.242188 C 47.757812 103.441406 49.410156 104.417969 50.886719 105.632812 C 51.367188 106.015625 51.980469 106.050781 52.261719 106.660156 C 52.914062 106.742188 53.367188 107.371094 54.09375 107.464844 C 54.929688 107.699219 55.644531 108.246094 56.492188 108.457031 C 56.859375 108.367188 57.023438 108 56.808594 108.523438 C 57.109375 109.03125 57.949219 108.980469 58.453125 109.277344 C 58.992188 109.683594 59.636719 109.816406 60.257812 110.070312 C 60.90625 110.285156 61.605469 110.378906 62.1875 110.757812 C 62.984375 110.980469 63.800781 111.136719 64.609375 111.320312 C 65.6875 111.539062 66.800781 111.480469 67.878906 111.710938 C 69.128906 111.75 70.371094 111.972656 71.621094 112.019531 C 73.210938 112.140625 74.808594 112.0625 76.382812 111.816406 C 77.574219 111.675781 78.785156 111.632812 79.945312 111.300781 C 80.46875 111.5625 80.996094 111.542969 81.535156 111.265625 C 82.402344 111.085938 83.253906 110.839844 84.117188 110.660156 C 85.035156 110.601562 85.835938 110.074219 86.722656 109.878906 C 87.335938 109.582031 88.019531 109.449219 88.617188 109.109375 C 89.257812 108.871094 89.859375 108.570312 90.425781 108.203125 C 90.910156 107.988281 91.507812 107.640625 91.960938 107.570312 C 91.015625 108.324219 89.847656 108.722656 88.84375 109.390625 C 88.261719 109.667969 87.695312 109.96875 87.070312 110.125 C 86.507812 110.425781 85.925781 110.714844 85.265625 110.722656 C 84.527344 110.878906 83.835938 111.203125 83.074219 111.269531 C 82.464844 111.503906 81.726562 111.25 81.242188 111.726562 C 80.511719 111.753906 79.789062 111.976562 79.050781 112.066406 C 78.121094 112.207031 77.179688 112.230469 76.246094 112.308594 C 73.898438 112.460938 71.542969 112.371094 69.195312 112.292969 C 68.5625 112.101562 67.929688 112.113281 67.28125 112.125 C 66.609375 112.089844 65.933594 111.988281 65.28125 111.847656 C 64.691406 111.921875 64.082031 111.546875 63.480469 111.460938 C 62.851562 111.214844 62.25 111.089844 61.59375 110.933594 C 60.886719 110.734375 60.226562 110.414062 59.511719 110.253906 C 58.886719 109.910156 58.167969 109.855469 57.566406 109.492188 C 56.867188 109.460938 56.390625 108.859375 55.734375 108.753906 C 54.78125 108.363281 53.769531 108.054688 52.871094 107.527344 C 52.445312 107.355469 52.128906 107.066406 51.679688 106.984375 C 51.136719 106.472656 50.484375 106.082031 49.878906 105.648438 C 49.378906 105.304688 48.691406 105.039062 48.40625 104.585938 C 47.546875 104.046875 46.832031 103.300781 46.003906 102.71875 C 45.242188 102.714844 45.042969 101.765625 44.421875 101.4375 C 43.957031 100.992188 43.328125 100.671875 42.992188 100.117188 C 43.097656 99.726562 42.488281 100.089844 42.421875 99.632812 C 41.851562 98.929688 41.199219 98.296875 40.6875 97.546875 C 40.074219 97.3125 39.898438 96.558594 39.414062 96.121094 C 39.074219 95.570312 38.671875 95.066406 38.273438 94.570312 C 38.0625 93.890625 37.566406 93.40625 37.148438 92.855469 C 36.695312 92.257812 36.582031 91.488281 36.148438 90.886719 C 35.929688 90.339844 35.679688 89.828125 35.371094 89.328125 C 35.121094 88.640625 34.730469 88.03125 34.359375 87.40625 C 34.242188 86.800781 33.980469 86.21875 33.683594 85.667969 C 33.175781 84.699219 33.121094 83.554688 32.585938 82.597656 C 32.5625 81.914062 32.328125 81.296875 32.171875 80.652344 C 31.949219 80.128906 31.777344 79.527344 31.792969 78.957031 C 31.4375 77.945312 31.273438 76.863281 31.066406 75.804688 C 31.203125 75.125 30.570312 74.480469 30.980469 73.867188 C 31.269531 73.425781 30.410156 73.039062 30.757812 72.488281 C 30.804688 71.796875 30.554688 71.113281 30.667969 70.414062 C 30.648438 69.738281 30.894531 69.082031 30.9375 68.433594 C 30.808594 67.726562 30.96875 66.976562 30.992188 66.246094 C 31.089844 65.539062 31.25 64.867188 31.285156 64.160156 C 31.46875 63.425781 31.734375 62.707031 31.8125 61.949219 C 32.164062 60.625 32.542969 59.304688 32.953125 58 C 33.21875 57.148438 33.636719 56.347656 33.875 55.488281 C 33.9375 54.816406 34.496094 54.359375 34.753906 53.75 C 35.296875 53.066406 35.554688 52.210938 36.027344 51.480469 C 36.523438 50.570312 37.113281 49.714844 37.550781 48.777344 C 37.851562 48.167969 38.296875 47.628906 38.679688 47.054688 C 39.738281 45.675781 40.9375 44.40625 42.035156 43.058594 C 42.261719 42.386719 42.96875 42.175781 43.320312 41.605469 C 43.878906 40.976562 44.433594 40.320312 45.085938 39.789062 Z M 31.984375 59.792969 C 32.511719 60.035156 31.609375 60.5625 31.761719 59.945312 C 31.800781 59.859375 31.890625 59.792969 31.984375 59.792969 Z M 30.484375 62.144531 C 30.46875 62.882812 30.269531 63.621094 30.148438 64.351562 C 30.070312 65.046875 29.964844 65.738281 29.96875 66.445312 C 29.855469 67.609375 29.757812 68.773438 29.824219 69.941406 C 29.851562 71.359375 29.800781 72.785156 29.957031 74.195312 C 29.886719 74.921875 30.082031 75.652344 30.195312 76.363281 C 30.261719 77.113281 30.394531 77.851562 30.546875 78.589844 C 30.640625 79.339844 30.839844 80.070312 30.957031 80.816406 C 31.152344 81.402344 31.152344 82.0625 31.351562 82.671875 C 31.628906 83.371094 31.761719 84.121094 31.929688 84.851562 C 32.210938 85.574219 32.449219 86.308594 32.796875 87.007812 C 33.039062 87.773438 33.507812 88.449219 33.746094 89.222656 C 34.089844 89.910156 34.570312 90.519531 34.886719 91.226562 C 35.320312 92.136719 35.910156 92.953125 36.488281 93.777344 C 37.035156 94.757812 37.878906 95.523438 38.449219 96.496094 C 39.34375 97.746094 40.25 99.007812 41.359375 100.074219 C 42.253906 100.914062 42.921875 101.972656 43.859375 102.773438 C 44.386719 103.355469 45.046875 103.796875 45.566406 104.382812 C 45.257812 104.324219 44.460938 103.773438 44.003906 103.492188 C 43.363281 103.007812 42.675781 102.539062 42.320312 101.789062 C 42.066406 101.117188 41.300781 100.980469 41.066406 100.359375 C 40.375 99.550781 39.527344 98.886719 38.851562 98.0625 C 38.507812 97.535156 38.09375 97.042969 37.796875 96.484375 C 37.40625 95.960938 36.839844 95.5625 36.542969 94.980469 C 36.238281 94.457031 36.003906 93.816406 35.59375 93.335938 C 35.257812 92.75 34.722656 92.273438 34.488281 91.613281 C 34.007812 91.128906 33.820312 90.554688 33.425781 89.996094 C 33.152344 89.292969 32.609375 88.683594 32.5 87.925781 C 32.109375 87.441406 32.160156 86.847656 31.847656 86.34375 C 31.628906 85.726562 31.550781 85.082031 31.164062 84.53125 C 30.761719 83.699219 31.003906 82.726562 30.601562 81.890625 C 30.4375 81.273438 30.449219 80.628906 30.183594 80.039062 C 29.90625 79.304688 29.871094 78.53125 29.730469 77.808594 C 29.496094 77.046875 29.566406 76.21875 29.300781 75.460938 C 29.179688 74.625 29.226562 73.78125 29.308594 72.949219 C 29.148438 72.242188 29.300781 71.550781 29.273438 70.835938 C 29.300781 69.957031 29.105469 69.085938 29.28125 68.210938 C 29.472656 67.566406 29.367188 66.882812 29.515625 66.226562 C 29.707031 65.234375 29.828125 64.234375 29.976562 63.238281 C 30.09375 63.023438 30.140625 61.976562 30.484375 62.144531 Z M 92.753906 32.488281 C 93.285156 32.945312 92.164062 32.570312 92.753906 32.488281 Z M 95.785156 34.0625 C 96.292969 34.371094 95.53125 34.28125 95.6875 34.027344 Z M 96.628906 34.589844 C 97.226562 34.941406 97.800781 35.351562 98.308594 35.824219 C 97.804688 35.910156 97.28125 35.257812 96.785156 35.050781 C 96.785156 34.910156 96.21875 34.515625 96.628906 34.589844 Z M 100.277344 37.375 C 100.542969 38.039062 99.660156 37.113281 100.277344 37.375 Z M 100.714844 37.75 C 101.679688 38.542969 102.53125 39.464844 103.445312 40.316406 C 104.078125 40.917969 104.652344 41.570312 105.164062 42.277344 C 105.988281 43.289062 107.039062 44.140625 107.664062 45.296875 C 108.199219 46.257812 108.898438 47.125 109.382812 48.117188 C 109.828125 48.628906 110 49.246094 110.308594 49.839844 C 110.65625 50.40625 111.09375 50.875 111.148438 51.570312 C 111.40625 52.363281 111.914062 53.046875 112.078125 53.878906 C 112.316406 54.488281 112.566406 55.046875 112.765625 55.699219 C 113.050781 56.523438 113.398438 57.335938 113.574219 58.1875 C 113.699219 58.863281 113.960938 59.539062 114.105469 60.226562 C 114.535156 61.308594 114.628906 62.484375 114.777344 63.628906 C 114.914062 64.652344 115.3125 65.617188 115.378906 66.65625 C 115.546875 67.910156 115.445312 69.191406 115.671875 70.4375 C 115.617188 71.15625 115.566406 71.835938 115.449219 72.554688 C 115.226562 73.792969 115.320312 75.0625 114.996094 76.285156 C 115.039062 76.664062 114.585938 77.277344 114.570312 76.585938 C 114.699219 75.972656 114.832031 75.347656 114.871094 74.726562 C 114.789062 73.984375 115.136719 73.242188 114.890625 72.519531 C 114.867188 71.84375 115.105469 71.195312 115.023438 70.503906 C 115.007812 69.640625 115.046875 68.769531 114.929688 67.914062 C 114.785156 67.203125 114.765625 66.457031 114.632812 65.742188 C 114.398438 65.03125 114.402344 64.273438 114.230469 63.554688 C 113.972656 62.964844 113.855469 62.316406 113.761719 61.679688 C 113.527344 61.066406 113.511719 60.402344 113.347656 59.761719 C 113.046875 59.140625 112.976562 58.449219 112.65625 57.832031 C 112.472656 56.882812 112.167969 55.960938 111.984375 55.011719 C 111.726562 54.367188 111.679688 53.664062 111.265625 53.089844 C 111.0625 52.511719 110.90625 51.902344 110.53125 51.402344 C 110.34375 50.519531 109.871094 49.742188 109.367188 49.011719 C 109 48.453125 108.773438 47.769531 108.300781 47.300781 C 107.761719 46.667969 107.292969 45.976562 106.730469 45.359375 C 106.078125 44.535156 105.351562 43.726562 104.96875 42.734375 C 104.363281 42.386719 104.050781 41.714844 103.550781 41.230469 C 102.867188 40.378906 102.132812 39.550781 101.304688 38.835938 C 100.996094 38.773438 100.183594 37.875 100.714844 37.75 Z M 103.375 44.238281 C 103.796875 44.1875 104.28125 45.113281 103.984375 45.164062 C 103.375 45.050781 103.515625 44.617188 103.375 44.238281 Z M 104.753906 45.78125 C 105.308594 46.523438 105.886719 47.253906 106.519531 47.929688 C 107.332031 49.222656 108.023438 50.59375 108.765625 51.925781 C 109.109375 52.660156 109.574219 53.378906 109.679688 54.191406 C 109.109375 54.203125 109.128906 53.167969 108.761719 52.769531 C 108.457031 52.125 108.125 51.523438 107.824219 50.878906 C 107.4375 50.328125 107.074219 49.792969 106.808594 49.15625 C 106.164062 48.175781 105.320312 47.324219 104.796875 46.261719 C 104.382812 46.128906 104.132812 45.027344 104.753906 45.78125 Z M 50.585938 107.578125 C 51.152344 108.054688 49.859375 107.816406 50.429688 107.539062 L 50.507812 107.546875 Z M 51.246094 108.066406 C 51.996094 108.464844 52.710938 108.941406 53.523438 109.207031 C 54.082031 109.535156 54.625 109.882812 55.210938 110.167969 C 55.757812 110.523438 56.324219 110.84375 56.917969 111.113281 C 58.058594 111.464844 59.089844 112.097656 60.25 112.390625 C 61.273438 112.703125 62.273438 113.101562 63.328125 113.296875 C 64.054688 113.714844 62.816406 113.675781 62.550781 113.472656 C 61.40625 113.265625 60.261719 112.976562 59.210938 112.464844 C 58.53125 112.140625 57.734375 112.085938 57.117188 111.644531 C 56.492188 111.398438 55.851562 111.136719 55.265625 110.800781 C 54.621094 110.371094 53.921875 110.0625 53.230469 109.722656 C 52.515625 109.304688 51.828125 108.824219 51.191406 108.296875 C 51.101562 108.21875 51.003906 107.925781 51.246094 108.066406 Z M 110.609375 56.453125 C 111.140625 56.929688 111.113281 57.78125 111.433594 58.402344 C 111.851562 59.46875 111.992188 60.613281 112.390625 61.6875 C 112.746094 62.625 112.816406 63.628906 113.011719 64.605469 C 113.335938 65.339844 113.226562 66.167969 113.378906 66.945312 C 113.554688 68.542969 113.554688 70.164062 113.414062 71.765625 C 113.289062 72.074219 113.445312 72.851562 113.140625 72.898438 C 113.03125 72.179688 112.847656 71.457031 112.816406 70.722656 C 112.816406 69.921875 112.917969 69.070312 112.566406 68.328125 C 112.742188 67.597656 112.421875 66.871094 112.472656 66.128906 C 112.480469 65.371094 112.355469 64.589844 112.519531 63.851562 C 112.539062 63.191406 112.105469 62.589844 112.121094 61.945312 C 111.734375 61.484375 111.988281 60.886719 111.59375 60.421875 C 111.25 59.84375 111.34375 59.136719 111.039062 58.535156 C 110.921875 57.902344 110.464844 57.402344 110.464844 56.730469 C 110.449219 56.523438 110.226562 56.191406 110.609375 56.453125 Z M 64.308594 113.535156 C 64.71875 113.515625 65.1875 114.027344 64.484375 113.816406 C 64.164062 113.832031 63.351562 113.449219 64.121094 113.511719 L 64.210938 113.523438 Z M 65.476562 113.890625 C 65.945312 113.773438 66.007812 114.25 65.519531 114.0625 C 65.332031 114.011719 65.097656 113.863281 65.476562 113.890625 Z M 68.152344 114.175781 C 68.667969 114.199219 68.554688 114.730469 68.074219 114.464844 C 67.777344 114.4375 67.910156 114.117188 68.152344 114.175781 Z M 69.402344 114.390625 C 69.6875 114.367188 70.722656 114.554688 70.011719 114.738281 C 69.710938 114.710938 68.746094 114.796875 68.914062 114.390625 C 69.070312 114.339844 69.242188 114.363281 69.402344 114.390625 Z M 71.464844 114.515625 C 71.878906 114.464844 72.515625 114.738281 71.753906 114.75 C 71.511719 114.746094 70.515625 114.867188 70.753906 114.519531 C 70.988281 114.480469 71.230469 114.503906 71.464844 114.515625 Z M 73.21875 114.402344 C 74.476562 114.402344 75.726562 114.191406 76.980469 114.164062 C 77.5 114.097656 78.332031 113.730469 78.695312 114.113281 C 77.324219 114.699219 75.78125 114.398438 74.339844 114.617188 C 73.792969 114.664062 72.976562 114.804688 72.5625 114.609375 C 72.6875 114.378906 72.996094 114.398438 73.21875 114.402344 Z M 113.144531 73.242188 C 113.324219 73.84375 112.984375 74.484375 112.90625 75.09375 C 112.765625 75.410156 112.882812 76.417969 112.4375 76.261719 C 112.632812 75.605469 112.460938 74.890625 112.722656 74.25 C 112.796875 74.003906 112.707031 73.078125 113.144531 73.242188 Z M 112.710938 76.554688 C 112.777344 77.085938 112.378906 77.628906 112.476562 78.195312 C 112.230469 79.089844 112.316406 80.078125 111.851562 80.914062 C 111.664062 81.539062 111.558594 82.179688 111.429688 82.824219 C 111.199219 83.460938 111.0625 84.136719 110.757812 84.742188 C 110.398438 85.214844 110.527344 85.90625 110.191406 86.414062 C 109.328125 87.78125 108.710938 89.296875 107.949219 90.722656 C 107.648438 91.277344 107.308594 91.804688 107.011719 92.367188 C 106.59375 93.347656 106.058594 94.277344 105.527344 95.199219 C 104.597656 96.730469 103.371094 98.039062 102.28125 99.449219 C 101.539062 100.566406 100.503906 101.453125 99.5625 102.398438 C 98.621094 103.265625 97.691406 104.199219 96.515625 104.746094 C 96.160156 104.578125 97.117188 104.253906 97.269531 104.007812 C 99.089844 102.429688 100.785156 100.707031 102.386719 98.910156 C 103.550781 97.546875 104.601562 96.078125 105.417969 94.480469 C 106.191406 93.078125 106.933594 91.648438 107.769531 90.289062 C 108.039062 89.597656 108.515625 89 108.792969 88.304688 C 109.238281 87.410156 109.671875 86.511719 110.015625 85.570312 C 110.324219 85.007812 110.398438 84.378906 110.667969 83.804688 C 110.722656 83.175781 110.964844 82.652344 111.140625 82.058594 C 111.378906 81.296875 111.480469 80.5 111.71875 79.753906 C 111.871094 79.105469 112.167969 78.492188 112.09375 77.792969 C 112.273438 77.457031 112.21875 76.480469 112.710938 76.554688 Z M 80.015625 113.75 C 81.265625 113.597656 82.445312 113.125 83.660156 112.820312 C 84.199219 112.496094 84.8125 112.371094 85.433594 112.335938 C 86.171875 112.28125 86.847656 111.984375 87.511719 111.683594 C 87.8125 111.425781 88.386719 111.761719 87.820312 111.8125 C 87.207031 112.085938 86.695312 112.441406 85.996094 112.460938 C 85.40625 112.820312 84.671875 112.808594 84.09375 113.199219 C 83.230469 113.273438 82.378906 113.472656 81.550781 113.71875 C 80.933594 113.6875 80.292969 113.988281 79.722656 113.960938 C 79.753906 113.832031 79.90625 113.789062 80.015625 113.75 Z M 114.394531 78.976562 C 114.566406 79.550781 114.105469 80.316406 114.074219 80.980469 C 113.902344 81.78125 113.617188 82.558594 113.449219 83.359375 C 113.390625 84.019531 112.914062 84.554688 112.804688 85.210938 C 112.515625 85.984375 112.15625 86.738281 111.9375 87.53125 C 111.515625 88.167969 111.304688 88.910156 110.945312 89.574219 C 110.652344 90.214844 110.285156 90.792969 109.914062 91.390625 C 109.574219 92.351562 108.96875 93.199219 108.523438 94.117188 C 108.195312 94.765625 107.773438 95.367188 107.4375 96.007812 C 106.632812 96.839844 106.210938 97.964844 105.410156 98.804688 C 105.039062 98.648438 105.792969 97.875 105.929688 97.546875 C 106.582031 96.417969 107.289062 95.320312 108.054688 94.265625 C 108.347656 93.671875 108.609375 93.066406 108.941406 92.492188 C 109.335938 91.859375 109.632812 91.203125 109.988281 90.554688 C 110.152344 89.917969 110.554688 89.394531 110.804688 88.796875 C 111.367188 87.640625 111.859375 86.4375 112.277344 85.214844 C 112.699219 84.441406 112.902344 83.574219 113.242188 82.765625 C 113.351562 82.023438 113.71875 81.355469 113.828125 80.605469 C 114.082031 80.113281 114.035156 79.335938 114.394531 78.976562 Z M 90.722656 108.570312 C 90.941406 108.820312 90.304688 108.546875 90.722656 108.570312 Z M 89.527344 110.871094 C 90.105469 110.460938 90.78125 110.253906 91.367188 109.847656 C 92.089844 109.519531 92.785156 109.136719 93.480469 108.757812 C 94.683594 107.988281 95.84375 107.15625 97 106.324219 C 97.738281 105.851562 96.914062 106.785156 96.660156 106.894531 C 95.902344 107.355469 95.300781 108.019531 94.546875 108.476562 C 94.003906 108.933594 93.4375 109.304688 92.769531 109.511719 C 92.144531 109.78125 91.542969 110.042969 90.972656 110.402344 C 90.328125 110.742188 89.679688 111.132812 88.980469 111.320312 C 88.816406 111.226562 89.425781 110.910156 89.527344 110.871094 Z M 94.71875 105.875 C 94.890625 105.789062 95.6875 105.117188 95.46875 105.601562 C 95.105469 105.726562 94.546875 106.425781 94.296875 106.203125 C 94.382812 106.046875 94.546875 105.925781 94.71875 105.875 Z M 98.867188 104.746094 C 99.394531 104.339844 99.96875 103.984375 100.457031 103.550781 C 100.164062 104.191406 99.460938 104.558594 98.992188 105.070312 C 98.609375 105.410156 98.058594 105.855469 97.664062 105.925781 C 97.964844 105.449219 98.453125 105.121094 98.867188 104.746094 Z M 100.957031 102.96875 C 101.5 102.859375 100.632812 103.609375 100.871094 103.03125 Z M 105.035156 99.082031 C 104.878906 99.445312 104.308594 100.269531 104.074219 100.160156 C 104.316406 99.769531 104.660156 99.300781 105.035156 99.082031 Z M 103.757812 100.441406 C 103.542969 100.796875 102.953125 101.503906 102.675781 101.46875 C 102.976562 101.082031 103.328125 100.675781 103.757812 100.441406 Z M 26.96875 75.273438 C 27.328125 75.472656 27.117188 74.507812 26.949219 75.140625 L 26.949219 75.210938 Z M 98.253906 33.335938 C 98.542969 33.332031 98.160156 32.960938 98.253906 33.335938 Z M 101.769531 36.222656 C 102.136719 35.925781 101.582031 36.175781 101.769531 36.222656 Z M 45.261719 107.507812 C 45.75 107.542969 44.988281 107.175781 45.261719 107.507812 Z M 108.902344 43.320312 C 109.5 43.261719 108.71875 42.90625 108.902344 43.320312 Z M 109.945312 44.957031 C 110.042969 45.3125 110.453125 44.113281 110.011719 44.789062 L 109.96875 44.875 Z M 110.410156 45.820312 C 111.332031 46.152344 110.164062 45.234375 110.410156 45.820312 Z M 111.230469 46.339844 C 111.789062 46.1875 111.300781 45.917969 111.121094 46.34375 L 111.152344 46.355469 Z M 111.515625 46.617188 C 112.074219 46.464844 111.585938 46.195312 111.40625 46.617188 L 111.4375 46.628906 Z M 111.453125 47.386719 C 111.84375 47.605469 112.59375 47.074219 111.769531 47.140625 C 111.648438 47.144531 111.359375 47.195312 111.453125 47.386719 Z M 113.882812 51.820312 C 114.246094 51.914062 114.140625 50.984375 113.882812 51.601562 C 113.859375 51.667969 113.832031 51.757812 113.882812 51.820312 Z M 114.699219 52.609375 C 115.171875 52.695312 114.582031 52.171875 114.699219 52.609375 Z M 115.300781 55.132812 C 115.605469 55.199219 115.230469 54.621094 115.300781 55.132812 Z M 116.4375 58.519531 C 117.039062 58.460938 116.257812 58.101562 116.4375 58.519531 Z M 117.023438 60.011719 C 117.390625 59.714844 116.835938 59.964844 117.023438 60.011719 Z M 117.792969 66.402344 C 118.082031 66.394531 117.699219 66.023438 117.792969 66.402344 Z M 117.964844 68.753906 C 118.324219 68.984375 117.859375 68.101562 117.964844 68.753906 Z M 118.304688 69.730469 C 118.785156 69.554688 117.941406 69.367188 118.304688 69.730469 Z M 75.8125 117.007812 C 76.300781 116.992188 75.976562 116.578125 75.8125 117.007812 Z M 117.777344 77.207031 C 118.144531 76.914062 117.589844 77.164062 117.777344 77.207031 Z M 82.964844 115.808594 C 83.332031 115.511719 82.777344 115.761719 82.964844 115.808594 Z M 116.410156 81.808594 C 116.703125 81.800781 116.316406 81.429688 116.410156 81.808594 Z M 84.332031 115.585938 C 84.933594 115.394531 84.421875 115.234375 84.203125 115.601562 Z M 116.167969 83.171875 C 116.582031 83.261719 116.75 82.488281 116.277344 82.933594 C 116.25 82.988281 116.09375 83.101562 116.167969 83.171875 Z M 116.234375 83.761719 C 116.289062 84.070312 115.527344 84.640625 116.203125 84.238281 C 116.566406 84.101562 116.332031 82.925781 116.234375 83.761719 Z M 116.679688 83.660156 C 117.070312 83.796875 116.730469 83.136719 116.679688 83.660156 Z M 86.8125 114.738281 C 87.148438 114.886719 87.082031 114.148438 86.820312 114.628906 Z M 115.277344 85.964844 C 115.75 86.050781 115.160156 85.527344 115.277344 85.964844 Z M 115.230469 87.277344 C 115.910156 87.441406 114.691406 86.574219 115.132812 87.257812 Z M 89.242188 114.273438 C 89.871094 113.992188 88.675781 114.066406 89.242188 114.273438 Z M 114.148438 89.484375 C 114.691406 89.460938 113.703125 89.101562 114.148438 89.484375 Z M 91.273438 113.1875 C 91.664062 113.15625 91.824219 112.503906 91.378906 113.03125 L 91.316406 113.105469 Z M 113.179688 91.539062 C 113.539062 91.625 114.265625 91.203125 113.5 91.277344 C 113.394531 91.289062 113.054688 91.371094 113.179688 91.539062 Z M 95.1875 111.382812 C 95.4375 111.503906 96.222656 111.199219 95.597656 110.992188 C 95.554688 111.289062 95.113281 111.035156 95.1875 111.382812 Z M 111.511719 94.792969 C 111.878906 94.5 111.324219 94.75 111.511719 94.792969 Z M 98.625 109.25 C 99.070312 109.292969 99.074219 108.695312 99.28125 108.5 C 99.046875 108.722656 98.746094 108.945312 98.625 109.25 Z M 108.246094 99.488281 C 108.554688 99.5625 108.742188 98.902344 108.308594 99.28125 C 108.277344 99.324219 108.191406 99.421875 108.246094 99.488281 Z M 107.3125 100.578125 C 107.625 100.613281 108.304688 99.695312 107.640625 100.214844 C 107.546875 100.339844 107.269531 100.382812 107.3125 100.578125 Z M 100.679688 107.53125 C 101.046875 107.238281 100.492188 107.488281 100.679688 107.53125 Z M 31.121094 92.515625 C 31.730469 92.515625 31.269531 93.023438 31.039062 92.589844 L 31.066406 92.550781 Z M 115.960938 88.050781 C 115.789062 88.394531 115.726562 88.039062 115.960938 88.050781 Z M 110.628906 97.371094 C 110.65625 97.746094 110.066406 97.820312 110.496094 97.457031 L 110.558594 97.40625 Z M 110.628906 97.371094 " fill-opacity="1" fill-rule="nonzero"/></g></g></g></g></g></g></svg>