<svg width="358" height="219" viewBox="0 0 358 219" fill="none" xmlns="http://www.w3.org/2000/svg">
<g clip-path="url(#clip0_9_41352)">
<path d="M357.059 158.546C356.467 142.576 347.605 128.076 333.05 117.378C326.326 112.441 318.39 108.314 309.49 105.234C322.512 94.3104 330.799 77.9167 330.799 59.574C330.799 26.6934 304.175 0.0330811 271.333 0.0330811C238.488 0.0330811 211.864 26.6934 211.864 59.574C211.864 77.9167 220.154 94.3104 233.177 105.234C224.272 108.314 216.346 112.441 209.625 117.378C195.071 128.072 186.221 142.576 185.608 158.546C185.392 164.152 186.01 168.872 187.313 172.893C209.557 178.397 239.017 181.749 271.333 181.749C303.73 181.749 333.254 178.38 355.519 172.855C356.712 168.838 357.267 164.126 357.059 158.546Z" fill="#2D1818"/>
<path d="M171.705 158.546C171.112 142.576 162.254 128.076 147.692 117.378C140.971 112.441 133.036 108.314 124.136 105.234C137.158 94.3104 145.444 77.9167 145.444 59.574C145.444 26.6934 118.82 0.0330811 85.979 0.0330811C53.1335 0.0330811 26.5092 26.6934 26.5092 59.574C26.5092 77.9167 34.8 94.3104 47.8222 105.234C38.9178 108.314 30.9911 112.441 24.2704 117.378C9.71619 128.072 0.862597 142.576 0.253172 158.546C0.0373337 164.152 0.655225 168.872 1.95872 172.893C24.2027 178.397 53.6625 181.749 85.979 181.749C118.376 181.749 147.899 178.38 170.164 172.855C171.358 168.838 171.912 164.126 171.705 158.546Z" fill="#2D1818"/>
<path d="M269.788 194.202C269.158 177.223 259.737 161.804 244.26 150.436C237.116 145.186 228.682 140.801 219.219 137.521C233.062 125.915 241.869 108.488 241.869 88.9884C241.869 54.0359 213.569 25.6976 178.658 25.6976C143.739 25.6976 115.439 54.0359 115.439 88.9884C115.439 108.488 124.25 125.915 138.093 137.525C128.63 140.801 120.2 145.186 113.06 150.436C97.5876 161.804 88.1754 177.223 87.5237 194.202C87.2994 200.159 87.9553 205.18 89.3392 209.447C112.988 215.303 144.302 218.862 178.658 218.862C213.095 218.862 244.48 215.282 268.146 209.409C269.416 205.134 270.004 200.13 269.788 194.202Z" fill="#804E1C"/>
</g>
<defs>
<clipPath id="clip0_9_41352">
<rect width="357.204" height="218.788" fill="white"/>
</clipPath>
</defs>
</svg>
