<svg width="157" height="126" viewBox="0 0 157 126" fill="none" xmlns="http://www.w3.org/2000/svg">
<g clip-path="url(#clip0_9_30153)">
<path d="M100.592 61.8907C117.653 61.8907 131.533 48.0088 131.533 30.9454C131.533 13.8819 117.653 0 100.592 0C83.5312 0 69.6514 13.8819 69.6514 30.9454C69.6514 48.0088 83.5312 61.8907 100.592 61.8907ZM74.7961 30.9454C74.7961 16.7193 86.3681 5.14549 100.592 5.14549C114.816 5.14549 126.388 16.7193 126.388 30.9454C126.388 45.1715 114.816 56.7452 100.592 56.7452C86.3681 56.7452 74.7961 45.1715 74.7961 30.9454Z" fill="black"/>
<path d="M93.0352 45.1178C94.3714 46.423 96.1519 47.3415 98.1093 47.7464L98.0892 50.4805C98.0789 51.8608 99.1935 52.9921 100.574 53.0023H100.592C101.962 53.0023 103.085 51.8876 103.095 50.5176L103.116 47.7375C105.066 47.3263 106.84 46.4046 108.168 45.0999C109.711 43.5852 110.561 41.6458 110.561 39.6389V38.5335C110.561 35.8656 109.059 33.3429 106.544 31.7852L97.6191 26.2594C96.5729 25.6113 95.9727 24.7035 95.9727 23.768V22.04C95.9727 21.1992 96.4384 20.3907 97.2835 19.7636C98.2045 19.0802 99.4407 18.7034 100.764 18.7034C102.087 18.7034 103.323 19.0797 104.244 19.7636C105.089 20.3907 105.555 21.1992 105.555 22.04V23.9901C105.555 25.3703 106.678 26.4936 108.058 26.4936C109.439 26.4936 110.561 25.3703 110.561 23.9901V22.04C110.561 18.2273 107.535 14.9292 103.267 13.9736V11.391C103.267 10.0107 102.144 8.88751 100.764 8.88751C99.3839 8.88751 98.2608 10.0107 98.2608 11.391V13.9736C93.9929 14.9292 90.9665 18.2269 90.9665 22.04V23.768C90.9665 26.4359 92.4686 28.9586 94.9842 30.5163L103.909 36.0421C104.955 36.6902 105.555 37.598 105.555 38.5331V39.6384C105.555 40.4792 105.089 41.2878 104.244 41.9148C103.323 42.5983 102.087 42.9751 100.764 42.9751H100.423C99.1001 42.9751 97.8644 42.5987 96.9429 41.9148C96.0978 41.2878 95.6322 40.4792 95.6322 39.6384V38.5639C95.6322 37.1837 94.5091 36.0605 93.1291 36.0605C91.749 36.0605 90.626 37.1837 90.626 38.5639V39.6384C90.6251 41.6547 91.4809 43.6004 93.0352 45.1178Z" fill="black"/>
<path d="M152.785 69.3269C149.296 65.4486 143.722 65.062 139.802 68.4196L116.82 87.0121C116.83 86.7846 116.833 86.5566 116.83 86.3274C116.738 80.7836 112.386 76.2737 107.127 76.2737H81.6086C80.1379 76.2737 78.7507 75.424 77.8971 74.0013C77.713 73.6938 77.4587 73.439 77.1772 73.2169C66.73 64.9735 52.6892 63.8931 40.6676 69.2375L36.2236 71.2131H27.2963V67.1368C27.2963 65.6739 26.1103 64.4876 24.6476 64.4876H2.64976C1.18705 64.4876 0.000976562 65.6739 0.000976562 67.1368V116.137C0.000976562 117.6 1.18705 118.787 2.64976 118.787H24.6471C26.1098 118.787 27.2959 117.6 27.2959 116.137V111.933H36.3756L67.7936 121.91C74.919 124.545 80.8927 125.863 86.8655 125.863C91.6536 125.863 96.4417 125.016 101.823 123.323C102.318 123.167 102.818 123.004 103.323 122.834C104.413 122.416 105.471 121.917 106.492 121.348C107.332 120.878 108.128 120.333 108.874 119.724L152.775 83.9026C152.92 83.7841 153.052 83.6509 153.169 83.5048C156.434 79.423 156.265 73.195 152.785 69.3269ZM21.9983 113.489H5.29854V69.7864H21.9983V113.489ZM149.185 79.9947L108.239 113.405C104.663 116.322 100.471 118.394 95.9774 119.445C87.0765 121.528 79.7384 120.686 69.5749 116.921C69.5356 116.906 69.4958 116.892 69.4561 116.88L37.5871 106.76C37.3279 106.677 37.0575 106.635 36.7854 106.635H27.2963V76.5124H36.7863C37.1568 76.5124 37.5237 76.4346 37.862 76.284L42.8199 74.08C52.9484 69.5768 64.445 70.7581 73.6717 77.2253C75.5201 79.9585 78.4473 81.573 81.6086 81.573H107.127C109.512 81.573 111.488 83.7452 111.533 86.4154C111.557 87.89 111.025 89.2903 110.073 90.2584C109.605 90.734 109.059 91.0777 108.477 91.2717C107.723 91.3937 106.957 91.4554 106.185 91.4554H77.7997C76.3437 91.4554 75.1304 92.6135 75.1116 94.0697C75.0924 95.5487 76.2856 96.7538 77.7604 96.7538H107.353C108.149 96.7538 108.933 96.6474 109.688 96.4413C112.99 95.8451 116.109 94.4032 118.849 92.1862L143.165 72.5147C143.187 72.4964 143.209 72.4781 143.231 72.4593C144.94 70.9812 147.303 71.155 148.848 72.8718C150.555 74.7697 150.687 77.911 149.185 79.9947Z" fill="black"/>
</g>
<defs>
<clipPath id="clip0_9_30153">
<rect width="156.433" height="125.862" fill="white"/>
</clipPath>
</defs>
</svg>
