<svg width="178" height="143" viewBox="0 0 178 143" fill="none" xmlns="http://www.w3.org/2000/svg">
<g clip-path="url(#clip0_8_3722)">
<g clip-path="url(#clip1_8_3722)">
<path d="M156.495 67.3061C156.416 67.2663 156.339 67.2164 156.269 67.1549L152.237 63.6698C151.783 63.2775 151.733 62.5901 152.127 62.1349C152.52 61.6798 153.203 61.6259 153.661 62.0233L157.692 65.5084C158.147 65.9007 158.196 66.5881 157.803 67.0432C157.471 67.427 156.93 67.5226 156.495 67.3061Z" fill="black"/>
<path d="M145.216 58.0452C145.171 58.0228 145.127 57.9975 145.085 57.9681C143.38 56.8007 141.506 55.6306 139.515 54.4892C138.994 54.1905 138.814 53.5255 139.113 53.0038C139.412 52.4822 140.064 52.3075 140.598 52.6006C142.638 53.7708 144.562 54.9725 146.314 56.1726C146.81 56.5114 146.936 57.1888 146.597 57.6848C146.286 58.1383 145.694 58.2831 145.216 58.0452Z" fill="black"/>
<path d="M167.152 76.517C167.072 76.4773 166.996 76.4273 166.925 76.3658L163.017 72.9876C162.562 72.5953 162.513 71.908 162.906 71.4528C163.298 70.9982 163.982 70.9429 164.44 71.3411L168.349 74.7193C168.803 75.1116 168.853 75.799 168.459 76.2542C168.127 76.6377 167.586 76.7335 167.152 76.517Z" fill="black"/>
<path d="M71.8788 32.8555C65.8264 29.841 60.0692 26.2374 56.0494 22.7631L34.4897 4.12716C34.0355 3.735 33.9857 3.04746 34.3789 2.5923C34.7712 2.1377 35.4573 2.08337 35.9132 2.48063L57.473 21.1165C65.2807 27.8647 79.8421 35.1172 89.9321 37.2826L117.79 43.261C123.017 44.3823 129.497 46.8318 136.047 50.1474C136.582 50.4191 136.796 51.0738 136.524 51.6099C136.253 52.1438 135.604 52.3582 135.069 52.0919C135.067 52.0906 135.064 52.0895 135.062 52.0882C128.787 48.899 122.308 46.4564 117.332 45.3884L89.4741 39.41C84.2786 38.2949 77.9312 35.87 71.8788 32.8555Z" fill="black"/>
<path d="M64.4757 47.721C58.4233 44.7065 52.6661 41.1029 48.646 37.6277L27.086 18.9924C26.6318 18.6003 26.582 17.9127 26.9752 17.4576C27.3675 17.003 28.0536 16.9486 28.5095 17.3459L50.0695 35.9812C57.8778 42.7311 72.439 49.9835 82.5286 52.1473L110.387 58.1257C120.778 60.3554 135.771 67.8228 143.811 74.7732L165.366 93.4056C165.82 93.7979 165.87 94.4853 165.477 94.9404C165.084 95.3948 164.398 95.4465 163.942 95.0521L142.388 76.4198C134.581 69.672 120.02 62.4192 109.929 60.2531L82.0707 54.2747C76.8759 53.1603 70.5286 50.7358 64.4757 47.721Z" fill="black"/>
<path d="M57.0393 62.568C54.9858 61.5452 52.952 60.4472 50.9908 59.2952C50.4729 58.9911 50.2993 58.3245 50.6044 57.806C50.9083 57.2875 51.5704 57.1113 52.0932 57.4185C59.7917 61.9372 68.617 65.6144 75.1251 67.0116L102.983 72.9901C113.373 75.2191 128.367 82.6868 136.407 89.6376L157.962 108.27C158.417 108.662 158.466 109.35 158.073 109.805C157.68 110.259 156.994 110.311 156.539 109.916L134.984 91.2841C127.176 84.5351 112.615 77.2828 102.525 75.1175L74.6672 69.1391C69.6191 68.0566 63.2422 65.6574 57.0393 62.568Z" fill="black"/>
<path d="M38.9274 50.4472C38.8476 50.4075 38.7715 50.3575 38.7008 50.2961L31.4853 44.0584C31.0308 43.6661 30.9813 42.9788 31.3745 42.5236C31.7673 42.0693 32.4521 42.0142 32.9088 42.4119L40.1243 48.6495C40.5788 49.0418 40.6283 49.7292 40.2351 50.1844C39.903 50.5679 39.3618 50.6636 38.9274 50.4472Z" fill="black"/>
<path d="M24.0946 37.6253C24.0149 37.5856 23.9387 37.5356 23.868 37.4741L19.6827 33.8563C19.2282 33.464 19.1787 32.7766 19.5719 32.3215C19.9651 31.8663 20.6499 31.8134 21.1062 32.2098L25.2915 35.8276C25.746 36.2199 25.7955 36.9073 25.4023 37.3625C25.07 37.7465 24.5293 37.8418 24.0946 37.6253Z" fill="black"/>
<path d="M49.6696 77.4509C43.6166 74.4362 37.8586 70.8322 33.8385 67.357L12.2785 48.7216C11.8243 48.3295 11.7745 47.6419 12.1677 47.1868C12.56 46.7322 13.2457 46.6787 13.702 47.0751L35.2621 65.7104C43.0695 72.4592 57.6318 79.7121 67.7209 81.877L95.579 87.8552C105.971 90.0851 120.964 97.5526 129.003 104.503L150.558 123.135C151.013 123.527 151.062 124.215 150.669 124.67C150.276 125.124 149.591 125.177 149.135 124.782L127.58 106.149C119.773 99.4015 105.212 92.1487 95.1211 89.9826L67.263 84.0045C62.0679 82.8899 55.722 80.4654 49.6696 77.4509Z" fill="black"/>
<path d="M141.958 139.797C141.878 139.758 141.802 139.708 141.731 139.646L138.183 136.579C137.728 136.186 137.679 135.499 138.072 135.044C138.465 134.589 139.149 134.534 139.606 134.932L143.155 138C143.609 138.392 143.659 139.08 143.265 139.535C142.933 139.919 142.392 140.014 141.958 139.797Z" fill="black"/>
<path d="M134.252 133.136C134.172 133.096 134.096 133.047 134.025 132.985L123.699 124.059C123.245 123.666 123.195 122.979 123.588 122.524C123.981 122.07 124.666 122.014 125.123 122.412L135.448 131.339C135.903 131.731 135.952 132.418 135.559 132.873C135.227 133.257 134.686 133.353 134.252 133.136Z" fill="black"/>
<path d="M42.264 92.3144C36.2116 89.2999 30.4544 85.6963 26.4346 82.2219L4.87487 63.586C4.42068 63.1939 4.37086 62.5064 4.7641 62.0512C5.15635 61.5966 5.84249 61.5423 6.29838 61.9395L27.8581 80.5754C35.6659 87.3236 50.2273 94.5761 60.3173 96.7415L88.1752 102.72C97.3972 104.699 110.309 110.784 118.879 117.189C119.36 117.549 119.458 118.23 119.098 118.712C118.739 119.193 118.058 119.297 117.576 118.932C109.362 112.793 96.5256 106.738 87.7179 104.848L59.8599 98.8692C54.6634 97.7546 48.3164 95.3288 42.264 92.3144Z" fill="black"/>
</g>
</g>
<defs>
<clipPath id="clip0_8_3722">
<rect width="158.81" height="79.6034" fill="white" transform="translate(35.4894) rotate(26.4763)"/>
</clipPath>
<clipPath id="clip1_8_3722">
<rect width="158.81" height="79.6034" fill="white" transform="translate(35.4894) rotate(26.4763)"/>
</clipPath>
</defs>
</svg>
